<svg width="120" height="167" viewBox="0 0 120 167" fill="none" xmlns="http://www.w3.org/2000/svg">
<rect x="1" y="1" width="118" height="165" rx="9" stroke="#543FD6" stroke-width="2"/>
<path d="M60 75.1247L52.2656 77.7028C51.9982 77.7792 51.75 77.8365 51.5208 77.8747C51.2916 77.9129 51.0625 77.932 50.8333 77.932C49.6111 77.932 48.5416 77.5019 47.625 76.6418C46.7083 75.7816 46.25 74.6839 46.25 73.3486V60.859L40.2916 51.1768C40.0625 50.7948 39.8906 50.4029 39.776 50.0011C39.6614 49.5993 39.6041 49.1891 39.6041 48.7705C39.6041 48.3519 39.6614 47.9417 39.776 47.5399C39.8906 47.1381 40.0625 46.7462 40.2916 46.3643L48.0833 33.7601C48.5034 33.0726 49.0573 32.5379 49.7448 32.1559C50.4323 31.774 51.177 31.583 51.9791 31.583H68.0208C68.8229 31.583 69.5677 31.774 70.2552 32.1559C70.9427 32.5379 71.4965 33.0726 71.9166 33.7601L79.7083 46.3643C79.9375 46.7462 80.1093 47.1381 80.2239 47.5399C80.3385 47.9417 80.3958 48.3519 80.3958 48.7705C80.3958 49.1891 80.3385 49.6001 80.2239 50.0034C80.1093 50.4068 79.9375 50.7979 79.7083 51.1768L73.75 60.859V73.3486C73.75 74.6854 73.2916 75.7839 72.375 76.6441C71.4583 77.5042 70.3888 77.9335 69.1666 77.932C68.9375 77.932 68.7083 77.9129 68.4791 77.8747C68.25 77.8365 68.0017 77.7792 67.7343 77.7028L60 75.1247ZM51.9791 61.3747H68.0208L75.8125 48.7705L68.0208 36.1663H51.9791L44.1875 48.7705L51.9791 61.3747ZM57.5937 51.6351L65.6718 43.4997C66.092 43.0413 66.6175 42.8213 67.2485 42.8397C67.8795 42.858 68.4234 43.078 68.8802 43.4997C69.3385 43.958 69.5776 44.5027 69.5975 45.1336C69.6173 45.7646 69.3973 46.3085 68.9375 46.7653L59.1979 56.5049C58.7395 56.9632 58.2048 57.1924 57.5937 57.1924C56.9826 57.1924 56.4479 56.9632 55.9895 56.5049L51.1198 51.6351C50.6614 51.1768 50.4323 50.6329 50.4323 50.0034C50.4323 49.374 50.6614 48.8293 51.1198 48.3695C51.5781 47.9096 52.1227 47.6804 52.7537 47.682C53.3847 47.6835 53.9286 47.9127 54.3854 48.3695L57.5937 51.6351Z" fill="#543FD6"/>
<path d="M49.4062 115.234C45.3281 115.234 42.8906 112.07 42.8906 106.516C42.8906 100.984 45.3281 97.7969 49.4062 97.7969C53.4609 97.7969 55.9219 100.984 55.9219 106.516C55.9219 112.07 53.4844 115.234 49.4062 115.234ZM49.4062 112.68C51.5391 112.68 52.8516 110.594 52.8516 106.516C52.8516 102.461 51.5156 100.328 49.4062 100.328C47.2969 100.328 45.9609 102.461 45.9609 106.516C45.9609 110.594 47.2734 112.68 49.4062 112.68ZM64.6406 115.234C61.0078 115.234 58.4297 113.266 58.3594 110.406H61.4297C61.5234 111.766 62.8828 112.656 64.6406 112.656C66.5156 112.656 67.8516 111.625 67.8516 110.125C67.8516 108.602 66.5391 107.5 64.3359 107.5H62.8125V105.156H64.3359C66.1406 105.156 67.4062 104.148 67.3828 102.672C67.4062 101.242 66.3281 100.281 64.6641 100.281C63.0703 100.281 61.6875 101.172 61.6406 102.602H58.7109C58.7812 99.7422 61.3594 97.7969 64.6875 97.7969C68.1328 97.7969 70.3594 99.9062 70.3359 102.508C70.3594 104.406 69.0938 105.789 67.2422 106.164V106.305C69.6328 106.633 70.9922 108.156 70.9688 110.289C70.9922 113.148 68.3203 115.234 64.6406 115.234ZM75 115.188C73.9922 115.188 73.1719 114.367 73.1719 113.359C73.1719 112.375 73.9922 111.555 75 111.555C75.9609 111.555 76.8047 112.375 76.8047 113.359C76.8047 114.367 75.9609 115.188 75 115.188Z" fill="black"/>
<path d="M19.7168 127.461V135.477H18.4043V134.551H16.3301V133.637H18.4043V127.461H19.7168ZM19.9629 136.777V137.832H12.1934V134.703H13.4941V136.777H19.9629ZM10.7871 132.219C12.7441 132.207 15.3691 132.184 17.6191 131.902L17.6895 132.84C16.8164 132.986 15.9141 133.086 15.0176 133.145V135.184H13.7168V133.215C12.7266 133.256 11.7832 133.262 10.9512 133.262L10.7871 132.219ZM14.2441 127.848C15.791 127.848 16.8691 128.609 16.8809 129.723C16.8691 130.859 15.791 131.586 14.2441 131.586C12.6738 131.586 11.5957 130.859 11.5957 129.723C11.5957 128.609 12.6738 127.848 14.2441 127.848ZM14.2441 128.809C13.4004 128.809 12.8262 129.148 12.8262 129.723C12.8262 130.297 13.4004 130.637 14.2441 130.637C15.0527 130.637 15.627 130.297 15.6387 129.723C15.627 129.148 15.0527 128.809 14.2441 128.809ZM29.502 127.449V131.668H31.1309V132.746H29.502V138.043H28.2129V127.449H29.502ZM27.3926 129.078V130.121H21.1465V129.078H23.6543V127.602H24.9551V129.078H27.3926ZM24.3105 130.812C25.834 130.812 26.9707 131.844 26.9707 133.309C26.9707 134.773 25.834 135.793 24.3105 135.793C22.7637 135.793 21.627 134.773 21.6387 133.309C21.627 131.844 22.7637 130.812 24.3105 130.812ZM24.3105 131.879C23.4785 131.879 22.8809 132.441 22.8809 133.309C22.8809 134.176 23.4785 134.727 24.3105 134.715C25.1191 134.727 25.7168 134.176 25.7285 133.309C25.7168 132.441 25.1191 131.879 24.3105 131.879ZM40.1543 130.449V131.48H32.8184V127.836H34.1074V130.449H40.1543ZM41.2441 132.711V133.742H31.5645V132.711H41.2441ZM40.2246 136.742V137.797H32.7246V134.68H34.0254V136.742H40.2246ZM54.4746 135.676V136.766H44.7949V135.676H54.4746ZM53.6309 128.434V129.477H52.084V132.852H53.5957V133.883H45.627V132.852H47.1152V129.477H45.5918V128.434H53.6309ZM48.416 132.852H50.7949V129.477H48.416V132.852ZM64.834 132.934V133.965H55.1543V132.934H59.3496V132.148H56.3848V129.43H62.3379V128.656H56.3496V127.672H63.6387V130.367H57.6738V131.117H63.8496V132.148H60.6387V132.934H64.834ZM63.6738 134.633V137.914H56.4199V134.633H63.6738ZM57.6973 135.664V136.859H62.3848V135.664H57.6973ZM75.2168 135.676V136.766H65.5371V135.676H75.2168ZM74.373 128.434V129.477H72.8262V132.852H74.3379V133.883H66.3691V132.852H67.8574V129.477H66.334V128.434H74.373ZM69.1582 132.852H71.5371V129.477H69.1582V132.852ZM84.5215 133.004V134.035H77.0918V128.281H84.4277V129.336H78.416V130.613H84.1816V131.633H78.416V133.004H84.5215ZM85.5879 135.688V136.754H75.9082V135.688H85.5879ZM92.9824 129.324C92.9824 130.73 93.8262 132.102 95.4668 132.664L94.752 133.684C93.6094 133.25 92.7891 132.424 92.3496 131.387C91.8867 132.547 91.0254 133.467 89.7832 133.93L89.0918 132.898C90.791 132.324 91.6582 130.859 91.6699 129.312V128.105H92.9824V129.324ZM97.998 127.461V135.324H96.6973V130.859H94.5879V129.793H96.6973V127.461H97.998ZM98.2324 136.777V137.832H91.0137V134.469H92.3379V136.777H98.2324ZM104.057 128.188V129.23H101.15V130.262H103.951V131.258H101.15V132.371C102.445 132.359 103.342 132.307 104.373 132.113L104.514 133.168C103.271 133.402 102.24 133.438 100.6 133.438H99.8965V128.188H104.057ZM108.557 127.461V133.906H107.314V131.152H106.213V133.824H104.994V127.66H106.213V130.109H107.314V127.461H108.557ZM108.557 134.375V138.043H107.256V135.43H101.303V134.375H108.557Z" fill="black"/>
</svg>
