<svg width="120" height="167" viewBox="0 0 120 167" fill="none" xmlns="http://www.w3.org/2000/svg">
<rect x="1" y="1" width="118" height="165" rx="9" stroke="#543FD6" stroke-width="2"/>
<path d="M60 38.333C57.4792 38.333 55.3212 39.2306 53.5261 41.0257C51.7309 42.8209 50.8334 44.9788 50.8334 47.4997C50.8334 49.2184 51.2634 50.8035 52.1236 52.2549C52.9837 53.7063 54.1769 54.833 55.7032 55.6351C56.3143 55.9406 56.7443 56.389 56.9934 56.9803C57.2424 57.5715 57.2325 58.1735 56.9636 58.7861C56.6962 59.3209 56.2952 59.7219 55.7605 59.9893C55.2257 60.2566 54.691 60.2566 54.1563 59.9893C51.75 58.8434 49.8312 57.1438 48.3996 54.8903C46.9681 52.6368 46.2516 50.1733 46.25 47.4997C46.25 43.6802 47.5868 40.4337 50.2605 37.7601C52.9341 35.0865 56.1806 33.7497 60 33.7497C62.7118 33.7497 65.2044 34.4662 67.4778 35.8993C69.7511 37.3323 71.4408 39.2894 72.5469 41.7705C72.7761 42.3052 72.7669 42.84 72.5194 43.3747C72.2719 43.9094 71.88 44.2913 71.3438 44.5205C70.7327 44.7879 70.1216 44.7879 69.5105 44.5205C68.8993 44.2531 68.441 43.8139 68.1355 43.2028C67.3334 41.675 66.2066 40.4818 64.7553 39.6232C63.3039 38.7646 61.7188 38.3345 60 38.333ZM60 29.1663C54.882 29.1663 50.5469 30.9424 46.9948 34.4945C43.4428 38.0465 41.6667 42.3816 41.6667 47.4997C41.6667 52.3122 43.2518 56.4372 46.4219 59.8747C49.5921 63.3122 53.5643 65.2601 58.3386 65.7184C58.9879 65.7948 59.5509 66.0813 60.0275 66.5778C60.5042 67.0743 60.7242 67.6472 60.6875 68.2966C60.6509 68.9459 60.4118 69.4806 59.9703 69.9007C59.5287 70.3209 58.9848 70.5118 58.3386 70.4736C55.3594 70.2827 52.5804 69.5379 50.0015 68.2393C47.4226 66.9406 45.1691 65.2502 43.2411 63.1678C41.313 61.0854 39.8043 58.6983 38.715 56.0063C37.6257 53.3144 37.0818 50.4788 37.0834 47.4997C37.0834 44.3295 37.6853 41.3504 38.8892 38.5622C40.0931 35.774 41.7255 33.3486 43.7865 31.2861C45.8475 29.2236 48.2728 27.5912 51.0625 26.3888C53.8523 25.1865 56.8314 24.5845 60 24.583C65.9966 24.583 71.22 26.6264 75.6705 30.7132C80.1209 34.8 82.5554 39.8417 82.974 45.8382C83.0504 46.4493 82.8694 46.9749 82.4309 47.4149C81.9924 47.8549 81.4478 48.0932 80.7969 48.1299C80.1461 48.1665 79.564 47.9565 79.0507 47.4997C78.5373 47.0429 78.2409 46.489 78.1615 45.8382C77.5886 41.2549 75.5933 37.3308 72.1757 34.0659C68.758 30.8011 64.6995 29.1679 60 29.1663ZM77.3021 69.2705L69.7396 61.7653L68.0209 66.9788C67.8299 67.5136 67.4671 67.7718 66.9323 67.7534C66.3976 67.7351 66.0348 67.4578 65.8438 66.9216L60.6303 49.5622C60.4775 49.142 60.573 48.7601 60.9167 48.4163C61.2605 48.0726 61.6424 47.9771 62.0625 48.1299L79.4219 53.3434C79.9566 53.5344 80.2339 53.8972 80.2538 54.432C80.2737 54.9667 80.0155 55.3295 79.4792 55.5205L74.2657 57.2393L81.8282 64.8018C82.4775 65.4511 82.8021 66.1959 82.8021 67.0361C82.8021 67.8764 82.4775 68.6212 81.8282 69.2705C81.1789 69.9198 80.4249 70.2445 79.5663 70.2445C78.7077 70.2445 77.953 69.9198 77.3021 69.2705Z" fill="#543FD6"/>
<path d="M49.5 108.234C45.4219 108.234 42.9844 105.07 42.9844 99.5156C42.9844 93.9844 45.4219 90.7969 49.5 90.7969C53.5547 90.7969 56.0156 93.9844 56.0156 99.5156C56.0156 105.07 53.5781 108.234 49.5 108.234ZM49.5 105.68C51.6328 105.68 52.9453 103.594 52.9453 99.5156C52.9453 95.4609 51.6094 93.3281 49.5 93.3281C47.3906 93.3281 46.0547 95.4609 46.0547 99.5156C46.0547 103.594 47.3672 105.68 49.5 105.68ZM58.5703 108V105.797L64.5703 100.008C66.2812 98.2969 67.1719 97.2891 67.1719 95.8594C67.1719 94.2891 65.9297 93.2812 64.2656 93.2812C62.5078 93.2812 61.3828 94.3828 61.4062 96.0938H58.5C58.4766 92.8828 60.8906 90.7969 64.2891 90.7969C67.7578 90.7969 70.1016 92.8594 70.1016 95.7188C70.1016 97.6406 69.1641 99.1875 65.8359 102.328L62.8125 105.328V105.445H70.3594V108H58.5703ZM74.9062 108.188C73.8984 108.188 73.0781 107.367 73.0781 106.359C73.0781 105.375 73.8984 104.555 74.9062 104.555C75.8672 104.555 76.7109 105.375 76.7109 106.359C76.7109 107.367 75.8672 108.188 74.9062 108.188Z" fill="black"/>
<path d="M15.4219 130V121.516H18.6094C20.5547 121.516 21.5977 122.699 21.5977 124.328C21.5977 125.957 20.543 127.129 18.5859 127.129H16.9453V130H15.4219ZM16.9453 125.875H18.375C19.5234 125.875 20.0391 125.23 20.0391 124.328C20.0391 123.414 19.5234 122.793 18.375 122.793H16.9453V125.875ZM22.8281 130V121.516H26.0156C27.9609 121.516 29.0039 122.605 29.0039 124.223C29.0039 125.377 28.4766 126.232 27.4805 126.637L29.3086 130H27.6094L25.9453 126.895H24.3516V130H22.8281ZM24.3516 125.617H25.7812C26.9297 125.617 27.4453 125.125 27.4453 124.223C27.4453 123.32 26.9297 122.793 25.7812 122.793H24.3516V125.617ZM37.8867 125.758C37.8867 128.5 36.2227 130.117 33.9961 130.117C31.7695 130.117 30.1055 128.488 30.1055 125.758C30.1055 123.016 31.7695 121.398 33.9961 121.398C36.2227 121.398 37.8867 123.016 37.8867 125.758ZM36.3516 125.758C36.3516 123.824 35.3789 122.77 33.9961 122.77C32.6133 122.77 31.6406 123.824 31.6406 125.758C31.6406 127.691 32.6133 128.746 33.9961 128.746C35.3789 128.746 36.3516 127.691 36.3516 125.758ZM39.2461 121.516H41.1211L43.6406 127.68H43.7461L46.2656 121.516H48.1406V130H46.6758V124.164H46.5938L44.2383 129.977H43.1484L40.793 124.141H40.7227V130H39.2461V121.516ZM50.7891 130H49.1602L52.1484 121.516H54.0234L57.0234 130H55.3945L54.6914 127.902H51.4922L50.7891 130ZM51.9023 126.672H54.2812L53.1211 123.25H53.0508L51.9023 126.672ZM61.957 130H60.3281L63.3164 121.516H65.1914L68.1914 130H66.5625L65.8594 127.902H62.6602L61.957 130ZM63.0703 126.672H65.4492L64.2891 123.25H64.2188L63.0703 126.672ZM69.1992 130V121.516H72.3867C74.332 121.516 75.375 122.699 75.375 124.328C75.375 125.957 74.3203 127.129 72.3633 127.129H70.7227V130H69.1992ZM70.7227 125.875H72.1523C73.3008 125.875 73.8164 125.23 73.8164 124.328C73.8164 123.414 73.3008 122.793 72.1523 122.793H70.7227V125.875ZM78.1289 121.516V130H76.6055V121.516H78.1289ZM83.7773 120.918V122.266H86.25V120.918H87.5391V125.535H82.4883V120.918H83.7773ZM83.7773 124.504H86.25V123.25H83.7773V124.504ZM90.4805 120.449V122.594H91.957V123.648H90.4805V125.875H89.1797V120.449H90.4805ZM90.4805 126.297V129.074H84.8555V129.918H90.8086V130.949H83.5664V128.125H89.1797V127.316H83.5547V126.297H90.4805ZM94.9688 126.484V127.703H99.668V126.484H100.957V130.914H93.6914V126.484H94.9688ZM94.9688 129.859H99.668V128.711H94.9688V129.859ZM100.992 120.906V121.727C100.992 122.529 100.992 123.414 100.734 124.656H102.176V125.699H92.4961V124.656H99.4453C99.668 123.537 99.6914 122.693 99.6914 121.949H93.6914V120.906H100.992ZM47.0684 134.449V145.055H45.7793V139.312H43.623V142.488H38.584V135.27H39.8965V137.906H42.3457V135.27H43.623V138.246H45.7793V134.449H47.0684ZM39.8965 141.445H42.3457V138.926H39.8965V141.445ZM58.2129 140.227V141.258H48.5332V140.227H58.2129ZM57.2168 143.777V144.832H49.752V141.867H51.0293V143.777H57.2168ZM57.1348 138.457V139.453H49.7754V134.812H57.0527V135.82H51.0762V136.641H56.7949V137.613H51.0762V138.457H57.1348ZM70.2715 134.883V135.762C70.2715 136.588 70.2715 137.49 70.0488 138.621H71.4082V139.664H61.7988V138.621H68.7598C68.8242 138.246 68.8711 137.9 68.9121 137.566L62.8535 137.824L62.7012 136.816L68.959 136.664C68.9707 136.406 68.9707 136.16 68.9707 135.914H62.9707V134.883H70.2715ZM70.3301 140.426V143.098H64.1777V143.895H70.7051V144.914H62.8887V142.148H69.0293V141.422H62.8652V140.426H70.3301ZM80.9707 134.461V140.941H79.6582V134.461H80.9707ZM80.9707 141.434V145.043H79.6582V142.5H73.7402V141.434H80.9707ZM77.5723 135.059V138.199H73.9863V139.383C75.8027 139.377 77.0859 139.318 78.6035 139.09L78.7676 140.133C77.0918 140.402 75.6621 140.449 73.6113 140.449H72.709V137.191H76.2832V136.113H72.6855V135.059H77.5723Z" fill="black"/>
</svg>
