<svg width="120" height="167" viewBox="0 0 120 167" fill="none" xmlns="http://www.w3.org/2000/svg">
<rect x="1" y="1" width="118" height="165" rx="9" stroke="#543FD6" stroke-width="2"/>
<path d="M39.3751 29.1663V56.6663H80.6251V29.1663H39.3751ZM39.3751 24.583H80.6251C81.8407 24.583 83.0064 25.0659 83.866 25.9254C84.7255 26.785 85.2084 27.9508 85.2084 29.1663V56.6663C85.2084 57.8809 84.7272 59.0497 83.8563 59.8976C83.0084 60.7684 81.8397 61.2497 80.6251 61.2497H64.5834V65.833H69.1667V70.4163H50.8334V65.833H55.4167V61.2497H39.3751C38.1605 61.2497 36.9917 60.7684 36.1438 59.8976C35.273 59.0497 34.7917 57.8809 34.7917 56.6663V29.1663C34.7917 26.6226 36.8313 24.583 39.3751 24.583ZM57.3417 40.4643C58.0522 39.7768 59.0147 39.3643 60.0001 39.3643C60.9855 39.3872 61.948 39.7768 62.6584 40.4872C63.3459 41.1747 63.7584 42.1372 63.7584 43.1226C63.7584 44.1309 63.3459 45.0705 62.6584 45.7809C61.948 46.4913 60.9855 46.8809 60.0001 46.8809C59.0147 46.8809 58.0522 46.4684 57.3417 45.7809C56.6542 45.0705 56.2417 44.1309 56.2417 43.1226C56.2417 42.1372 56.6542 41.1747 57.3417 40.4643ZM55.5772 47.4997C56.1501 48.0944 56.8371 48.5674 57.597 48.8905C58.357 49.2136 59.1743 49.3801 60.0001 49.3801C60.8259 49.3801 61.6432 49.2136 62.4031 48.8905C63.1631 48.5674 63.8501 48.0944 64.423 47.4997C65.5917 46.3538 66.2563 44.7726 66.2563 43.1226C66.2563 41.4726 65.5917 39.8684 64.423 38.6997C63.2542 37.5309 61.6501 36.8663 60.0001 36.8663C58.3501 36.8663 56.7459 37.5309 55.5772 38.6997C54.4084 39.8684 53.7438 41.4726 53.7438 43.1226C53.7438 44.7726 54.4084 46.3538 55.5772 47.4997ZM46.2501 43.1226C47.336 40.3604 49.2284 37.9891 51.6808 36.3174C54.1332 34.6457 57.0321 33.7509 60.0001 33.7497C66.2563 33.7497 71.5959 37.6455 73.7501 43.1226C72.6721 45.8902 70.7817 48.2668 68.3275 49.9398C65.8733 51.6127 62.9702 52.5037 60.0001 52.4955C53.7438 52.4955 48.4042 48.6455 46.2501 43.1226Z" fill="#543FD6"/>
<path d="M49.5 108.234C45.4219 108.234 42.9844 105.07 42.9844 99.5156C42.9844 93.9844 45.4219 90.7969 49.5 90.7969C53.5547 90.7969 56.0156 93.9844 56.0156 99.5156C56.0156 105.07 53.5781 108.234 49.5 108.234ZM49.5 105.68C51.6328 105.68 52.9453 103.594 52.9453 99.5156C52.9453 95.4609 51.6094 93.3281 49.5 93.3281C47.3906 93.3281 46.0547 95.4609 46.0547 99.5156C46.0547 103.594 47.3672 105.68 49.5 105.68ZM64.9219 108.234C61.6172 108.211 58.2891 106.242 58.3125 99.9844C58.3125 94.1719 60.9609 90.7969 65.1094 90.7969C68.3906 90.7969 70.6406 92.8594 71.0156 95.6016H67.9922C67.6875 94.3125 66.6562 93.4453 65.1094 93.4453C62.6484 93.4453 61.2656 95.625 61.2656 99.1875H61.4297C62.2969 97.7344 63.9375 96.8672 65.7891 96.8672C68.8359 96.8672 71.1797 99.1641 71.1797 102.375C71.1797 105.75 68.6719 108.258 64.9219 108.234ZM64.9219 105.773C66.8203 105.773 68.2266 104.297 68.2266 102.445C68.2266 100.641 66.8438 99.1875 64.9688 99.1875C63.0703 99.1875 61.6172 100.688 61.5938 102.469C61.6172 104.25 63 105.773 64.9219 105.773ZM74.9062 108.188C73.8984 108.188 73.0781 107.367 73.0781 106.359C73.0781 105.375 73.8984 104.555 74.9062 104.555C75.8672 104.555 76.7109 105.375 76.7109 106.359C76.7109 107.367 75.8672 108.188 74.9062 108.188Z" fill="black"/>
<path d="M28.6406 130V121.516H31.8281C33.7734 121.516 34.8164 122.699 34.8164 124.328C34.8164 125.957 33.7617 127.129 31.8047 127.129H30.1641V130H28.6406ZM30.1641 125.875H31.5938C32.7422 125.875 33.2578 125.23 33.2578 124.328C33.2578 123.414 32.7422 122.793 31.5938 122.793H30.1641V125.875ZM36.0469 130V121.516H39.2344C41.1797 121.516 42.2227 122.605 42.2227 124.223C42.2227 125.377 41.6953 126.232 40.6992 126.637L42.5273 130H40.8281L39.1641 126.895H37.5703V130H36.0469ZM37.5703 125.617H39C40.1484 125.617 40.6641 125.125 40.6641 124.223C40.6641 123.32 40.1484 122.793 39 122.793H37.5703V125.617ZM51.1055 125.758C51.1055 128.5 49.4414 130.117 47.2148 130.117C44.9883 130.117 43.3242 128.488 43.3242 125.758C43.3242 123.016 44.9883 121.398 47.2148 121.398C49.4414 121.398 51.1055 123.016 51.1055 125.758ZM49.5703 125.758C49.5703 123.824 48.5977 122.77 47.2148 122.77C45.832 122.77 44.8594 123.824 44.8594 125.758C44.8594 127.691 45.832 128.746 47.2148 128.746C48.5977 128.746 49.5703 127.691 49.5703 125.758ZM52.4648 121.516H54.3398L56.8594 127.68H56.9648L59.4844 121.516H61.3594V130H59.8945V124.164H59.8125L57.457 129.977H56.3672L54.0117 124.141H53.9414V130H52.4648V121.516ZM64.0078 130H62.3789L65.3672 121.516H67.2422L70.2422 130H68.6133L67.9102 127.902H64.7109L64.0078 130ZM65.1211 126.672H67.5L66.3398 123.25H66.2695L65.1211 126.672ZM75.1758 130H73.5469L76.5352 121.516H78.4102L81.4102 130H79.7812L79.0781 127.902H75.8789L75.1758 130ZM76.2891 126.672H78.668L77.5078 123.25H77.4375L76.2891 126.672ZM82.418 130V121.516H85.6055C87.5508 121.516 88.5938 122.699 88.5938 124.328C88.5938 125.957 87.5391 127.129 85.582 127.129H83.9414V130H82.418ZM83.9414 125.875H85.3711C86.5195 125.875 87.0352 125.23 87.0352 124.328C87.0352 123.414 86.5195 122.793 85.3711 122.793H83.9414V125.875ZM91.3477 121.516V130H89.8242V121.516H91.3477ZM30.1758 136.992C30.1641 138.879 31.1133 140.801 32.7539 141.586L31.957 142.629C30.8086 142.049 29.9824 140.93 29.5312 139.582C29.0684 141.023 28.2012 142.219 26.9883 142.828L26.1914 141.785C27.8906 140.977 28.8633 138.949 28.875 136.992V135.305H30.1758V136.992ZM34.6875 134.449V138.598H36.3164V139.711H34.6875V145.043H33.3867V134.449H34.6875ZM46.418 139.547V140.59H36.7617V139.547H39.0117V138.199C38.2148 137.865 37.7578 137.332 37.7578 136.641C37.7578 135.375 39.2461 134.625 41.5781 134.625C43.9102 134.625 45.3867 135.375 45.3984 136.641C45.3926 137.338 44.9355 137.871 44.1328 138.199V139.547H46.418ZM41.5781 141.234C43.8633 141.223 45.2344 141.902 45.2461 143.121C45.2344 144.352 43.8633 145.02 41.5781 145.02C39.2695 145.02 37.8867 144.352 37.8867 143.121C37.8867 141.902 39.2695 141.223 41.5781 141.234ZM41.5781 142.219C40.0312 142.219 39.1992 142.523 39.2109 143.121C39.1992 143.719 40.0312 144.035 41.5781 144.035C43.0898 144.035 43.9336 143.719 43.9453 143.121C43.9336 142.523 43.0898 142.219 41.5781 142.219ZM41.5781 135.633C40.0078 135.633 39.1055 135.984 39.1172 136.641C39.1055 137.285 40.0078 137.625 41.5781 137.625C43.1367 137.625 44.0508 137.285 44.0508 136.641C44.0508 135.984 43.1367 135.633 41.5781 135.633ZM40.3242 139.547H42.832V138.539C42.4512 138.592 42.0293 138.621 41.5781 138.621C41.127 138.621 40.7051 138.592 40.3242 138.539V139.547ZM59.6602 142.734V143.812H49.9805V142.734H54.1523V141.012H51.1289V137.543H57.2227V136.23H51.1055V135.176H58.5117V138.574H52.4297V139.945H58.7578V141.012H55.4414V142.734H59.6602ZM68.7773 135.48V136.676C68.7773 138.094 68.7773 139.559 68.3906 141.785L67.0664 141.668C67.4766 139.582 67.4766 138.047 67.4766 136.676V136.535H61.3711V135.48H68.7773ZM70.0078 142.523V143.59H60.3516V142.523H70.0078ZM81.9609 134.461V137.543H83.3906V138.621H81.9609V141.621H80.6602V134.461H81.9609ZM73.4766 140.355C74.2734 140.355 75.1934 140.35 76.1484 140.32V139.676C74.9707 139.529 74.2266 138.961 74.2266 138.129C74.2266 137.156 75.2461 136.547 76.7812 136.559C78.3281 136.547 79.3359 137.156 79.3359 138.129C79.3359 138.955 78.6094 139.518 77.4492 139.664V140.273C78.3516 140.232 79.2598 140.162 80.1094 140.051L80.2148 140.953C77.9531 141.352 75.4805 141.375 73.6172 141.375L73.4766 140.355ZM81.9609 142.078V145.043H80.6602V143.098H74.8125V142.078H81.9609ZM79.8281 135.293V136.254H73.7461V135.293H76.1484V134.367H77.4492V135.293H79.8281ZM76.7812 137.438C75.9609 137.426 75.4688 137.672 75.4805 138.129C75.4688 138.562 75.9609 138.844 76.7812 138.832C77.6016 138.844 78.0938 138.562 78.0938 138.129C78.0938 137.672 77.6016 137.426 76.7812 137.438ZM92.7656 134.461V142.113H91.4531V134.461H92.7656ZM93.0586 143.777V144.832H85.7578V141.34H87.0703V143.777H93.0586ZM86.9883 135.152C88.5938 135.152 89.8359 136.266 89.8359 137.801C89.8359 139.371 88.5938 140.461 86.9883 140.461C85.3711 140.461 84.1289 139.371 84.1289 137.801C84.1289 136.266 85.3711 135.152 86.9883 135.152ZM86.9883 136.289C86.0859 136.289 85.3945 136.887 85.4062 137.801C85.3945 138.738 86.0859 139.324 86.9883 139.324C87.8672 139.324 88.5586 138.738 88.5586 137.801C88.5586 136.887 87.8672 136.289 86.9883 136.289Z" fill="black"/>
</svg>
