<svg width="120" height="167" viewBox="0 0 120 167" fill="none" xmlns="http://www.w3.org/2000/svg">
<rect x="1" y="1" width="118" height="165" rx="9" stroke="#543FD6" stroke-width="2"/>
<path d="M60 42.917C61.9097 42.917 63.533 42.2486 64.8698 40.9118C66.2066 39.575 66.875 37.9517 66.875 36.042C66.875 34.1323 66.2066 32.509 64.8698 31.1722C63.533 29.8354 61.9097 29.167 60 29.167C58.0903 29.167 56.467 29.8354 55.1302 31.1722C53.7934 32.509 53.125 34.1323 53.125 36.042C53.125 37.9517 53.7934 39.575 55.1302 40.9118C56.467 42.2486 58.0903 42.917 60 42.917ZM60.0573 71.8493C59.7517 71.8493 59.4653 71.8019 59.1979 71.7072C58.9306 71.6125 58.6823 71.4689 58.4531 71.2764L52.5521 66.1201C52.3229 65.9291 52.1411 65.7091 52.0067 65.4601C51.8722 65.2111 51.7867 64.9346 51.75 64.6305C51.7133 64.3265 51.7424 64.0309 51.8371 63.7437C51.9318 63.4564 52.0747 63.1982 52.2656 62.9691L55.4167 58.9587L52.4375 55.9795C52.2083 55.7503 52.0456 55.5021 51.9494 55.2347C51.8531 54.9673 51.8065 54.6809 51.8096 54.3753C51.8126 54.0698 51.86 53.7833 51.9517 53.516C52.0433 53.2486 52.206 53.0003 52.4398 52.7712L55.4167 49.792V48.9899C52.6667 48.035 50.4514 46.3736 48.7708 44.0055C47.0903 41.6375 46.25 38.983 46.25 36.042C46.25 32.2225 47.5868 28.976 50.2604 26.3024C52.934 23.6288 56.1806 22.292 60 22.292C63.8194 22.292 67.066 23.6288 69.7396 26.3024C72.4132 28.976 73.75 32.2225 73.75 36.042C73.75 39.1357 72.8715 41.8384 71.1146 44.1499C69.3576 46.4614 67.1806 48.0748 64.5833 48.9899V67.2087C64.5833 67.5142 64.526 67.8106 64.4115 68.0978C64.2969 68.3851 64.125 68.6425 63.8958 68.8701L61.5469 71.2191C61.3559 71.4101 61.1359 71.5628 60.8869 71.6774C60.6378 71.792 60.3613 71.8493 60.0573 71.8493Z" fill="#543FD6"/>
<path d="M49.2305 108.234C45.1523 108.234 42.7148 105.07 42.7148 99.5156C42.7148 93.9844 45.1523 90.7969 49.2305 90.7969C53.2852 90.7969 55.7461 93.9844 55.7461 99.5156C55.7461 105.07 53.3086 108.234 49.2305 108.234ZM49.2305 105.68C51.3633 105.68 52.6758 103.594 52.6758 99.5156C52.6758 95.4609 51.3398 93.3281 49.2305 93.3281C47.1211 93.3281 45.7852 95.4609 45.7852 99.5156C45.7852 103.594 47.0977 105.68 49.2305 105.68ZM57.9961 104.836V102.398L65.332 91.0312H69.1289V102.328H71.3555V104.836H69.1289V108H66.2227V104.836H57.9961ZM61.1133 102.328H66.2695V94.5H66.082L61.1133 102.211V102.328ZM75.1758 108.188C74.168 108.188 73.3477 107.367 73.3477 106.359C73.3477 105.375 74.168 104.555 75.1758 104.555C76.1367 104.555 76.9805 105.375 76.9805 106.359C76.9805 107.367 76.1367 108.188 75.1758 108.188Z" fill="black"/>
<path d="M28.6406 130V121.516H31.8281C33.7734 121.516 34.8164 122.699 34.8164 124.328C34.8164 125.957 33.7617 127.129 31.8047 127.129H30.1641V130H28.6406ZM30.1641 125.875H31.5938C32.7422 125.875 33.2578 125.23 33.2578 124.328C33.2578 123.414 32.7422 122.793 31.5938 122.793H30.1641V125.875ZM36.0469 130V121.516H39.2344C41.1797 121.516 42.2227 122.605 42.2227 124.223C42.2227 125.377 41.6953 126.232 40.6992 126.637L42.5273 130H40.8281L39.1641 126.895H37.5703V130H36.0469ZM37.5703 125.617H39C40.1484 125.617 40.6641 125.125 40.6641 124.223C40.6641 123.32 40.1484 122.793 39 122.793H37.5703V125.617ZM51.1055 125.758C51.1055 128.5 49.4414 130.117 47.2148 130.117C44.9883 130.117 43.3242 128.488 43.3242 125.758C43.3242 123.016 44.9883 121.398 47.2148 121.398C49.4414 121.398 51.1055 123.016 51.1055 125.758ZM49.5703 125.758C49.5703 123.824 48.5977 122.77 47.2148 122.77C45.832 122.77 44.8594 123.824 44.8594 125.758C44.8594 127.691 45.832 128.746 47.2148 128.746C48.5977 128.746 49.5703 127.691 49.5703 125.758ZM52.4648 121.516H54.3398L56.8594 127.68H56.9648L59.4844 121.516H61.3594V130H59.8945V124.164H59.8125L57.457 129.977H56.3672L54.0117 124.141H53.9414V130H52.4648V121.516ZM64.0078 130H62.3789L65.3672 121.516H67.2422L70.2422 130H68.6133L67.9102 127.902H64.7109L64.0078 130ZM65.1211 126.672H67.5L66.3398 123.25H66.2695L65.1211 126.672ZM75.1758 130H73.5469L76.5352 121.516H78.4102L81.4102 130H79.7812L79.0781 127.902H75.8789L75.1758 130ZM76.2891 126.672H78.668L77.5078 123.25H77.4375L76.2891 126.672ZM82.418 130V121.516H85.6055C87.5508 121.516 88.5938 122.699 88.5938 124.328C88.5938 125.957 87.5391 127.129 85.582 127.129H83.9414V130H82.418ZM83.9414 125.875H85.3711C86.5195 125.875 87.0352 125.23 87.0352 124.328C87.0352 123.414 86.5195 122.793 85.3711 122.793H83.9414V125.875ZM91.3477 121.516V130H89.8242V121.516H91.3477ZM38.707 144V135.516H40.2305V139.418H40.3477L43.6641 135.516H45.5273L42.2461 139.324L45.5625 144H43.7227L41.1797 140.355L40.2305 141.469V144H38.707ZM48.7852 144.129C46.8633 144.129 45.6914 142.852 45.6914 140.859C45.6914 138.891 46.8867 137.555 48.7031 137.555C50.2617 137.555 51.6094 138.527 51.6094 140.766V141.234H47.168C47.1855 142.318 47.8242 142.957 48.7969 142.957C49.4531 142.957 49.8984 142.676 50.0859 142.301H51.5508C51.2812 143.402 50.2617 144.129 48.7852 144.129ZM47.1797 140.215H50.1797C50.168 139.348 49.5938 138.715 48.7266 138.715C47.8242 138.715 47.2266 139.4 47.1797 140.215ZM53.4844 146.391C53.1914 146.391 52.8984 146.379 52.7109 146.355V145.16C52.8984 145.172 53.1445 145.184 53.3438 145.184C53.707 145.184 54.0117 145.148 54.2695 144.469L54.3984 144.129L52.0781 137.637H53.6602L55.1367 142.441H55.207L56.6836 137.637H58.2656L55.7109 144.773C55.3477 145.793 54.6797 146.391 53.4844 146.391ZM63.3398 134.918V136.266H65.8125V134.918H67.1016V139.535H62.0508V134.918H63.3398ZM63.3398 138.504H65.8125V137.25H63.3398V138.504ZM70.043 134.449V136.594H71.5195V137.648H70.043V139.875H68.7422V134.449H70.043ZM70.043 140.297V143.074H64.418V143.918H70.3711V144.949H63.1289V142.125H68.7422V141.316H63.1172V140.297H70.043ZM74.5312 140.484V141.703H79.2305V140.484H80.5195V144.914H73.2539V140.484H74.5312ZM74.5312 143.859H79.2305V142.711H74.5312V143.859ZM80.5547 134.906V135.727C80.5547 136.529 80.5547 137.414 80.2969 138.656H81.7383V139.699H72.0586V138.656H79.0078C79.2305 137.537 79.2539 136.693 79.2539 135.949H73.2539V134.906H80.5547Z" fill="black"/>
</svg>
