<svg width="120" height="167" viewBox="0 0 120 167" fill="none" xmlns="http://www.w3.org/2000/svg">
<rect x="1" y="1" width="118" height="165" rx="9" stroke="#543FD6" stroke-width="2"/>
<path d="M46.25 68.125V63.5417L48.5417 61.25H41.6667C40.4063 61.25 39.3277 60.8016 38.4309 59.9048C37.5341 59.008 37.0849 57.9286 37.0834 56.6667V31.4583C37.0834 30.1979 37.5325 29.1193 38.4309 28.2225C39.3292 27.3257 40.4078 26.8765 41.6667 26.875H78.3334C79.5938 26.875 80.6732 27.3242 81.5715 28.2225C82.4698 29.1208 82.9182 30.1994 82.9167 31.4583V56.6667C82.9167 57.9271 82.4683 59.0065 81.5715 59.9048C80.6747 60.8031 79.5953 61.2515 78.3334 61.25H71.4584L73.75 63.5417V68.125H46.25ZM41.6667 56.6667H78.3334V31.4583H41.6667V56.6667Z" fill="#543FD6"/>
<path d="M51.6914 108.234C47.6133 108.234 45.1758 105.07 45.1758 99.5156C45.1758 93.9844 47.6133 90.7969 51.6914 90.7969C55.7461 90.7969 58.207 93.9844 58.207 99.5156C58.207 105.07 55.7695 108.234 51.6914 108.234ZM51.6914 105.68C53.8242 105.68 55.1367 103.594 55.1367 99.5156C55.1367 95.4609 53.8008 93.3281 51.6914 93.3281C49.582 93.3281 48.2461 95.4609 48.2461 99.5156C48.2461 103.594 49.5586 105.68 51.6914 105.68ZM67.6523 91.0312V108H64.582V94.0078H64.4883L60.5273 96.5391V93.75L64.7227 91.0312H67.6523ZM72.7148 108.188C71.707 108.188 70.8867 107.367 70.8867 106.359C70.8867 105.375 71.707 104.555 72.7148 104.555C73.6758 104.555 74.5195 105.375 74.5195 106.359C74.5195 107.367 73.6758 108.188 72.7148 108.188Z" fill="black"/>
<path d="M13.6758 130V121.516H16.8633C18.8086 121.516 19.8516 122.699 19.8516 124.328C19.8516 125.957 18.7969 127.129 16.8398 127.129H15.1992V130H13.6758ZM15.1992 125.875H16.6289C17.7773 125.875 18.293 125.23 18.293 124.328C18.293 123.414 17.7773 122.793 16.6289 122.793H15.1992V125.875ZM21.082 130V121.516H24.2695C26.2148 121.516 27.2578 122.605 27.2578 124.223C27.2578 125.377 26.7305 126.232 25.7344 126.637L27.5625 130H25.8633L24.1992 126.895H22.6055V130H21.082ZM22.6055 125.617H24.0352C25.1836 125.617 25.6992 125.125 25.6992 124.223C25.6992 123.32 25.1836 122.793 24.0352 122.793H22.6055V125.617ZM36.1406 125.758C36.1406 128.5 34.4766 130.117 32.25 130.117C30.0234 130.117 28.3594 128.488 28.3594 125.758C28.3594 123.016 30.0234 121.398 32.25 121.398C34.4766 121.398 36.1406 123.016 36.1406 125.758ZM34.6055 125.758C34.6055 123.824 33.6328 122.77 32.25 122.77C30.8672 122.77 29.8945 123.824 29.8945 125.758C29.8945 127.691 30.8672 128.746 32.25 128.746C33.6328 128.746 34.6055 127.691 34.6055 125.758ZM37.5 121.516H39.375L41.8945 127.68H42L44.5195 121.516H46.3945V130H44.9297V124.164H44.8477L42.4922 129.977H41.4023L39.0469 124.141H38.9766V130H37.5V121.516ZM49.043 130H47.4141L50.4023 121.516H52.2773L55.2773 130H53.6484L52.9453 127.902H49.7461L49.043 130ZM50.1562 126.672H52.5352L51.375 123.25H51.3047L50.1562 126.672ZM66.7031 125.758C66.7031 128.5 65.0391 130.117 62.8125 130.117C60.5859 130.117 58.9219 128.488 58.9219 125.758C58.9219 123.016 60.5859 121.398 62.8125 121.398C65.0391 121.398 66.7031 123.016 66.7031 125.758ZM65.168 125.758C65.168 123.824 64.1953 122.77 62.8125 122.77C61.4297 122.77 60.457 123.824 60.457 125.758C60.457 127.691 61.4297 128.746 62.8125 128.746C64.1953 128.746 65.168 127.691 65.168 125.758ZM67.9922 132.391V123.637H69.457V124.68H69.5508C69.7852 124.223 70.2539 123.555 71.3789 123.555C72.8438 123.555 74.0039 124.703 74.0039 126.824C74.0039 128.922 72.8789 130.117 71.3789 130.117C70.2773 130.117 69.7852 129.461 69.5508 128.992H69.4922V132.391H67.9922ZM69.457 126.812C69.457 128.055 69.9961 128.887 70.9688 128.887C71.9531 128.887 72.4805 128.02 72.4805 126.812C72.4805 125.629 71.9648 124.773 70.9688 124.773C69.9961 124.773 69.457 125.582 69.457 126.812ZM78 130.129C76.0781 130.129 74.9062 128.852 74.9062 126.859C74.9062 124.891 76.1016 123.555 77.918 123.555C79.4766 123.555 80.8242 124.527 80.8242 126.766V127.234H76.3828C76.4004 128.318 77.0391 128.957 78.0117 128.957C78.668 128.957 79.1133 128.676 79.3008 128.301H80.7656C80.4961 129.402 79.4766 130.129 78 130.129ZM76.3945 126.215H79.3945C79.3828 125.348 78.8086 124.715 77.9414 124.715C77.0391 124.715 76.4414 125.4 76.3945 126.215ZM83.4844 126.273V130H81.9844V123.637H83.4141V124.715H83.4961C83.7891 124 84.4336 123.555 85.3828 123.555C86.707 123.555 87.5742 124.422 87.5625 125.945V130H86.0742V126.18C86.0742 125.324 85.6172 124.82 84.832 124.82C84.0352 124.82 83.4844 125.348 83.4844 126.273ZM90.1406 130H88.5117L91.5 121.516H93.375L96.375 130H94.7461L94.043 127.902H90.8438L90.1406 130ZM91.2539 126.672H93.6328L92.4727 123.25H92.4023L91.2539 126.672ZM97.3828 130V121.516H100.57C102.516 121.516 103.559 122.699 103.559 124.328C103.559 125.957 102.504 127.129 100.547 127.129H98.9062V130H97.3828ZM98.9062 125.875H100.336C101.484 125.875 102 125.23 102 124.328C102 123.414 101.484 122.793 100.336 122.793H98.9062V125.875ZM106.312 121.516V130H104.789V121.516H106.312ZM30.8848 142.676V143.73H21.2051V142.676H25.3535V140.227H26.6426V142.676H30.8848ZM26.6777 135.867C26.6777 137.473 28.2832 139.055 30.5098 139.406L29.9473 140.484C28.1543 140.145 26.6895 139.119 25.9863 137.73C25.2832 139.113 23.8301 140.156 22.0488 140.484L21.4863 139.406C23.7012 139.055 25.2832 137.461 25.2949 135.867V135.094H26.6777V135.867ZM40.6699 134.449V145.043H39.416V139.605H38.2793V144.551H37.0605V134.73H38.2793V138.551H39.416V134.449H40.6699ZM36.1582 135.785C36.1582 138.645 35.2559 141.105 32.2441 142.828L31.4941 141.926C33.75 140.619 34.7051 138.943 34.8926 136.828H31.9863V135.785H36.1582ZM53.9941 134.449V145.043H52.752V134.449H53.9941ZM51.8848 134.672V144.516H50.6426V139.523H49.4707V138.363H50.6426V134.672H51.8848ZM49.7402 135.703V136.758H48.9902V141.328C49.3242 141.299 49.6406 141.264 49.9395 141.223L50.0215 142.172C48.3574 142.512 46.1777 142.547 44.8301 142.547L44.6777 141.469L45.6387 141.457V136.758H44.8887V135.703H49.7402ZM46.8105 141.434L47.7949 141.398V136.758H46.8105V141.434ZM63.9785 134.449V145.055H62.666V134.449H63.9785ZM58.2715 135.223C59.8652 135.223 61.0254 136.676 61.0371 138.961C61.0254 141.27 59.8652 142.711 58.2715 142.711C56.666 142.711 55.5059 141.27 55.5059 138.961C55.5059 136.676 56.666 135.223 58.2715 135.223ZM58.2715 136.395C57.3691 136.395 56.7598 137.344 56.7598 138.961C56.7598 140.59 57.3691 141.539 58.2715 141.539C59.1621 141.539 59.7715 140.59 59.7715 138.961C59.7715 137.344 59.1621 136.395 58.2715 136.395ZM69.5332 137.461C69.5332 139.195 70.5527 141.023 72.2637 141.738L71.5488 142.77C70.2949 142.23 69.3809 141.117 68.9004 139.77C68.4082 141.223 67.4824 142.441 66.2402 143.027L65.4902 142.008C67.166 141.234 68.209 139.266 68.209 137.461V136.57H65.877V135.492H71.8535V136.57H69.5332V137.461ZM74.3496 134.449V145.043H73.0371V134.449H74.3496ZM87.627 134.449V140.227H86.3262V137.965H84.498V136.887H86.3262V134.449H87.627ZM81.9434 140.672V141.773H86.3262V140.672H87.627V144.914H80.6426V140.672H81.9434ZM81.9434 143.859H86.3262V142.793H81.9434V143.859ZM84.8379 134.988V136.055H82.6465C82.6582 137.326 83.5137 138.639 85.1426 139.184L84.4863 140.191C83.3027 139.781 82.4648 138.984 82.002 137.988C81.5332 139.096 80.6543 139.986 79.4004 140.414L78.7324 139.383C80.4082 138.814 81.3105 137.443 81.3223 136.055H79.1191V134.988H84.8379ZM98.7832 139.652V140.707H89.127V139.652H93.2988V138.176H94.5879V139.652H98.7832ZM94.5996 135.023C94.5996 136.312 96.0176 137.484 98.2324 137.766L97.7285 138.785C95.9883 138.516 94.6055 137.73 93.9316 136.617C93.252 137.73 91.8691 138.516 90.123 138.785L89.6543 137.766C91.834 137.484 93.2754 136.289 93.2754 135.023V134.625H94.5996V135.023ZM97.5996 141.551V145.043H96.2988V142.57H90.1934V141.551H97.5996Z" fill="black"/>
</svg>
