<svg width="120" height="167" viewBox="0 0 120 167" fill="none" xmlns="http://www.w3.org/2000/svg">
<rect x="1" y="1" width="118" height="165" rx="9" stroke="#543FD6" stroke-width="2"/>
<path d="M46.8229 26.875C44.8476 26.875 42.9532 27.6597 41.5564 29.0564C40.1597 30.4532 39.375 32.3476 39.375 34.3229V60.6771C39.375 62.6524 40.1597 64.5468 41.5564 65.9436C42.9532 67.3403 44.8476 68.125 46.8229 68.125H73.1771C75.1524 68.125 77.0468 67.3403 78.4436 65.9436C79.8403 64.5468 80.625 62.6524 80.625 60.6771V34.3229C80.625 32.3476 79.8403 30.4532 78.4436 29.0564C77.0468 27.6597 75.1524 26.875 73.1771 26.875H46.8229ZM42.8125 34.3229C42.8125 32.1092 44.6092 30.3125 46.8229 30.3125H73.1771C75.3908 30.3125 77.1875 32.1092 77.1875 34.3229V60.6771C77.1875 61.7407 76.765 62.7608 76.0129 63.5129C75.2608 64.265 74.2407 64.6875 73.1771 64.6875H46.8229C45.7593 64.6875 44.7392 64.265 43.9871 63.5129C43.235 62.7608 42.8125 61.7407 42.8125 60.6771V34.3229ZM56.6312 41.2667C56.8001 41.1093 56.9356 40.9196 57.0295 40.7087C57.1234 40.4979 57.174 40.2703 57.178 40.0395C57.1821 39.8088 57.1396 39.5795 57.0532 39.3655C56.9668 39.1515 56.8381 38.9571 56.6749 38.7939C56.5117 38.6307 56.3173 38.502 56.1032 38.4156C55.8892 38.3291 55.66 38.2867 55.4292 38.2907C55.1984 38.2948 54.9708 38.3453 54.76 38.4393C54.5492 38.5332 54.3594 38.6686 54.2021 38.8375L46.7542 46.2854C46.4323 46.6077 46.2515 47.0445 46.2515 47.5C46.2515 47.9555 46.4323 48.3923 46.7542 48.7146L54.2021 56.1625C54.3594 56.3314 54.5492 56.4668 54.76 56.5607C54.9708 56.6547 55.1984 56.7052 55.4292 56.7093C55.66 56.7133 55.8892 56.6709 56.1032 56.5844C56.3173 56.498 56.5117 56.3693 56.6749 56.2061C56.8381 56.0429 56.9668 55.8485 57.0532 55.6345C57.1396 55.4205 57.1821 55.1912 57.178 54.9605C57.174 54.7297 57.1234 54.5021 57.0295 54.2913C56.9356 54.0804 56.8001 53.8907 56.6312 53.7333L50.3979 47.5L56.6312 41.2667ZM65.7979 38.8375C65.6406 38.6686 65.4508 38.5332 65.24 38.4393C65.0292 38.3453 64.8016 38.2948 64.5708 38.2907C64.34 38.2867 64.1108 38.3291 63.8968 38.4156C63.6827 38.502 63.4883 38.6307 63.3251 38.7939C63.1619 38.9571 63.0332 39.1515 62.9468 39.3655C62.8604 39.5795 62.8179 39.8088 62.822 40.0395C62.826 40.2703 62.8766 40.4979 62.9705 40.7087C63.0644 40.9196 63.1999 41.1093 63.3688 41.2667L69.6021 47.5L63.3688 53.7333C63.1999 53.8907 63.0644 54.0804 62.9705 54.2913C62.8766 54.5021 62.826 54.7297 62.822 54.9605C62.8179 55.1912 62.8604 55.4205 62.9468 55.6345C63.0332 55.8485 63.1619 56.0429 63.3251 56.2061C63.4883 56.3693 63.6827 56.498 63.8968 56.5844C64.1108 56.6709 64.34 56.7133 64.5708 56.7093C64.8016 56.7052 65.0292 56.6547 65.24 56.5607C65.4508 56.4668 65.6406 56.3314 65.7979 56.1625L73.2458 48.7146C73.5677 48.3923 73.7485 47.9555 73.7485 47.5C73.7485 47.0445 73.5677 46.6077 73.2458 46.2854L65.7979 38.8375Z" fill="#543FD6"/>
<path d="M49.6055 108.234C45.5273 108.234 43.0898 105.07 43.0898 99.5156C43.0898 93.9844 45.5273 90.7969 49.6055 90.7969C53.6602 90.7969 56.1211 93.9844 56.1211 99.5156C56.1211 105.07 53.6836 108.234 49.6055 108.234ZM49.6055 105.68C51.7383 105.68 53.0508 103.594 53.0508 99.5156C53.0508 95.4609 51.7148 93.3281 49.6055 93.3281C47.4961 93.3281 46.1602 95.4609 46.1602 99.5156C46.1602 103.594 47.4727 105.68 49.6055 105.68ZM64.6992 108.234C61.3008 108.234 58.8164 106.219 58.7227 103.406H61.6992C61.793 104.789 63.082 105.773 64.6992 105.773C66.5977 105.773 67.957 104.391 67.957 102.516C67.957 100.57 66.5508 99.1875 64.6055 99.1875C63.293 99.1641 62.332 99.6328 61.793 100.641H58.957L59.9883 91.0312H70.0195V93.5859H62.4961L61.9805 98.0859H62.1445C62.8008 97.3359 64.043 96.7969 65.4258 96.7969C68.5898 96.7969 70.9102 99.1641 70.9102 102.422C70.9102 105.82 68.3555 108.234 64.6992 108.234ZM74.8008 108.188C73.793 108.188 72.9727 107.367 72.9727 106.359C72.9727 105.375 73.793 104.555 74.8008 104.555C75.7617 104.555 76.6055 105.375 76.6055 106.359C76.6055 107.367 75.7617 108.188 74.8008 108.188Z" fill="black"/>
<path d="M31.6113 123.461C31.6113 125.102 32.584 126.965 34.2598 127.738L33.5332 128.77C32.3379 128.207 31.4531 127.07 30.9785 125.746C30.498 127.199 29.5723 128.441 28.3535 129.027L27.5918 128.008C29.2793 127.211 30.2988 125.219 30.3105 123.461V122.57H28.002V121.492H33.8262V122.57H31.6113V123.461ZM36.1113 120.449V124.574H37.7402V125.664H36.1113V131.043H34.8105V120.449H36.1113ZM41.9707 122.992C41.959 124.879 42.9082 126.801 44.5488 127.586L43.752 128.629C42.6035 128.049 41.7773 126.93 41.3262 125.582C40.8633 127.023 39.9961 128.219 38.7832 128.828L37.9863 127.785C39.6855 126.977 40.6582 124.949 40.6699 122.992V121.305H41.9707V122.992ZM46.4824 120.449V124.598H48.1113V125.711H46.4824V131.043H45.1816V120.449H46.4824ZM55.3184 122.992C55.3184 124.961 56.2559 126.895 57.9434 127.633L57.1582 128.676C55.957 128.09 55.1133 126.965 54.6621 125.582C54.1992 127.041 53.3379 128.254 52.1191 128.875L51.2988 127.82C53.0215 127.012 53.9824 124.973 53.9941 122.992V121.305H55.3184V122.992ZM60.2871 120.449V131.055H58.998V124.926H56.7715V123.871H58.998V120.449H60.2871ZM70.5879 120.449V131.055H69.2754V120.449H70.5879ZM63.6387 121.316V123.965H66.2051V121.316H67.4941V128.559H62.3379V121.316H63.6387ZM63.6387 127.492H66.2051V124.984H63.6387V127.492ZM77.6191 121.902C77.6191 123.543 79.2246 125.184 81.4395 125.57L80.8535 126.66C79.0781 126.285 77.625 125.213 76.9395 123.789C76.2363 125.201 74.7832 126.279 73.0137 126.66L72.4395 125.57C74.6309 125.172 76.2246 123.531 76.2363 121.902V121.117H77.6191V121.902ZM81.8262 128.617V129.695H72.1465V128.617H81.8262ZM91.6582 120.449V131.043H90.4043V120.449H91.6582ZM89.4785 120.637V130.527H88.2363V125.488H87.2285C87.1055 127.551 86.2207 128.828 84.9082 128.816C83.5254 128.828 82.623 127.363 82.623 125.031C82.623 122.699 83.5254 121.258 84.9082 121.258C86.1914 121.258 87.0645 122.453 87.2168 124.434H88.2363V120.637H89.4785ZM84.9082 122.488C84.2402 122.477 83.8184 123.379 83.8301 125.031C83.8184 126.684 84.2402 127.586 84.9082 127.574C85.6113 127.586 86.0332 126.684 86.0332 125.031C86.0332 123.379 85.6113 122.477 84.9082 122.488ZM16.8457 144V135.516H20.0332C21.9785 135.516 23.0215 136.699 23.0215 138.328C23.0215 139.957 21.9668 141.129 20.0098 141.129H18.3691V144H16.8457ZM18.3691 139.875H19.7988C20.9473 139.875 21.4629 139.23 21.4629 138.328C21.4629 137.414 20.9473 136.793 19.7988 136.793H18.3691V139.875ZM24.252 144V135.516H27.4395C29.3848 135.516 30.4277 136.605 30.4277 138.223C30.4277 139.377 29.9004 140.232 28.9043 140.637L30.7324 144H29.0332L27.3691 140.895H25.7754V144H24.252ZM25.7754 139.617H27.2051C28.3535 139.617 28.8691 139.125 28.8691 138.223C28.8691 137.32 28.3535 136.793 27.2051 136.793H25.7754V139.617ZM39.3105 139.758C39.3105 142.5 37.6465 144.117 35.4199 144.117C33.1934 144.117 31.5293 142.488 31.5293 139.758C31.5293 137.016 33.1934 135.398 35.4199 135.398C37.6465 135.398 39.3105 137.016 39.3105 139.758ZM37.7754 139.758C37.7754 137.824 36.8027 136.77 35.4199 136.77C34.0371 136.77 33.0645 137.824 33.0645 139.758C33.0645 141.691 34.0371 142.746 35.4199 142.746C36.8027 142.746 37.7754 141.691 37.7754 139.758ZM40.6699 135.516H42.5449L45.0645 141.68H45.1699L47.6895 135.516H49.5645V144H48.0996V138.164H48.0176L45.6621 143.977H44.5723L42.2168 138.141H42.1465V144H40.6699V135.516ZM52.2129 144H50.584L53.5723 135.516H55.4473L58.4473 144H56.8184L56.1152 141.902H52.916L52.2129 144ZM53.3262 140.672H55.7051L54.5449 137.25H54.4746L53.3262 140.672ZM63.3809 144H61.752L64.7402 135.516H66.6152L69.6152 144H67.9863L67.2832 141.902H64.084L63.3809 144ZM64.4941 140.672H66.873L65.7129 137.25H65.6426L64.4941 140.672ZM70.623 144V135.516H73.8105C75.7559 135.516 76.7988 136.699 76.7988 138.328C76.7988 139.957 75.7441 141.129 73.7871 141.129H72.1465V144H70.623ZM72.1465 139.875H73.5762C74.7246 139.875 75.2402 139.23 75.2402 138.328C75.2402 137.414 74.7246 136.793 73.5762 136.793H72.1465V139.875ZM79.5527 135.516V144H78.0293V135.516H79.5527ZM87.4395 136.266C87.4395 137.555 88.2949 138.855 89.9355 139.406L89.2793 140.414C88.0957 140.027 87.2578 139.225 86.7949 138.234C86.332 139.342 85.4473 140.232 84.1934 140.648L83.5254 139.617C85.2129 139.066 86.1152 137.66 86.1152 136.277V136.137H83.9121V135.094H89.6309V136.137H87.4395V136.266ZM92.4199 141.27V145.043H91.1191V142.312H85.2012V141.27H92.4199ZM92.4199 134.449V140.766H91.1191V138.141H89.3145V137.074H91.1191V134.449H92.4199ZM103.576 139.547V140.59H93.9199V139.547H96.1699V138.199C95.373 137.865 94.916 137.332 94.916 136.641C94.916 135.375 96.4043 134.625 98.7363 134.625C101.068 134.625 102.545 135.375 102.557 136.641C102.551 137.338 102.094 137.871 101.291 138.199V139.547H103.576ZM98.7363 141.234C101.021 141.223 102.393 141.902 102.404 143.121C102.393 144.352 101.021 145.02 98.7363 145.02C96.4277 145.02 95.0449 144.352 95.0449 143.121C95.0449 141.902 96.4277 141.223 98.7363 141.234ZM98.7363 142.219C97.1895 142.219 96.3574 142.523 96.3691 143.121C96.3574 143.719 97.1895 144.035 98.7363 144.035C100.248 144.035 101.092 143.719 101.104 143.121C101.092 142.523 100.248 142.219 98.7363 142.219ZM98.7363 135.633C97.166 135.633 96.2637 135.984 96.2754 136.641C96.2637 137.285 97.166 137.625 98.7363 137.625C100.295 137.625 101.209 137.285 101.209 136.641C101.209 135.984 100.295 135.633 98.7363 135.633ZM97.4824 139.547H99.9902V138.539C99.6094 138.592 99.1875 138.621 98.7363 138.621C98.2852 138.621 97.8633 138.592 97.4824 138.539V139.547Z" fill="black"/>
</svg>
