<svg width="13" height="10" viewBox="0 0 13 10" fill="none" xmlns="http://www.w3.org/2000/svg">
<path d="M1.5 9V1.94118C1.5 1.68235 1.60298 1.46086 1.80895 1.27671C2.01526 1.09224 2.26316 1 2.55263 1H8.86842C9.1579 1 9.40579 1.09224 9.61211 1.27671C9.81807 1.46086 9.92105 1.68235 9.92105 1.94118V4.32941C9.83333 4.31373 9.7479 4.30384 9.66474 4.29976C9.58123 4.296 9.49123 4.29412 9.39474 4.29412C9.29825 4.29412 9.20842 4.296 9.12526 4.29976C9.04176 4.30384 8.95614 4.31373 8.86842 4.32941V1.94118H2.55263V6.72941L2.64474 6.64706H6.27632C6.25877 6.72549 6.24772 6.80204 6.24316 6.87671C6.23895 6.95106 6.23684 7.03137 6.23684 7.11765C6.23684 7.20392 6.23895 7.28424 6.24316 7.35859C6.24772 7.43325 6.25877 7.5098 6.27632 7.58824H3.07895L1.5 9ZM3.60526 3.82353V2.88235H7.81579V3.82353H3.60526ZM3.60526 5.70588V4.76471H6.23684V5.70588H3.60526ZM8.86842 9V7.58824H7.28947V6.64706H8.86842V5.23529H9.92105V6.64706H11.5V7.58824H9.92105V9H8.86842Z" fill="#8D87EC"/>
</svg>
