<svg width="141" height="152" viewBox="0 0 141 152" fill="none" xmlns="http://www.w3.org/2000/svg">
<path d="M70.4243 145.578V77.3192L136.058 43.8462V110.136L70.4243 145.578Z" fill="#543FD6"/>
<path d="M8.729 39.9082L70.4244 5.77881L134.089 39.9082L70.4244 75.3502L8.729 39.9082Z" fill="#E1E2FF" stroke="black"/>
<path d="M70.4242 76.7384V145.865C69.5217 145.861 68.6346 145.63 67.8448 145.193L8.73379 112.843C7.88974 112.381 7.18516 111.701 6.69363 110.874C6.2021 110.047 5.94164 109.103 5.93945 108.141L5.93945 43.8982C5.9397 43.1411 6.09994 42.3925 6.40966 41.7017L70.4242 76.7384Z" fill="#8D87EC"/>
<path d="M134.694 34.4607L75.5832 2.11754C74.0038 1.24486 72.2289 0.787109 70.4244 0.787109C68.62 0.787109 66.845 1.24486 65.2657 2.11754L6.1546 34.4741C4.4665 35.3978 3.05734 36.7577 2.07427 38.4119C1.0912 40.0661 0.570286 41.9539 0.565918 43.8782L0.565918 108.121C0.570286 110.045 1.0912 111.933 2.07427 113.587C3.05734 115.242 4.4665 116.602 6.1546 117.525L65.2657 149.882C66.845 150.754 68.62 151.212 70.4244 151.212C72.2289 151.212 74.0038 150.754 75.5832 149.882L134.694 117.525C136.382 116.602 137.792 115.242 138.775 113.587C139.758 111.933 140.279 110.045 140.283 108.121V43.8849C140.282 41.9572 139.763 40.0652 138.78 38.4071C137.796 36.7491 136.385 35.386 134.694 34.4607ZM70.4244 11.5216L124.39 41.0771L70.4244 70.6326L16.4587 41.0771L70.4244 11.5216ZM11.3134 50.4811L65.0507 79.8889L65.0507 137.515L11.3134 108.128L11.3134 50.4811ZM75.7982 137.515L75.7982 79.9158L129.535 50.4811V108.101L75.7982 137.515Z" fill="#543FD6"/>
</svg>
