<svg width="24" height="24" viewBox="0 0 24 24" fill="none" xmlns="http://www.w3.org/2000/svg">
<path d="M3 1H15.414L21 6.586V23H3V1ZM5 3V21H19V7.414L14.586 3H5ZM12 9C11.6022 9 11.2206 9.15804 10.9393 9.43934C10.658 9.72064 10.5 10.1022 10.5 10.5C10.5 10.8978 10.658 11.2794 10.9393 11.5607C11.2206 11.842 11.6022 12 12 12C12.3978 12 12.7794 11.842 13.0607 11.5607C13.342 11.2794 13.5 10.8978 13.5 10.5C13.5 10.1022 13.342 9.72064 13.0607 9.43934C12.7794 9.15804 12.3978 9 12 9ZM8.5 10.5C8.5 10.0404 8.59053 9.58525 8.76642 9.16061C8.94231 8.73597 9.20012 8.35013 9.52513 8.02513C9.85013 7.70012 10.236 7.44231 10.6606 7.26642C11.0852 7.09053 11.5404 7 12 7C12.4596 7 12.9148 7.09053 13.3394 7.26642C13.764 7.44231 14.1499 7.70012 14.4749 8.02513C14.7999 8.35013 15.0577 8.73597 15.2336 9.16061C15.4095 9.58525 15.5 10.0404 15.5 10.5C15.5 11.4283 15.1313 12.3185 14.4749 12.9749C13.8185 13.6313 12.9283 14 12 14C11.0717 14 10.1815 13.6313 9.52513 12.9749C8.86875 12.3185 8.5 11.4283 8.5 10.5ZM6 19C6 17.9391 6.42143 16.9217 7.17157 16.1716C7.92172 15.4214 8.93913 15 10 15H14C15.0609 15 16.0783 15.4214 16.8284 16.1716C17.5786 16.9217 18 17.9391 18 19V20H16V19C16 18.4696 15.7893 17.9609 15.4142 17.5858C15.0391 17.2107 14.5304 17 14 17H10C9.46957 17 8.96086 17.2107 8.58579 17.5858C8.21071 17.9609 8 18.4696 8 19V20H6V19Z" fill="black"/>
</svg>
