<svg width="24" height="24" viewBox="0 0 24 24" fill="none" xmlns="http://www.w3.org/2000/svg">
<path d="M14.3979 3.46197C14.6093 3.51845 14.7895 3.65656 14.8991 3.84593C15.0086 4.03529 15.0384 4.26041 14.982 4.47177L10.6117 20.7848C10.555 20.9963 10.4165 21.1766 10.2268 21.286C10.0372 21.3955 9.81178 21.4251 9.60027 21.3683C9.38876 21.3116 9.20845 21.1731 9.09901 20.9835C8.98958 20.7938 8.95997 20.5684 9.01672 20.3569L13.3881 4.04387C13.4162 3.93921 13.4646 3.84109 13.5306 3.75514C13.5966 3.66919 13.6789 3.59709 13.7728 3.54295C13.8667 3.48881 13.9703 3.4537 14.0777 3.43961C14.1852 3.42553 14.2944 3.43275 14.399 3.46087M16.8872 6.81917C17.0335 6.65656 17.2385 6.55873 17.4569 6.54717C17.6754 6.53562 17.8895 6.6113 18.0521 6.75757L19.9628 8.47797C20.7735 9.20617 21.4445 9.81117 21.9065 10.359C22.3905 10.9365 22.7359 11.5558 22.7359 12.3214C22.7359 13.0859 22.3916 13.7052 21.9065 14.2816C21.4445 14.8305 20.7735 15.4355 19.9628 16.1637L18.0521 17.8841C17.8895 18.0305 17.6753 18.1064 17.4567 18.0949C17.2382 18.0835 17.0331 17.9857 16.8867 17.823C16.7402 17.6604 16.6644 17.4462 16.6758 17.2277C16.6873 17.0091 16.7851 16.804 16.9477 16.6576L18.8144 14.9779C19.6812 14.198 20.2653 13.6689 20.6437 13.2201C21.0067 12.7878 21.0859 12.5359 21.0859 12.3203C21.0859 12.1047 21.0067 11.8539 20.6437 11.4216C20.2653 10.9717 19.6812 10.4426 18.8144 9.66377L16.9477 7.98407C16.867 7.9116 16.8014 7.82394 16.7547 7.72609C16.7079 7.62825 16.6809 7.52214 16.6752 7.41385C16.6694 7.30555 16.6851 7.19719 16.7213 7.09496C16.7575 6.99273 16.8135 6.89864 16.8861 6.81807M7.05212 7.98407C7.21476 7.83762 7.31257 7.63256 7.32401 7.41399C7.33546 7.19543 7.25962 6.98127 7.11317 6.81862C6.96671 6.65598 6.76165 6.55818 6.54309 6.54673C6.32452 6.53528 6.11036 6.61112 5.94772 6.75757L4.03702 8.47797C3.22632 9.20617 2.55532 9.81117 2.09332 10.359C1.60932 10.9365 1.26392 11.5558 1.26392 12.3214C1.26392 13.0859 1.60822 13.7052 2.09332 14.2816C2.55532 14.8305 3.22632 15.4355 4.03702 16.1637L5.94772 17.8841C6.11036 18.0305 6.32452 18.1064 6.54309 18.0949C6.76165 18.0835 6.96671 17.9857 7.11317 17.823C7.25962 17.6604 7.33546 17.4462 7.32401 17.2277C7.31257 17.0091 7.21476 16.804 7.05212 16.6576L5.18542 14.9779C4.31862 14.198 3.73452 13.6689 3.35612 13.2201C2.99312 12.7878 2.91392 12.5359 2.91392 12.3203C2.91392 12.1047 2.99312 11.8539 3.35612 11.4216C3.73452 10.9717 4.31862 10.4426 5.18542 9.66377L7.05212 7.98407Z" fill="black"/>
</svg>
