<svg width="83" height="17" viewBox="0 0 83 17" fill="none" xmlns="http://www.w3.org/2000/svg">
<path d="M4.25284 11.3643V16.2173H0.0898408V0.876284H7.28884C9.09817 0.876284 10.5242 1.28262 11.5668 2.09528C12.6248 2.90795 13.1538 4.18828 13.1538 5.93628C13.1538 7.66895 12.6248 9.01062 11.5668 9.96128C10.5242 10.8966 9.09817 11.3643 7.28884 11.3643H4.25284ZM4.25284 8.19028H6.78284C7.07417 8.19028 7.33484 8.15195 7.56484 8.07529C7.81017 7.98328 8.00951 7.85295 8.16284 7.68428C8.31617 7.50028 8.43117 7.28562 8.50784 7.04028C8.59984 6.79495 8.64584 6.51895 8.64584 6.21228C8.64584 5.85962 8.59984 5.55295 8.50784 5.29228C8.43117 5.03162 8.31617 4.80928 8.16284 4.62528C8.00951 4.42595 7.81017 4.28028 7.56484 4.18829C7.33484 4.09628 7.07417 4.05028 6.78284 4.05028H4.25284V8.19028ZM15.6103 16.2173V0.876284H23.3383C25.117 0.876284 26.52 1.28262 27.5473 2.09528C28.5747 2.90795 29.0883 4.14995 29.0883 5.82128C29.0883 6.44995 28.958 7.08628 28.6973 7.73028C28.452 8.37428 28.0687 8.94162 27.5473 9.43228C27.0413 9.90762 26.3973 10.2296 25.6153 10.3983L25.1553 8.99528L29.9163 16.2173H24.5803L20.8773 9.61629L22.6943 11.1343H19.7733V16.2173H15.6103ZM19.7733 8.14428H22.7403C23.2617 8.14428 23.6987 7.98328 24.0513 7.66128C24.404 7.33928 24.5803 6.79495 24.5803 6.02828C24.5803 5.35362 24.4117 4.85528 24.0743 4.53328C23.7523 4.21128 23.3383 4.05028 22.8323 4.05028H19.7733V8.14428ZM38.571 16.5393C37.053 16.5393 35.719 16.2556 34.569 15.6883C33.4343 15.121 32.545 14.247 31.901 13.0663C31.2723 11.8856 30.958 10.383 30.958 8.55829C30.958 5.92095 31.625 3.92762 32.959 2.57828C34.3083 1.22895 36.179 0.554284 38.571 0.554284C40.089 0.554284 41.4153 0.837951 42.55 1.40528C43.7 1.97262 44.5893 2.84662 45.218 4.02728C45.862 5.19262 46.184 6.69528 46.184 8.53528C46.184 11.1726 45.517 13.166 44.183 14.5153C42.849 15.8646 40.9783 16.5393 38.571 16.5393ZM38.571 13.1813C39.261 13.1813 39.8513 13.0356 40.342 12.7443C40.8327 12.453 41.2083 11.97 41.469 11.2953C41.745 10.6053 41.883 9.67762 41.883 8.51228C41.883 7.36228 41.745 6.44995 41.469 5.77528C41.2083 5.10062 40.8327 4.62528 40.342 4.34928C39.8513 4.05795 39.261 3.91228 38.571 3.91228C37.881 3.91228 37.2907 4.06562 36.8 4.37228C36.3093 4.66362 35.926 5.14662 35.65 5.82128C35.3893 6.49595 35.259 7.41595 35.259 8.58128C35.259 9.73129 35.3893 10.6436 35.65 11.3183C35.926 11.9776 36.3093 12.453 36.8 12.7443C37.2907 13.0356 37.881 13.1813 38.571 13.1813ZM48.6504 16.2173V0.876284H52.8594L58.0344 7.91428L55.8494 7.96028L61.1854 0.876284H65.2794V16.2173H61.1164V3.93528L61.8294 5.36128L56.8384 11.9393L51.7784 5.20028L52.6064 4.69428V16.2173H48.6504ZM67.128 16.2173L72.855 0.876284H77.432L82.722 16.2173H78.444L73.637 1.58928L75.776 1.40528L70.992 16.2173H67.128ZM70.509 13.2043L71.291 10.2373H78.145L78.536 13.2043H70.509Z" fill="#543FD6"/>
</svg>
