<svg width="16" height="15" viewBox="0 0 16 15" fill="none" xmlns="http://www.w3.org/2000/svg">
<path d="M4.79004 10.5216L7.44966 10.5125L13.2547 4.76298C13.4825 4.53517 13.6078 4.23263 13.6078 3.9108C13.6078 3.58896 13.4825 3.28642 13.2547 3.05861L12.2988 2.10276C11.8432 1.64713 11.0483 1.64955 10.5962 2.10095L4.79004 7.85171V10.5216ZM11.4466 2.95495L12.4043 3.90899L11.4418 4.86242L10.486 3.90718L11.4466 2.95495ZM5.9954 8.35434L9.62955 4.75455L10.5854 5.71039L6.95185 9.30899L5.9954 9.312V8.35434Z" fill="#5A5A5A"/>
<path d="M3.58475 12.9244H12.0223C12.687 12.9244 13.2276 12.3838 13.2276 11.719V6.49501L12.0223 7.70037V11.719H5.48801C5.47234 11.719 5.45607 11.7251 5.4404 11.7251C5.42051 11.7251 5.40062 11.7196 5.38013 11.719H3.58475V3.28153H7.71129L8.91665 2.07617H3.58475C2.92 2.07617 2.37939 2.61677 2.37939 3.28153V11.719C2.37939 12.3838 2.92 12.9244 3.58475 12.9244Z" fill="#5A5A5A"/>
</svg>
