<svg width="24" height="24" viewBox="0 0 24 24" fill="none" xmlns="http://www.w3.org/2000/svg">
<path d="M20 9C19.205 5.015 15.513 2 11.08 2C6.064 2 2 5.855 2 10.61C2 12.895 2.938 14.97 4.469 16.51C4.805 16.85 5.03 17.313 4.939 17.79C4.79116 18.5657 4.45227 19.2922 3.953 19.904C5.26146 20.1411 6.61162 19.933 7.788 19.313C8.2 19.095 8.407 18.987 8.552 18.965C8.654 18.949 8.787 18.964 9 19" stroke="#5A5A5A" stroke-width="1.5" stroke-linecap="round" stroke-linejoin="round"/>
<path d="M11 16.262C11 19.167 13.463 21.523 16.5 21.523C16.858 21.523 17.2127 21.4903 17.564 21.425C17.817 21.378 17.943 21.354 18.031 21.367C18.119 21.381 18.244 21.447 18.494 21.58C19.2 21.956 20.024 22.089 20.817 21.941C20.5136 21.567 20.308 21.1233 20.219 20.65C20.164 20.358 20.3 20.075 20.505 19.868C21.46 18.9106 21.9974 17.6143 22 16.262C22 13.356 19.537 11 16.5 11C13.463 11 11 13.356 11 16.262Z" stroke="#5A5A5A" stroke-width="1.5" stroke-linecap="round" stroke-linejoin="round"/>
</svg>
