<svg width="80" height="80" viewBox="0 0 80 80" fill="none" xmlns="http://www.w3.org/2000/svg">
<rect width="80" height="80" fill="#D9D9D9"/>
<path d="M51.2499 60.0837C52.2887 60.0837 53.2849 59.671 54.0194 58.9365C54.7539 58.202 55.1666 57.2058 55.1666 56.167V32.667L43.4166 20.917H27.7499C26.7112 20.917 25.7149 21.3296 24.9804 22.0642C24.2459 22.7987 23.8333 23.7949 23.8333 24.8337V56.167C23.8333 57.2058 24.2459 58.202 24.9804 58.9365C25.7149 59.671 26.7112 60.0837 27.7499 60.0837H51.2499ZM41.4583 24.8337L51.2499 34.6253H41.4583V24.8337ZM29.7083 32.667H35.5833V36.5837H29.7083V32.667ZM29.7083 40.5003H49.2916V44.417H29.7083V40.5003ZM29.7083 48.3337H49.2916V52.2503H29.7083V48.3337Z" fill="#5A5A5A"/>
</svg>
