<svg width="15" height="17" viewBox="0 0 15 17" fill="none" xmlns="http://www.w3.org/2000/svg">
<path d="M5.45551 17C4.00509 17 2.77539 16.5467 1.76641 15.64C0.757422 14.7333 0.25293 13.6283 0.25293 12.325V3.4C0.25293 2.465 0.623416 1.66458 1.36439 0.99875C2.10536 0.332917 2.99611 0 4.03662 0C5.07714 0 5.96788 0.332917 6.70886 0.99875C7.44983 1.66458 7.82032 2.465 7.82032 3.4V10.2H6.40143V3.4C6.40143 2.805 6.17283 2.30208 5.71564 1.89125C5.25844 1.48042 4.69877 1.275 4.03662 1.275C3.37448 1.275 2.81481 1.48042 2.35761 1.89125C1.90041 2.30208 1.67181 2.805 1.67181 3.4V12.325C1.67181 13.26 2.0423 14.0604 2.78327 14.7263C3.52425 15.3921 4.41499 15.725 5.45551 15.725C5.9127 15.725 6.34247 15.6576 6.7448 15.5227C7.1465 15.3884 7.50501 15.2008 7.82032 14.96V16.49C7.45771 16.6458 7.07934 16.7696 6.68521 16.8615C6.29107 16.9538 5.88117 17 5.45551 17ZM9.71216 13.6H7.82032C7.5523 13.6 7.32781 13.5184 7.14682 13.3552C6.9652 13.1926 6.87439 12.9908 6.87439 12.75C6.87439 12.5092 6.9652 12.3074 7.14682 12.1448C7.32781 11.9816 7.5523 11.9 7.82032 11.9H9.71216V10.2C9.71216 9.95917 9.80297 9.75715 9.98459 9.59395C10.1656 9.43132 10.3901 9.35 10.6581 9.35C10.9261 9.35 11.1506 9.43132 11.3316 9.59395C11.5132 9.75715 11.604 9.95917 11.604 10.2V11.9H13.4959C13.7639 11.9 13.9884 11.9816 14.1694 12.1448C14.351 12.3074 14.4418 12.5092 14.4418 12.75C14.4418 12.9908 14.351 13.1926 14.1694 13.3552C13.9884 13.5184 13.7639 13.6 13.4959 13.6H11.604V15.3C11.604 15.5408 11.5132 15.7426 11.3316 15.9052C11.1506 16.0684 10.9261 16.15 10.6581 16.15C10.3901 16.15 10.1656 16.0684 9.98459 15.9052C9.80297 15.7426 9.71216 15.5408 9.71216 15.3V13.6ZM5.45551 12.325V13.6C4.79336 13.6 4.23369 13.3946 3.77649 12.9837C3.3193 12.5729 3.0907 12.07 3.0907 11.475V4.0375C3.0907 3.85333 3.15786 3.70118 3.29218 3.58105C3.42587 3.46035 3.59519 3.4 3.80014 3.4C4.00509 3.4 4.17473 3.46035 4.30905 3.58105C4.44274 3.70118 4.50958 3.85333 4.50958 4.0375V11.475C4.50958 11.7158 4.60039 11.9176 4.78201 12.0802C4.963 12.2434 5.1875 12.325 5.45551 12.325ZM9.2392 7.65V4.0375C9.2392 3.85333 9.30636 3.70118 9.44068 3.58105C9.57437 3.46035 9.74369 3.4 9.94864 3.4C10.1536 3.4 10.3232 3.46035 10.4576 3.58105C10.5912 3.70118 10.6581 3.85333 10.6581 4.0375V7.65H9.2392Z" fill="#5A5A5A"/>
</svg>
