<svg width="24" height="24" viewBox="0 0 24 24" fill="none" xmlns="http://www.w3.org/2000/svg">
<path d="M7.75 14.3194H12.8712C13.1121 14.3194 13.3104 14.2368 13.4662 14.0717C13.6221 13.9072 13.7 13.7031 13.7 13.4595C13.7 13.2158 13.6187 13.0114 13.456 12.8463C13.2928 12.6818 13.0908 12.5995 12.85 12.5995H7.72875C7.48792 12.5995 7.28958 12.6818 7.13375 12.8463C6.97792 13.0114 6.9 13.2158 6.9 13.4595C6.9 13.7031 6.98132 13.9072 7.14395 14.0717C7.30715 14.2368 7.50917 14.3194 7.75 14.3194ZM7.75 11.7396H16.2712C16.5121 11.7396 16.7104 11.657 16.8662 11.4919C17.0221 11.3274 17.1 11.1233 17.1 10.8796C17.1 10.636 17.0184 10.4316 16.8552 10.2665C16.6926 10.1019 16.4908 10.0197 16.25 10.0197H7.72875C7.48792 10.0197 7.28958 10.1019 7.13375 10.2665C6.97792 10.4316 6.9 10.636 6.9 10.8796C6.9 11.1233 6.98132 11.3274 7.14395 11.4919C7.30715 11.657 7.50917 11.7396 7.75 11.7396ZM7.75 9.1597H16.2712C16.5121 9.1597 16.7104 9.07743 16.8662 8.9129C17.0221 8.74779 17.1 8.5434 17.1 8.29975C17.1 8.0561 17.0184 7.85172 16.8552 7.68661C16.6926 7.52207 16.4908 7.4398 16.25 7.4398H7.72875C7.48792 7.4398 7.28958 7.52207 7.13375 7.68661C6.97792 7.85172 6.9 8.0561 6.9 8.29975C6.9 8.5434 6.98132 8.74779 7.14395 8.9129C7.30715 9.07743 7.50917 9.1597 7.75 9.1597ZM3.5 19.1136V5.7199C3.5 5.24693 3.6666 4.84189 3.9998 4.50479C4.33243 4.16826 4.7325 4 5.2 4H18.8C19.2675 4 19.6678 4.16826 20.001 4.50479C20.3337 4.84189 20.5 5.24693 20.5 5.7199V16.0393C20.5 16.5123 20.3337 16.9173 20.001 17.2544C19.6678 17.5909 19.2675 17.7592 18.8 17.7592H6.9L4.945 19.7371C4.67583 20.0094 4.36757 20.0702 4.0202 19.9194C3.6734 19.7692 3.5 19.5006 3.5 19.1136Z" fill="black"/>
</svg>
