<svg width="23" height="22" viewBox="0 0 14 14" fill="none" xmlns="http://www.w3.org/2000/svg">
<path d="M12.17 4.81491C12.17 7.99304 7.45775 10.5655 7.25707 10.6717C7.20418 10.7002 7.14506 10.7151 7.085 10.7151C7.02494 10.7151 6.96582 10.7002 6.91293 10.6717C6.71225 10.5655 2 7.99304 2 4.81491C2.00084 4.06861 2.29768 3.35311 2.8254 2.8254C3.35311 2.29768 4.06861 2.00084 4.81491 2C5.75246 2 6.57332 2.40317 7.085 3.08465C7.59668 2.40317 8.41754 2 9.35509 2C10.1014 2.00084 10.8169 2.29768 11.3446 2.8254C11.8723 3.35311 12.1692 4.06861 12.17 4.81491Z" fill="black"/>
</svg>
