<svg width="14" height="14" viewBox="0 0 14 14" fill="none" xmlns="http://www.w3.org/2000/svg">
<g id="ph:heart-light">
<path id="Vector" d="M9.53215 2.54199C8.56154 2.54199 7.71757 2.97969 7.22117 3.71319C6.72477 2.97969 5.88081 2.54199 4.9102 2.54199C4.17497 2.54285 3.4701 2.8353 2.95021 3.35518C2.43033 3.87507 2.13788 4.57994 2.13702 5.31516C2.13702 6.66477 2.97822 8.06938 4.6375 9.48925C5.39784 10.1371 6.21914 10.7098 7.08991 11.1994C7.13026 11.2211 7.17536 11.2324 7.22117 11.2324C7.26698 11.2324 7.31208 11.2211 7.35243 11.1994C8.2232 10.7098 9.04451 10.1371 9.80484 9.48925C11.4641 8.06938 12.3053 6.66477 12.3053 5.31516C12.3045 4.57994 12.012 3.87507 11.4921 3.35518C10.9722 2.8353 10.2674 2.54285 9.53215 2.54199ZM7.22117 10.6355C6.46271 10.1978 2.69166 7.89052 2.69166 5.31516C2.69227 4.72696 2.9262 4.16302 3.34213 3.7471C3.75805 3.33117 4.32199 3.09724 4.9102 3.09663C5.84753 3.09663 6.63465 3.59718 6.96465 4.40325C6.98555 4.45412 7.02109 4.49762 7.06676 4.52824C7.11244 4.55885 7.16618 4.5752 7.22117 4.5752C7.27616 4.5752 7.3299 4.55885 7.37558 4.52824C7.42125 4.49762 7.4568 4.45412 7.47769 4.40325C7.8077 3.59718 8.59482 3.09663 9.53215 3.09663C10.1204 3.09724 10.6843 3.33117 11.1002 3.7471C11.5161 4.16302 11.7501 4.72696 11.7507 5.31516C11.7507 7.89052 7.97963 10.1978 7.22117 10.6355Z" fill="black"/>
</g>
</svg>
