<svg width="23" height="22" viewBox="0 0 23 22" fill="none" xmlns="http://www.w3.org/2000/svg">
<path d="M15.4888 4.125C13.9138 4.125 12.5443 4.83525 11.7388 6.0255C10.9333 4.83525 9.56377 4.125 7.98877 4.125C6.79572 4.12639 5.65194 4.60094 4.80832 5.44455C3.96471 6.28817 3.49016 7.43195 3.48877 8.625C3.48877 10.815 4.85377 13.0943 7.54627 15.3983C8.78006 16.4496 10.1128 17.3789 11.5258 18.1733C11.5913 18.2084 11.6644 18.2269 11.7388 18.2269C11.8131 18.2269 11.8863 18.2084 11.9518 18.1733C13.3648 17.3789 14.6975 16.4496 15.9313 15.3983C18.6238 13.0943 19.9888 10.815 19.9888 8.625C19.9874 7.43195 19.5128 6.28817 18.6692 5.44455C17.8256 4.60094 16.6818 4.12639 15.4888 4.125ZM11.7388 17.2583C10.508 16.548 4.38877 12.804 4.38877 8.625C4.38976 7.67053 4.76937 6.75543 5.44428 6.08051C6.1192 5.4056 7.0343 5.02599 7.98877 5.025C9.50977 5.025 10.787 5.83725 11.3225 7.14525C11.3564 7.22778 11.4141 7.29838 11.4882 7.34806C11.5623 7.39774 11.6495 7.42426 11.7388 7.42426C11.828 7.42426 11.9152 7.39774 11.9893 7.34806C12.0634 7.29838 12.1211 7.22778 12.155 7.14525C12.6905 5.83725 13.9678 5.025 15.4888 5.025C16.4432 5.02599 17.3583 5.4056 18.0333 6.08051C18.7082 6.75543 19.0878 7.67053 19.0888 8.625C19.0888 12.804 12.9695 16.548 11.7388 17.2583Z" fill="black"/>
</svg>
