<svg width="24" height="24" viewBox="0 0 24 24" fill="none" xmlns="http://www.w3.org/2000/svg">
<path d="M9.60335 10.29C9.43328 10.29 9.27017 10.3576 9.14991 10.4779C9.02966 10.5981 8.9621 10.7612 8.9621 10.9313C8.9621 11.1014 9.02966 11.2645 9.14991 11.3847C9.27017 11.505 9.43328 11.5725 9.60335 11.5725H15.1608C15.3309 11.5725 15.494 11.505 15.6143 11.3847C15.7345 11.2645 15.8021 11.1014 15.8021 10.9313C15.8021 10.7612 15.7345 10.5981 15.6143 10.4779C15.494 10.3576 15.3309 10.29 15.1608 10.29H9.60335ZM7.56674 13.71C7.39667 13.71 7.23356 13.7776 7.1133 13.8979C6.99305 14.0181 6.92549 14.1812 6.92549 14.3513C6.92549 14.5214 6.99305 14.6845 7.1133 14.8047C7.23356 14.925 7.39667 14.9925 7.56674 14.9925H13.1242C13.2943 14.9925 13.4574 14.925 13.5777 14.8047C13.6979 14.6845 13.7655 14.5214 13.7655 14.3513C13.7655 14.1812 13.6979 14.0181 13.5777 13.8979C13.4574 13.7776 13.2943 13.71 13.1242 13.71H7.56674ZM6.21498 17.13C6.04491 17.13 5.88181 17.1976 5.76155 17.3179C5.64129 17.4381 5.57373 17.6012 5.57373 17.7713C5.57373 17.9414 5.64129 18.1045 5.76155 18.2247C5.88181 18.345 6.04491 18.4125 6.21498 18.4125H11.7725C11.9426 18.4125 12.1057 18.345 12.2259 18.2247C12.3462 18.1045 12.4137 17.9414 12.4137 17.7713C12.4137 17.6012 12.3462 17.4381 12.2259 17.3179C12.1057 17.1976 11.9426 17.13 11.7725 17.13H6.21498Z" fill="black"/>
<path d="M5.26703 1.74026H18.7333C19.1969 1.73838 19.6562 1.82846 20.0848 2.00531C20.5133 2.18216 20.9025 2.44225 21.2299 2.77054C21.5582 3.09788 21.8183 3.48709 21.9951 3.91563C22.172 4.34418 22.262 4.80354 22.2602 5.26714C22.2602 6.45046 21.8532 7.65601 21.2957 8.82394C20.7383 9.99101 20.0004 11.1812 19.2848 12.3329L19.2779 12.344C18.552 13.5136 17.8509 14.6448 17.3285 15.7383C16.8036 16.8353 16.4889 17.8331 16.4889 18.7334C16.4889 19.1211 16.5894 19.5023 16.7806 19.8396C16.9717 20.177 17.247 20.4591 17.5796 20.6584C17.9122 20.8577 18.2908 20.9675 18.6784 20.977C19.0661 20.9864 19.4496 20.8953 19.7915 20.7125C20.1334 20.5297 20.4222 20.2614 20.6296 19.9338C20.837 19.6061 20.956 19.2304 20.975 18.8431C20.9939 18.4558 20.9123 18.0702 20.7379 17.7239C20.5635 17.3775 20.3023 17.0823 19.9799 16.8669C19.9099 16.8201 19.8498 16.76 19.803 16.6899C19.7562 16.6199 19.7237 16.5413 19.7073 16.4587C19.691 16.3761 19.691 16.291 19.7075 16.2084C19.7239 16.1258 19.7565 16.0473 19.8033 15.9773C19.8501 15.9073 19.9103 15.8472 19.9803 15.8004C20.0504 15.7537 20.129 15.7212 20.2116 15.7048C20.2942 15.6884 20.3792 15.6884 20.4618 15.7049C20.5444 15.7213 20.6229 15.7539 20.6929 15.8007C21.3216 16.2214 21.7983 16.833 22.0529 17.5453C22.3075 18.2576 22.3263 19.0328 22.1067 19.7567C21.8872 20.4805 21.4407 21.1146 20.8333 21.5654C20.2259 22.0161 19.4897 22.2598 18.7333 22.2603H5.58766C4.65227 22.2603 3.7552 21.8887 3.09378 21.2273C2.43236 20.5658 2.06078 19.6688 2.06078 18.7334C2.06078 16.8233 3.13637 14.7525 4.27523 12.8322C4.57277 12.3311 4.87544 11.8387 5.17298 11.3547C5.85698 10.2398 6.51277 9.17192 7.0061 8.15875H4.63861C3.93494 8.15875 3.02608 7.99373 2.44382 7.27382C1.98158 6.70793 1.73256 5.99778 1.74016 5.26714C1.74016 4.33175 2.11174 3.43468 2.77316 2.77326C3.43457 2.11184 4.33165 1.74026 5.26703 1.74026ZM15.2064 18.7334C15.2064 17.5535 15.6134 16.3514 16.1709 15.1851C16.7257 14.024 17.461 12.8399 18.1741 11.6916L18.1887 11.6677C18.9145 10.4989 19.6156 9.36601 20.1381 8.27161C20.663 7.17293 20.9777 6.17087 20.9777 5.26714C20.9788 4.97209 20.9215 4.67973 20.8091 4.40692C20.6967 4.13411 20.5315 3.88624 20.3228 3.6776C20.1142 3.46897 19.8663 3.30369 19.5935 3.1913C19.3207 3.07891 19.0283 3.02163 18.7333 3.02276C18.138 3.02276 17.5672 3.25922 17.1463 3.68013C16.7254 4.10103 16.4889 4.67189 16.4889 5.26714C16.4889 6.00671 16.8489 6.55733 17.4867 6.98483C17.6009 7.06136 17.6874 7.17255 17.7336 7.30201C17.7798 7.43146 17.7832 7.57233 17.7432 7.70385C17.7033 7.83537 17.6222 7.95057 17.5118 8.03247C17.4014 8.11437 17.2676 8.15864 17.1302 8.15875H8.41942C7.86367 9.42671 7.0309 10.7827 6.21608 12.108C5.93051 12.5731 5.64665 13.034 5.37818 13.4863C4.21966 15.4416 3.34328 17.2235 3.34328 18.7334C3.34328 19.3286 3.57974 19.8995 4.00065 20.3204C4.42155 20.7413 4.99241 20.9778 5.58766 20.9778H16.0127C15.4899 20.3469 15.2046 19.5527 15.2064 18.7334ZM3.02266 5.26714C3.01411 5.70404 3.16202 6.12898 3.43904 6.4667C3.65621 6.73432 4.07174 6.87625 4.63775 6.87625H15.6331C15.3478 6.3884 15.2003 5.83224 15.2064 5.26714C15.2046 4.44778 15.4899 3.65367 16.0127 3.02276H5.26703C4.67179 3.02276 4.10092 3.25922 3.68002 3.68013C3.25912 4.10103 3.02266 4.67189 3.02266 5.26714Z" fill="black"/>
</svg>
