<svg width="138" height="40" viewBox="0 0 138 40" fill="none" xmlns="http://www.w3.org/2000/svg">
<path d="M19.9366 24.2217L5 30.8857L19.9366 37.5497L34.8731 30.8857L19.9366 24.2217Z" fill="#543FD6"/>
<g filter="url(#filter0_d_1096_26653)">
<path d="M5.81297 10.3556L19.3708 4.25461C19.7306 4.09269 20.1425 4.09269 20.5024 4.25461L34.0602 10.3556C34.5549 10.5783 34.8731 11.0704 34.8731 11.6129V26.4469C34.8731 26.9894 34.5549 27.4816 34.0602 27.7042L20.5024 33.8052C20.1425 33.9671 19.7306 33.9671 19.3708 33.8052L5.81297 27.7042C5.3182 27.4816 5 26.9894 5 26.4469V11.6129C5 11.0704 5.3182 10.5783 5.81297 10.3556Z" fill="#543FD6"/>
</g>
<path d="M7.9873 25.6579V14.082L18.2562 18.563V30.1388L7.9873 25.6579Z" fill="#8D87EC"/>
<path d="M19.9368 7.36084L10.228 11.6551L19.9368 15.9494L29.6456 11.6551L19.9368 7.36084Z" fill="#E1E2FF"/>
<path d="M57.2528 24.3643V29.2173H53.0898V13.8763H60.2888C62.0981 13.8763 63.5241 14.2826 64.5668 15.0953C65.6248 15.908 66.1538 17.1883 66.1538 18.9363C66.1538 20.669 65.6248 22.0106 64.5668 22.9613C63.5241 23.8966 62.0981 24.3643 60.2888 24.3643H57.2528ZM57.2528 21.1903H59.7828C60.0741 21.1903 60.3348 21.152 60.5648 21.0753C60.8101 20.9833 61.0094 20.853 61.1628 20.6843C61.3161 20.5003 61.4311 20.2856 61.5078 20.0403C61.5998 19.795 61.6458 19.519 61.6458 19.2123C61.6458 18.8596 61.5998 18.553 61.5078 18.2923C61.4311 18.0316 61.3161 17.8093 61.1628 17.6253C61.0094 17.426 60.8101 17.2803 60.5648 17.1883C60.3348 17.0963 60.0741 17.0503 59.7828 17.0503H57.2528V21.1903ZM68.6103 29.2173V13.8763H76.3383C78.1169 13.8763 79.5199 14.2826 80.5473 15.0953C81.5746 15.908 82.0883 17.15 82.0883 18.8213C82.0883 19.45 81.9579 20.0863 81.6973 20.7303C81.4519 21.3743 81.0686 21.9416 80.5473 22.4323C80.0413 22.9076 79.3973 23.2296 78.6153 23.3983L78.1553 21.9953L82.9163 29.2173H77.5803L73.8773 22.6163L75.6943 24.1343H72.7733V29.2173H68.6103ZM72.7733 21.1443H75.7403C76.2616 21.1443 76.6986 20.9833 77.0513 20.6613C77.4039 20.3393 77.5803 19.795 77.5803 19.0283C77.5803 18.3536 77.4116 17.8553 77.0743 17.5333C76.7523 17.2113 76.3383 17.0503 75.8323 17.0503H72.7733V21.1443ZM91.5709 29.5393C90.0529 29.5393 88.7189 29.2556 87.5689 28.6883C86.4343 28.121 85.5449 27.247 84.9009 26.0663C84.2723 24.8856 83.9579 23.383 83.9579 21.5583C83.9579 18.921 84.6249 16.9276 85.9589 15.5783C87.3083 14.229 89.1789 13.5543 91.5709 13.5543C93.0889 13.5543 94.4153 13.838 95.5499 14.4053C96.6999 14.9726 97.5893 15.8466 98.2179 17.0273C98.8619 18.1926 99.1839 19.6953 99.1839 21.5353C99.1839 24.1726 98.5169 26.166 97.1829 27.5153C95.8489 28.8646 93.9783 29.5393 91.5709 29.5393ZM91.5709 26.1813C92.2609 26.1813 92.8513 26.0356 93.3419 25.7443C93.8326 25.453 94.2083 24.97 94.4689 24.2953C94.7449 23.6053 94.8829 22.6776 94.8829 21.5123C94.8829 20.3623 94.7449 19.45 94.4689 18.7753C94.2083 18.1006 93.8326 17.6253 93.3419 17.3493C92.8513 17.058 92.2609 16.9123 91.5709 16.9123C90.8809 16.9123 90.2906 17.0656 89.7999 17.3723C89.3093 17.6636 88.9259 18.1466 88.6499 18.8213C88.3893 19.496 88.2589 20.416 88.2589 21.5813C88.2589 22.7313 88.3893 23.6436 88.6499 24.3183C88.9259 24.9776 89.3093 25.453 89.7999 25.7443C90.2906 26.0356 90.8809 26.1813 91.5709 26.1813ZM101.65 29.2173V13.8763H105.859L111.034 20.9143L108.849 20.9603L114.185 13.8763H118.279V29.2173H114.116V16.9353L114.829 18.3613L109.838 24.9393L104.778 18.2003L105.606 17.6943V29.2173H101.65ZM120.128 29.2173L125.855 13.8763H130.432L135.722 29.2173H131.444L126.637 14.5893L128.776 14.4053L123.992 29.2173H120.128ZM123.509 26.2043L124.291 23.2373H131.145L131.536 26.2043H123.509Z" fill="#543FD6"/>
<defs>
<filter id="filter0_d_1096_26653" x="0.404135" y="0.916196" width="39.0648" height="38.9852" filterUnits="userSpaceOnUse" color-interpolation-filters="sRGB">
<feFlood flood-opacity="0" result="BackgroundImageFix"/>
<feColorMatrix in="SourceAlpha" type="matrix" values="0 0 0 0 0 0 0 0 0 0 0 0 0 0 0 0 0 0 127 0" result="hardAlpha"/>
<feOffset dy="1.37876"/>
<feGaussianBlur stdDeviation="2.29793"/>
<feComposite in2="hardAlpha" operator="out"/>
<feColorMatrix type="matrix" values="0 0 0 0 0 0 0 0 0 0 0 0 0 0 0 0 0 0 0.1 0"/>
<feBlend mode="plus-darker" in2="BackgroundImageFix" result="effect1_dropShadow_1096_26653"/>
<feBlend mode="normal" in="SourceGraphic" in2="effect1_dropShadow_1096_26653" result="shape"/>
</filter>
</defs>
</svg>
