<svg width="46" height="46" viewBox="0 0 46 46" fill="none" xmlns="http://www.w3.org/2000/svg">
<path d="M23 12.0737L20.9891 14.0326L28.8359 21.9175H11.75V24.73H28.8359L20.9891 32.567L23 34.5737L34.25 23.3237L23 12.0737Z" fill="black"/>
<path d="M23 43.0112C19.1062 43.0112 15.2998 41.8566 12.0622 39.6933C8.82463 37.53 6.30123 34.4552 4.81113 30.8578C3.32103 27.2604 2.93115 23.3019 3.6908 19.4829C4.45045 15.6639 6.3255 12.1559 9.07884 9.40257C11.8322 6.64923 15.3402 4.77418 19.1592 4.01453C22.9782 3.25488 26.9367 3.64476 30.5341 5.13486C34.1315 6.62496 37.2063 9.14836 39.3696 12.386C41.5329 15.6235 42.6875 19.4299 42.6875 23.3237C42.6816 28.5434 40.6054 33.5475 36.9146 37.2383C33.2238 40.9292 28.2196 43.0053 23 43.0112ZM23 6.44874C19.6624 6.44874 16.3998 7.43844 13.6248 9.29269C10.8497 11.1469 8.68677 13.7825 7.40954 16.866C6.13231 19.9495 5.79813 23.3425 6.44926 26.6159C7.10038 29.8893 8.70757 32.8962 11.0676 35.2562C13.4276 37.6162 16.4344 39.2234 19.7079 39.8745C22.9813 40.5256 26.3743 40.1914 29.4578 38.9142C32.5413 37.637 35.1768 35.4741 37.0311 32.699C38.8853 29.9239 39.875 26.6613 39.875 23.3237C39.8698 18.8498 38.0902 14.5606 34.9267 11.3971C31.7631 8.23352 27.4739 6.45395 23 6.44874Z" fill="black"/>
</svg>
