<svg width="277" height="140" viewBox="0 0 277 140" fill="none" xmlns="http://www.w3.org/2000/svg">
<path d="M48.695 20.6952C46.9194 20.6952 45.2165 19.9898 43.9609 18.7343C42.7054 17.4787 42 15.7758 42 14.0002C42 12.2246 42.7054 10.5217 43.9609 9.2661C45.2165 8.01054 46.9194 7.30518 48.695 7.30518L48.695 14.0002V20.6952Z" fill="#543FD6"/>
<path d="M48.695 0H93.695C101.427 0 107.695 6.26801 107.695 14C107.695 21.732 101.427 28 93.695 28H48.695V0Z" fill="#543FD6"/>
<path d="M65.877 10.918H69.069V11.884H65.877V10.918ZM62.559 8.706H63.497V10.26C63.497 12.71 62.125 14.754 60.011 15.608L59.409 14.684C61.285 13.984 62.559 12.192 62.559 10.26V8.706ZM62.783 8.706H63.721V10.302C63.721 12.066 64.953 13.732 66.787 14.404L66.157 15.3C64.141 14.516 62.783 12.556 62.783 10.302V8.706ZM68.635 7.95H69.797V17.414H68.635V7.95ZM61.663 19.36H70.105V20.312H61.663V19.36ZM61.663 16.364H62.825V19.808H61.663V16.364ZM74.9199 8.72H75.8439V10.414C75.8439 12.304 74.7519 14.292 72.8899 15.118L72.2599 14.208C73.9259 13.48 74.9199 11.842 74.9199 10.414V8.72ZM75.1019 8.72H76.0259V10.414C76.0259 11.814 76.9779 13.242 78.6019 13.872L77.9719 14.754C76.1519 14.026 75.1019 12.276 75.1019 10.414V8.72ZM81.8219 7.95H82.9279V15.748H81.8219V7.95ZM79.8059 11.324H82.1999V12.276H79.8059V11.324ZM79.1059 8.188H80.2119V15.342H79.1059V8.188ZM78.7699 16.028C81.3739 16.028 82.9979 16.868 82.9979 18.31C82.9979 19.738 81.3739 20.564 78.7699 20.564C76.1519 20.564 74.5559 19.738 74.5559 18.31C74.5559 16.868 76.1519 16.028 78.7699 16.028ZM78.7699 16.938C76.8659 16.938 75.6899 17.442 75.6899 18.31C75.6899 19.164 76.8659 19.668 78.7699 19.668C80.6739 19.668 81.8359 19.164 81.8359 18.31C81.8359 17.442 80.6739 16.938 78.7699 16.938ZM94.3508 7.936H95.5128V15.104H94.3508V7.936ZM85.9368 8.664H87.0848V13.816H85.9368V8.664ZM85.9368 13.172H86.9588C89.0728 13.172 90.9628 13.032 92.9788 12.612L93.1468 13.564C91.0468 14.012 89.1428 14.152 86.9588 14.152H85.9368V13.172ZM87.3368 15.72H95.5128V20.424H87.3368V15.72ZM94.3788 16.644H88.4708V19.472H94.3788V16.644Z" fill="white"/>
<path fill-rule="evenodd" clip-rule="evenodd" d="M14 0C6.26801 0 0 6.26801 0 14C0 21.732 6.26801 28 14 28H48.6957V0H14ZM43.961 18.7345C45.2166 19.9901 46.9197 20.6956 48.6955 20.6956V13.9999L48.6955 7.30428C46.9197 7.30428 45.2166 8.00971 43.961 9.26539C42.7053 10.5211 41.9999 12.2241 41.9999 13.9999C41.9999 15.7757 42.7053 17.4788 43.961 18.7345Z" fill="#543FD6"/>
<path d="M15.7929 15.2818H16.9549V17.3398H15.7929V15.2818ZM21.1129 7.7358H22.2749V20.3918H21.1129V7.7358ZM21.8969 13.1118H24.2349V14.0918H21.8969V13.1118ZM12.5309 17.9838L12.3629 17.0178C14.6309 17.0178 17.7249 16.9898 20.3429 16.6118L20.4409 17.4798C17.7109 17.9698 14.7429 17.9838 12.5309 17.9838ZM12.5729 9.2618H20.1469V10.1998H12.5729V9.2618ZM16.3669 10.9418C18.1309 10.9418 19.3489 11.8658 19.3489 13.2798C19.3489 14.7078 18.1309 15.6178 16.3669 15.6178C14.6029 15.6178 13.3989 14.7078 13.3989 13.2798C13.3989 11.8658 14.6029 10.9418 16.3669 10.9418ZM16.3669 11.8378C15.2329 11.8378 14.4909 12.4118 14.4909 13.2798C14.4909 14.1478 15.2329 14.7218 16.3669 14.7218C17.5009 14.7218 18.2569 14.1478 18.2569 13.2798C18.2569 12.4118 17.5009 11.8378 16.3669 11.8378ZM15.7929 7.7498H16.9549V9.8918H15.7929V7.7498ZM28.5178 9.5418H29.4418V11.5998C29.4418 14.2318 27.8318 16.9478 25.8578 17.9558L25.1858 17.0318C26.9918 16.1498 28.5178 13.7418 28.5178 11.5998V9.5418ZM28.7278 9.5418H29.6518V11.5998C29.6518 13.6018 31.0798 15.8558 32.9138 16.7238L32.2558 17.6478C30.2538 16.6538 28.7278 14.1058 28.7278 11.5998V9.5418ZM25.6338 9.0238H32.4518V10.0038H25.6338V9.0238ZM33.9498 7.7358H35.1258V20.3918H33.9498V7.7358ZM34.8458 12.8458H37.1978V13.8258H34.8458V12.8458Z" fill="white"/>
<path d="M48.695 48.6952C46.9194 48.6952 45.2165 47.9898 43.9609 46.7343C42.7054 45.4787 42 43.7758 42 42.0002C42 40.2246 42.7054 38.5217 43.9609 37.2661C45.2165 36.0105 46.9194 35.3052 48.695 35.3052L48.695 42.0002V48.6952Z" fill="#543FD6"/>
<path d="M48.695 28H80.695C88.427 28 94.695 34.268 94.695 42C94.695 49.732 88.427 56 80.695 56H48.695V28Z" fill="#543FD6"/>
<path d="M59.423 37.266H66.899V38.218H59.423V37.266ZM63.161 38.862C64.953 38.862 66.185 39.758 66.185 41.158C66.185 42.544 64.953 43.426 63.161 43.426C61.341 43.426 60.123 42.544 60.123 41.158C60.123 39.758 61.341 38.862 63.161 38.862ZM63.161 39.772C61.999 39.772 61.229 40.304 61.229 41.158C61.229 41.984 61.999 42.53 63.161 42.53C64.295 42.53 65.079 41.984 65.079 41.158C65.079 40.304 64.295 39.772 63.161 39.772ZM68.047 35.936H69.209V43.846H68.047V35.936ZM68.887 39.422H71.085V40.388H68.887V39.422ZM60.991 44.532H69.209V48.592H68.047V45.484H60.991V44.532ZM62.573 35.866H63.735V37.798H62.573V35.866ZM74.9199 36.72H75.8439V38.414C75.8439 40.304 74.7519 42.292 72.8899 43.118L72.2599 42.208C73.9259 41.48 74.9199 39.842 74.9199 38.414V36.72ZM75.1019 36.72H76.0259V38.414C76.0259 39.814 76.9779 41.242 78.6019 41.872L77.9719 42.754C76.1519 42.026 75.1019 40.276 75.1019 38.414V36.72ZM81.8219 35.95H82.9279V43.748H81.8219V35.95ZM79.8059 39.324H82.1999V40.276H79.8059V39.324ZM79.1059 36.188H80.2119V43.342H79.1059V36.188ZM78.7699 44.028C81.3739 44.028 82.9979 44.868 82.9979 46.31C82.9979 47.738 81.3739 48.564 78.7699 48.564C76.1519 48.564 74.5559 47.738 74.5559 46.31C74.5559 44.868 76.1519 44.028 78.7699 44.028ZM78.7699 44.938C76.8659 44.938 75.6899 45.442 75.6899 46.31C75.6899 47.164 76.8659 47.668 78.7699 47.668C80.6739 47.668 81.8359 47.164 81.8359 46.31C81.8359 45.442 80.6739 44.938 78.7699 44.938Z" fill="white"/>
<path fill-rule="evenodd" clip-rule="evenodd" d="M14 28C6.26801 28 0 34.268 0 42C0 49.732 6.26801 56 14 56H48.6957V28H14ZM43.961 46.7345C45.2166 47.9901 46.9197 48.6956 48.6955 48.6956V41.9999L48.6955 35.3043C46.9197 35.3043 45.2166 36.0097 43.961 37.2654C42.7053 38.5211 41.9999 40.2241 41.9999 41.9999C41.9999 43.7757 42.7053 45.4788 43.961 46.7345Z" fill="#543FD6"/>
<path d="M15.6669 37.8918H16.6189V38.4378C16.6189 40.6358 15.2189 42.4838 13.1049 43.1978L12.5449 42.2878C14.4069 41.6858 15.6669 40.1458 15.6669 38.4378V37.8918ZM15.8769 37.8918H16.8289V38.4378C16.8289 40.0058 18.1309 41.4198 19.9929 41.9658L19.4609 42.8758C17.3329 42.2178 15.8769 40.5098 15.8769 38.4378V37.8918ZM12.8669 37.2618H19.6149V38.1998H12.8669V37.2618ZM15.6669 35.6798H16.8289V37.5978H15.6669V35.6798ZM19.2369 39.3338H22.0929V40.2998H19.2369V39.3338ZM21.7569 35.7358H22.9189V43.3938H21.7569V35.7358ZM18.7609 43.7298C21.3789 43.7298 22.9749 44.5838 22.9749 46.0538C22.9749 47.5098 21.3789 48.3638 18.7609 48.3638C16.1289 48.3638 14.5329 47.5098 14.5329 46.0538C14.5329 44.5838 16.1289 43.7298 18.7609 43.7298ZM18.7609 44.6398C16.8429 44.6398 15.6949 45.1578 15.6949 46.0538C15.6949 46.9358 16.8429 47.4538 18.7609 47.4538C20.6649 47.4538 21.8269 46.9358 21.8269 46.0538C21.8269 45.1578 20.6649 44.6398 18.7609 44.6398ZM28.5178 37.5418H29.4418V39.5998C29.4418 42.2318 27.8318 44.9478 25.8578 45.9558L25.1858 45.0318C26.9918 44.1498 28.5178 41.7418 28.5178 39.5998V37.5418ZM28.7278 37.5418H29.6518V39.5998C29.6518 41.6018 31.0798 43.8558 32.9138 44.7238L32.2558 45.6478C30.2538 44.6538 28.7278 42.1058 28.7278 39.5998V37.5418ZM25.6338 37.0238H32.4518V38.0038H25.6338V37.0238ZM33.9498 35.7358H35.1258V48.3918H33.9498V35.7358ZM34.8458 40.8458H37.1978V41.8258H34.8458V40.8458Z" fill="white"/>
<path fill-rule="evenodd" clip-rule="evenodd" d="M14 56C6.26801 56 0 62.268 0 70C0 77.732 6.26801 84 14 84H48.6957V74.2165L41.3923 78.4331V61.5667L48.6957 65.7833V56H14Z" fill="#EE5595"/>
<path d="M15.4135 65.4437H16.3515V67.5017C16.3515 70.1757 14.7415 72.8637 12.7255 73.8577L12.0535 72.9337C13.8875 72.0657 15.4135 69.6857 15.4135 67.5017V65.4437ZM15.6375 65.4437H16.5755V67.5017C16.5755 69.6437 18.1015 71.8277 19.9635 72.6257L19.3055 73.5497C17.2615 72.5977 15.6375 70.1337 15.6375 67.5017V65.4437ZM12.4735 64.9257H19.5435V65.9057H12.4735V64.9257ZM21.2515 63.6377H22.4135V76.2937H21.2515V63.6377ZM28.2784 64.7297H29.2304V66.9977C29.2304 69.9097 27.6624 72.6117 25.5904 73.6617L24.8764 72.7097C26.7524 71.8137 28.2784 69.3917 28.2784 66.9977V64.7297ZM28.4744 64.7297H29.4264V66.9977C29.4264 69.3077 30.9384 71.6317 32.8144 72.4997L32.1144 73.4237C30.0564 72.4157 28.4744 69.8117 28.4744 66.9977V64.7297ZM34.1304 63.6237H35.2924V76.3077H34.1304V63.6237Z" fill="white"/>
<path d="M41 61.5708V78.4294L48.3 74.2148V65.7855L41 61.5708Z" fill="#EE5595"/>
<path d="M48.3 56H80.3C88.032 56 94.3 62.268 94.3 70C94.3 77.732 88.032 84 80.3 84H48.3V56Z" fill="#EE5595"/>
<path d="M64.964 67.506H68.604V68.458H64.964V67.506ZM68.24 63.95H69.402V73.316H68.24V63.95ZM61.268 75.36H69.71V76.312H61.268V75.36ZM61.268 72.406H62.43V75.85H61.268V72.406ZM59.616 64.776H60.764V67.016H64.194V64.776H65.328V71.16H59.616V64.776ZM60.764 67.926V70.208H64.194V67.926H60.764ZM77.6329 65.798H81.4969V66.75H77.6329V65.798ZM77.6329 68.626H81.4969V69.592H77.6329V68.626ZM73.8389 72.098H82.2809V76.592H81.1189V73.036H73.8389V72.098ZM81.1189 63.936H82.2809V71.398H81.1189V63.936ZM75.3229 64.636C77.1849 64.636 78.5849 65.896 78.5849 67.688C78.5849 69.48 77.1849 70.726 75.3229 70.726C73.4469 70.726 72.0609 69.48 72.0609 67.688C72.0609 65.896 73.4469 64.636 75.3229 64.636ZM75.3229 65.63C74.0909 65.63 73.1809 66.484 73.1809 67.688C73.1809 68.892 74.0909 69.732 75.3229 69.732C76.5549 69.732 77.4789 68.892 77.4789 67.688C77.4789 66.484 76.5549 65.63 75.3229 65.63Z" fill="white"/>
<rect x="42" y="91.915" width="6.6935" height="12.17" fill="#FEB702"/>
<path d="M48.6935 84H262.691C270.423 84 276.691 90.268 276.691 98C276.691 105.732 270.423 112 262.691 112H48.6935V84Z" fill="#FEB702"/>
<rect x="58.6935" y="90.5" width="43" height="15" fill="white"/>
<path d="M109.377 98.586H120.815V99.538H109.377V98.586ZM110.861 103.36H119.555V104.312H110.861V103.36ZM110.861 100.644H112.023V103.654H110.861V100.644ZM115.103 92.356C117.805 92.356 119.555 93.308 119.555 94.89C119.555 96.458 117.805 97.41 115.103 97.41C112.387 97.41 110.651 96.458 110.651 94.89C110.651 93.308 112.387 92.356 115.103 92.356ZM115.103 93.308C113.115 93.308 111.841 93.896 111.841 94.89C111.841 95.884 113.115 96.472 115.103 96.472C117.091 96.472 118.365 95.884 118.365 94.89C118.365 93.896 117.091 93.308 115.103 93.308ZM126.447 92.8409L123.165 105.031H121.838L125.119 92.8409H126.447ZM128.95 95.73H137.546V96.682H128.95V95.73ZM127.396 98.376H138.876V99.328H127.396V98.376ZM128.95 92.398H130.098V96.206H128.95V92.398ZM128.866 103.332H137.616V104.284H128.866V103.332ZM128.866 100.588H130.014V103.584H128.866V100.588ZM149.86 92.496H153.5V93.434H149.86V92.496ZM143.994 97.956H155.418V98.908H143.994V97.956ZM149.37 95.408H150.518V98.376H149.37V95.408ZM153.01 92.496H154.13V93.056C154.13 93.84 154.13 95.142 153.766 96.878L152.646 96.738C153.01 95.002 153.01 93.826 153.01 93.056V92.496ZM145.24 100.238H153.976V104.536H152.814V101.19H145.24V100.238ZM144.974 92.496H148.306V93.434H144.974V92.496ZM147.69 92.496H148.81V92.93C148.81 93.658 148.81 95.044 148.222 96.892L147.102 96.724C147.69 94.862 147.69 93.644 147.69 92.93V92.496ZM160.578 97.214H172.016V98.166H160.578V97.214ZM162.09 95.254H170.658V96.192H162.09V95.254ZM162.09 92.342H170.518V93.294H163.238V96.01H162.09V92.342ZM161.95 99.258H170.546V102.24H163.126V103.836H161.978V101.372H169.398V100.168H161.95V99.258ZM161.978 103.528H170.924V104.452H161.978V103.528ZM176.831 92.902C178.665 92.902 179.981 94.624 179.981 97.312C179.981 100.014 178.665 101.736 176.831 101.736C174.983 101.736 173.681 100.014 173.681 97.312C173.681 94.624 174.983 92.902 176.831 92.902ZM176.831 93.952C175.613 93.952 174.787 95.268 174.787 97.312C174.787 99.37 175.613 100.714 176.831 100.714C178.049 100.714 178.875 99.37 178.875 97.312C178.875 95.268 178.049 93.952 176.831 93.952ZM182.725 91.922H183.873V104.606H182.725V91.922ZM179.603 96.752H183.229V97.704H179.603V96.752ZM194.988 91.908H196.15V99.02H194.988V91.908ZM195.828 95.072H198.026V96.052H195.828V95.072ZM191.488 92.748H192.734C192.734 95.94 190.508 98.25 186.784 99.272L186.336 98.334C189.598 97.438 191.488 95.59 191.488 93.266V92.748ZM186.91 92.748H192.16V93.686H186.91V92.748ZM189.374 99.51H190.256V100.406C190.256 102.086 189.234 103.766 187.428 104.466L186.84 103.598C188.422 103.024 189.374 101.638 189.374 100.406V99.51ZM189.64 99.51H190.494V100.406C190.494 101.694 191.236 103.08 192.762 103.71L192.258 104.578C190.438 103.85 189.64 102.114 189.64 100.406V99.51ZM194.036 99.51H194.904V100.406C194.904 101.904 194.078 103.794 192.258 104.578L191.768 103.71C193.294 103.01 194.036 101.512 194.036 100.406V99.51ZM194.274 99.51H195.17V100.406C195.17 101.736 196.094 103.052 197.69 103.598L197.116 104.466C195.282 103.794 194.274 102.17 194.274 100.406V99.51ZM204.927 92.734C207.559 92.734 209.519 94.134 209.519 96.234C209.519 98.348 207.559 99.734 204.927 99.734C202.295 99.734 200.321 98.348 200.321 96.234C200.321 94.134 202.295 92.734 204.927 92.734ZM204.927 93.686C202.925 93.686 201.441 94.708 201.441 96.234C201.441 97.746 202.925 98.782 204.927 98.782C206.929 98.782 208.413 97.746 208.413 96.234C208.413 94.708 206.929 93.686 204.927 93.686ZM199.215 101.946H210.681V102.926H199.215V101.946ZM218.156 94.162H221.698V95.114H218.156V94.162ZM218.156 96.864H221.726V97.83H218.156V96.864ZM212.668 93.028H218.45V98.964H212.668V93.028ZM217.302 93.966H213.802V98.026H217.302V93.966ZM221.334 91.95H222.496V101.19H221.334V91.95ZM214.362 103.36H222.804V104.312H214.362V103.36ZM214.362 100.35H215.524V103.794H214.362V100.35ZM233.802 95.688H234.95V97.62H233.802V95.688ZM233.634 92.706H234.656V93.098C234.656 95.002 232.304 96.22 229.644 96.472L229.266 95.59C231.548 95.408 233.634 94.428 233.634 93.098V92.706ZM234.138 92.706H235.146V93.098C235.146 94.414 237.232 95.408 239.514 95.59L239.136 96.472C236.49 96.22 234.138 95.002 234.138 93.098V92.706ZM229.714 92.328H239.08V93.238H229.714V92.328ZM229.728 99.79H239.052V100.714H229.728V99.79ZM228.664 97.186H240.144V98.124H228.664V97.186ZM234.39 101.33C236.826 101.33 238.184 101.904 238.184 102.996C238.184 104.102 236.826 104.662 234.39 104.662C231.954 104.662 230.582 104.102 230.582 102.996C230.582 101.904 231.954 101.33 234.39 101.33ZM234.39 102.128C232.71 102.128 231.772 102.422 231.772 102.996C231.772 103.57 232.71 103.864 234.39 103.864C236.056 103.864 237.008 103.57 237.008 102.996C237.008 102.422 236.056 102.128 234.39 102.128ZM233.816 98.628H234.964V100.378H233.816V98.628ZM245.939 92.86H247.101C247.101 95.884 245.421 98.152 242.257 99.496L241.669 98.642C244.455 97.494 245.939 95.632 245.939 93.238V92.86ZM242.215 92.86H246.387V93.826H242.215V92.86ZM251.105 91.936H252.211V99.244H251.105V91.936ZM245.799 95.534H248.851V96.472H245.799V95.534ZM248.599 92.202H249.691V99.048H248.599V92.202ZM244.833 99.678H245.729V100.504C245.729 102.17 244.679 103.85 242.859 104.55L242.285 103.682C243.867 103.108 244.833 101.736 244.833 100.504V99.678ZM245.085 99.678H245.953V100.504C245.953 101.792 246.695 103.15 248.221 103.794L247.731 104.662C245.897 103.934 245.085 102.198 245.085 100.504V99.678ZM249.481 99.678H250.349V100.504C250.349 102.002 249.523 103.892 247.731 104.662L247.213 103.794C248.739 103.094 249.481 101.596 249.481 100.504V99.678ZM249.719 99.678H250.615V100.504C250.615 101.834 251.567 103.15 253.163 103.682L252.589 104.55C250.755 103.878 249.719 102.268 249.719 100.504V99.678ZM257.809 92.902C259.643 92.902 260.959 94.624 260.959 97.312C260.959 100.014 259.643 101.736 257.809 101.736C255.961 101.736 254.659 100.014 254.659 97.312C254.659 94.624 255.961 92.902 257.809 92.902ZM257.809 93.952C256.591 93.952 255.765 95.268 255.765 97.312C255.765 99.37 256.591 100.714 257.809 100.714C259.027 100.714 259.853 99.37 259.853 97.312C259.853 95.268 259.027 93.952 257.809 93.952ZM263.703 91.922H264.851V104.606H263.703V91.922ZM260.581 96.752H264.207V97.704H260.581V96.752Z" fill="white"/>
<path fill-rule="evenodd" clip-rule="evenodd" d="M14 84C6.26801 84 0 90.268 0 98C0 105.732 6.26801 112 14 112H48.6957V84H14ZM48.6955 91.9131H41.9999V104.087H48.6955V91.9131Z" fill="#FEB702"/>
<path d="M21.0766 91.914H22.2526V98.466H21.0766V91.914ZM13.9926 99.082H22.2526V102.134H15.1686V104.038H14.0346V101.266H21.0906V100.006H13.9926V99.082ZM14.0346 103.506H22.7146V104.43H14.0346V103.506ZM12.4246 92.768H19.2146V93.692H12.4246V92.768ZM12.2006 98.046L12.0746 97.08C14.3286 97.08 17.3526 97.024 19.8166 96.716L19.8866 97.57C17.3666 97.948 14.4266 98.032 12.2006 98.046ZM13.6706 93.188H14.7906V97.5H13.6706V93.188ZM16.8346 93.188H17.9686V97.5H16.8346V93.188ZM29.8536 92.362H30.8756V93.062C30.8756 95.484 28.4116 97.22 25.7796 97.668L25.3176 96.73C27.6276 96.38 29.8536 94.868 29.8536 93.062V92.362ZM30.0636 92.362H31.0716V93.062C31.0716 94.826 33.3256 96.38 35.6076 96.73L35.1456 97.668C32.5416 97.22 30.0636 95.456 30.0636 93.062V92.362ZM29.8536 99.754H31.0016V104.57H29.8536V99.754ZM24.7436 99.04H36.1816V100.006H24.7436V99.04Z" fill="white"/>
<rect x="42" y="119.911" width="6.69845" height="12.179" fill="#1CCF4E"/>
<path d="M48.6984 112H259.695C267.427 112 273.695 118.268 273.695 126C273.695 133.732 267.427 140 259.695 140H48.6984V112Z" fill="#1CCF4E"/>
<rect x="58.6985" y="118" width="43" height="16" fill="white"/>
<path d="M109.381 126.586H120.819V127.538H109.381V126.586ZM110.865 131.36H119.559V132.312H110.865V131.36ZM110.865 128.644H112.027V131.654H110.865V128.644ZM115.107 120.356C117.809 120.356 119.559 121.308 119.559 122.89C119.559 124.458 117.809 125.41 115.107 125.41C112.391 125.41 110.655 124.458 110.655 122.89C110.655 121.308 112.391 120.356 115.107 120.356ZM115.107 121.308C113.119 121.308 111.845 121.896 111.845 122.89C111.845 123.884 113.119 124.472 115.107 124.472C117.095 124.472 118.369 123.884 118.369 122.89C118.369 121.896 117.095 121.308 115.107 121.308ZM126.452 120.841L123.17 133.031H121.843L125.124 120.841H126.452ZM128.955 123.73H137.551V124.682H128.955V123.73ZM127.401 126.376H138.881V127.328H127.401V126.376ZM128.955 120.398H130.103V124.206H128.955V120.398ZM128.871 131.332H137.621V132.284H128.871V131.332ZM128.871 128.588H130.019V131.584H128.871V128.588ZM152.651 119.922H153.813V129.246H152.651V119.922ZM153.449 123.772H155.689V124.738H153.449V123.772ZM145.931 131.36H154.387V132.312H145.931V131.36ZM145.931 128.294H147.093V131.738H145.931V128.294ZM147.527 120.818C149.417 120.818 150.831 122.12 150.831 123.94C150.831 125.774 149.417 127.062 147.527 127.062C145.637 127.062 144.223 125.774 144.223 123.94C144.223 122.12 145.637 120.818 147.527 120.818ZM147.527 121.84C146.295 121.84 145.357 122.708 145.357 123.94C145.357 125.186 146.295 126.04 147.527 126.04C148.759 126.04 149.697 125.186 149.697 123.94C149.697 122.708 148.759 121.84 147.527 121.84ZM156.878 125.214H168.316V126.166H156.878V125.214ZM158.39 123.254H166.958V124.192H158.39V123.254ZM158.39 120.342H166.818V121.294H159.538V124.01H158.39V120.342ZM158.25 127.258H166.846V130.24H159.426V131.836H158.278V129.372H165.698V128.168H158.25V127.258ZM158.278 131.528H167.224V132.452H158.278V131.528ZM173.131 120.902C174.965 120.902 176.281 122.624 176.281 125.312C176.281 128.014 174.965 129.736 173.131 129.736C171.283 129.736 169.981 128.014 169.981 125.312C169.981 122.624 171.283 120.902 173.131 120.902ZM173.131 121.952C171.913 121.952 171.087 123.268 171.087 125.312C171.087 127.37 171.913 128.714 173.131 128.714C174.349 128.714 175.175 127.37 175.175 125.312C175.175 123.268 174.349 121.952 173.131 121.952ZM179.025 119.922H180.173V132.606H179.025V119.922ZM175.903 124.752H179.529V125.704H175.903V124.752ZM191.288 119.908H192.45V127.02H191.288V119.908ZM192.128 123.072H194.326V124.052H192.128V123.072ZM187.788 120.748H189.034C189.034 123.94 186.808 126.25 183.084 127.272L182.636 126.334C185.898 125.438 187.788 123.59 187.788 121.266V120.748ZM183.21 120.748H188.46V121.686H183.21V120.748ZM185.674 127.51H186.556V128.406C186.556 130.086 185.534 131.766 183.728 132.466L183.14 131.598C184.722 131.024 185.674 129.638 185.674 128.406V127.51ZM185.94 127.51H186.794V128.406C186.794 129.694 187.536 131.08 189.062 131.71L188.558 132.578C186.738 131.85 185.94 130.114 185.94 128.406V127.51ZM190.336 127.51H191.204V128.406C191.204 129.904 190.378 131.794 188.558 132.578L188.068 131.71C189.594 131.01 190.336 129.512 190.336 128.406V127.51ZM190.574 127.51H191.47V128.406C191.47 129.736 192.394 131.052 193.99 131.598L193.416 132.466C191.582 131.794 190.574 130.17 190.574 128.406V127.51ZM201.227 120.734C203.859 120.734 205.819 122.134 205.819 124.234C205.819 126.348 203.859 127.734 201.227 127.734C198.595 127.734 196.621 126.348 196.621 124.234C196.621 122.134 198.595 120.734 201.227 120.734ZM201.227 121.686C199.225 121.686 197.741 122.708 197.741 124.234C197.741 125.746 199.225 126.782 201.227 126.782C203.229 126.782 204.713 125.746 204.713 124.234C204.713 122.708 203.229 121.686 201.227 121.686ZM195.515 129.946H206.981V130.926H195.515V129.946ZM214.456 122.162H217.998V123.114H214.456V122.162ZM214.456 124.864H218.026V125.83H214.456V124.864ZM208.968 121.028H214.75V126.964H208.968V121.028ZM213.602 121.966H210.102V126.026H213.602V121.966ZM217.634 119.95H218.796V129.19H217.634V119.95ZM210.662 131.36H219.104V132.312H210.662V131.36ZM210.662 128.35H211.824V131.794H210.662V128.35ZM230.102 123.688H231.25V125.62H230.102V123.688ZM229.934 120.706H230.956V121.098C230.956 123.002 228.604 124.22 225.944 124.472L225.566 123.59C227.848 123.408 229.934 122.428 229.934 121.098V120.706ZM230.438 120.706H231.446V121.098C231.446 122.414 233.532 123.408 235.814 123.59L235.436 124.472C232.79 124.22 230.438 123.002 230.438 121.098V120.706ZM226.014 120.328H235.38V121.238H226.014V120.328ZM226.028 127.79H235.352V128.714H226.028V127.79ZM224.964 125.186H236.444V126.124H224.964V125.186ZM230.69 129.33C233.126 129.33 234.484 129.904 234.484 130.996C234.484 132.102 233.126 132.662 230.69 132.662C228.254 132.662 226.882 132.102 226.882 130.996C226.882 129.904 228.254 129.33 230.69 129.33ZM230.69 130.128C229.01 130.128 228.072 130.422 228.072 130.996C228.072 131.57 229.01 131.864 230.69 131.864C232.356 131.864 233.308 131.57 233.308 130.996C233.308 130.422 232.356 130.128 230.69 130.128ZM230.116 126.628H231.264V128.378H230.116V126.628ZM242.238 120.86H243.4C243.4 123.884 241.72 126.152 238.556 127.496L237.968 126.642C240.754 125.494 242.238 123.632 242.238 121.238V120.86ZM238.514 120.86H242.686V121.826H238.514V120.86ZM247.404 119.936H248.51V127.244H247.404V119.936ZM242.098 123.534H245.15V124.472H242.098V123.534ZM244.898 120.202H245.99V127.048H244.898V120.202ZM241.132 127.678H242.028V128.504C242.028 130.17 240.978 131.85 239.158 132.55L238.584 131.682C240.166 131.108 241.132 129.736 241.132 128.504V127.678ZM241.384 127.678H242.252V128.504C242.252 129.792 242.994 131.15 244.52 131.794L244.03 132.662C242.196 131.934 241.384 130.198 241.384 128.504V127.678ZM245.78 127.678H246.648V128.504C246.648 130.002 245.822 131.892 244.03 132.662L243.512 131.794C245.038 131.094 245.78 129.596 245.78 128.504V127.678ZM246.018 127.678H246.914V128.504C246.914 129.834 247.866 131.15 249.462 131.682L248.888 132.55C247.054 131.878 246.018 130.268 246.018 128.504V127.678ZM254.109 120.902C255.943 120.902 257.259 122.624 257.259 125.312C257.259 128.014 255.943 129.736 254.109 129.736C252.261 129.736 250.959 128.014 250.959 125.312C250.959 122.624 252.261 120.902 254.109 120.902ZM254.109 121.952C252.891 121.952 252.065 123.268 252.065 125.312C252.065 127.37 252.891 128.714 254.109 128.714C255.327 128.714 256.153 127.37 256.153 125.312C256.153 123.268 255.327 121.952 254.109 121.952ZM260.003 119.922H261.151V132.606H260.003V119.922ZM256.881 124.752H260.507V125.704H256.881V124.752Z" fill="white"/>
<path fill-rule="evenodd" clip-rule="evenodd" d="M14 112C6.26801 112 0 118.268 0 126C0 133.732 6.26801 140 14 140H48.6957V112H14ZM48.6955 119.913H41.9999V132.087H48.6955V119.913Z" fill="#1CCF4E"/>
<path d="M21.4826 119.914H22.6026V132.57H21.4826V119.914ZM16.8766 124.45H19.2986V125.416H16.8766V124.45ZM18.9486 120.208H20.0406V131.926H18.9486V120.208ZM14.4406 121.874H15.3366V123.484C15.3366 126.256 14.2726 128.874 12.4106 130.05L11.6966 129.182C13.4606 128.118 14.4406 125.808 14.4406 123.484V121.874ZM14.6786 121.874H15.5746V123.484C15.5746 125.682 16.5266 127.88 18.2626 128.888L17.5486 129.742C15.7006 128.622 14.6786 126.13 14.6786 123.484V121.874ZM12.0466 121.384H17.8286V122.35H12.0466V121.384ZM28.2436 126.242H29.4196V129.126H28.2436V126.242ZM28.8456 120.726C30.8196 120.726 32.2336 121.944 32.2336 123.708C32.2336 125.472 30.8196 126.69 28.8456 126.69C26.8716 126.69 25.4436 125.472 25.4436 123.708C25.4436 121.944 26.8716 120.726 28.8456 120.726ZM28.8456 121.734C27.5296 121.734 26.5776 122.532 26.5776 123.708C26.5776 124.884 27.5296 125.696 28.8456 125.696C30.1476 125.696 31.0996 124.884 31.0996 123.708C31.0996 122.532 30.1476 121.734 28.8456 121.734ZM33.8856 119.9H35.0476V132.584H33.8856V119.9ZM24.9676 129.84L24.7996 128.874C27.1096 128.874 30.3016 128.86 33.0596 128.426L33.1576 129.28C30.3156 129.826 27.2216 129.84 24.9676 129.84Z" fill="white"/>
</svg>
