<svg width="42" height="42" viewBox="0 0 42 42" fill="none" xmlns="http://www.w3.org/2000/svg">
<circle cx="21" cy="21" r="21" fill="white"/>
<path d="M20.5 23.2153L10 27.8999L20.5 32.5846L31 27.8999L20.5 23.2153Z" fill="#543FD6"/>
<g filter="url(#filter0_d_577_919)">
<path d="M10.3788 13.5546L20.2364 9.11862C20.404 9.04318 20.596 9.04318 20.7636 9.11862L30.6212 13.5546C30.8518 13.6583 31 13.8876 31 14.1403V24.9909C31 25.2437 30.8518 25.473 30.6212 25.5767L20.7636 30.0126C20.596 30.0881 20.404 30.0881 20.2364 30.0126L10.3788 25.5767C10.1482 25.473 10 25.2437 10 24.9909V14.1403C10 13.8876 10.1482 13.6583 10.3788 13.5546Z" fill="#543FD6"/>
</g>
<path d="M12.0996 24.2249V16.0874L19.3184 19.2374V27.3749L12.0996 24.2249Z" fill="#8D87EC"/>
<path d="M20.4998 11.3623L13.6748 14.3811L20.4998 17.3998L27.3248 14.3811L20.4998 11.3623Z" fill="#E1E2FF"/>
<defs>
<filter id="filter0_d_577_919" x="7.8588" y="7.56317" width="25.2824" height="25.2897" filterUnits="userSpaceOnUse" color-interpolation-filters="sRGB">
<feFlood flood-opacity="0" result="BackgroundImageFix"/>
<feColorMatrix in="SourceAlpha" type="matrix" values="0 0 0 0 0 0 0 0 0 0 0 0 0 0 0 0 0 0 127 0" result="hardAlpha"/>
<feOffset dy="0.64236"/>
<feGaussianBlur stdDeviation="1.0706"/>
<feComposite in2="hardAlpha" operator="out"/>
<feColorMatrix type="matrix" values="0 0 0 0 0 0 0 0 0 0 0 0 0 0 0 0 0 0 0.1 0"/>
<feBlend mode="plus-darker" in2="BackgroundImageFix" result="effect1_dropShadow_577_919"/>
<feBlend mode="normal" in="SourceGraphic" in2="effect1_dropShadow_577_919" result="shape"/>
</filter>
</defs>
</svg>
