<svg width="36" height="36" viewBox="0 0 36 36" fill="none" xmlns="http://www.w3.org/2000/svg">
<g clip-path="url(#clip0_1438_5965)">
<path d="M18 2C14.8355 2 11.7421 2.93838 9.11088 4.69649C6.4797 6.45459 4.42894 8.95345 3.21793 11.8771C2.00693 14.8007 1.69008 18.0177 2.30744 21.1214C2.92481 24.2251 4.44866 27.0761 6.6863 29.3137C8.92394 31.5513 11.7749 33.0752 14.8786 33.6926C17.9823 34.3099 21.1993 33.9931 24.1229 32.7821C27.0466 31.5711 29.5454 29.5203 31.3035 26.8891C33.0616 24.2579 34 21.1645 34 18C34 13.7565 32.3143 9.68687 29.3137 6.68629C26.3131 3.68571 22.2435 2 18 2ZM26 24.1C26.2652 24.3652 26.4142 24.7249 26.4142 25.1C26.4142 25.4751 26.2652 25.8348 26 26.1C25.7348 26.3652 25.3751 26.5142 25 26.5142C24.6249 26.5142 24.2652 26.3652 24 26.1L18 20.1L12 26.12C11.8687 26.2513 11.7128 26.3555 11.5412 26.4266C11.3696 26.4976 11.1857 26.5342 11 26.5342C10.8143 26.5342 10.6304 26.4976 10.4588 26.4266C10.2872 26.3555 10.1313 26.2513 10 26.12C9.86869 25.9887 9.76451 25.8328 9.69344 25.6612C9.62237 25.4896 9.58579 25.3057 9.58579 25.12C9.58579 24.9343 9.62237 24.7504 9.69344 24.5788C9.76451 24.4072 9.86869 24.2513 10 24.12L16 18.08L9.83001 11.86C9.56479 11.5948 9.41579 11.2351 9.41579 10.86C9.41579 10.4849 9.56479 10.1252 9.83001 9.86C10.0952 9.59478 10.4549 9.44579 10.83 9.44579C11.2051 9.44579 11.5648 9.59478 11.83 9.86L18 16.1L24.17 9.93C24.3013 9.79868 24.4572 9.69451 24.6288 9.62344C24.8004 9.55237 24.9843 9.51579 25.17 9.51579C25.3557 9.51579 25.5396 9.55237 25.7112 9.62344C25.8828 9.69451 26.0387 9.79868 26.17 9.93C26.3013 10.0613 26.4055 10.2172 26.4766 10.3888C26.5476 10.5604 26.5842 10.7443 26.5842 10.93C26.5842 11.1157 26.5476 11.2996 26.4766 11.4712C26.4055 11.6428 26.3013 11.7987 26.17 11.93L20 18.08L26 24.1Z" fill="#878787" />
</g>
<defs>
<clipPath id="clip0_1438_5965">
<rect width="36" height="36" fill="white"/>
</clipPath>
</defs>
</svg>
