<svg width="26" height="28" viewBox="0 0 26 28" fill="none" xmlns="http://www.w3.org/2000/svg">
<g clip-path="url(#clip0_88_1301)">
<path d="M18.4167 3.5H5.41667C4.21417 3.5 3.25 4.55 3.25 5.83333V22.1667C3.25 23.45 4.21417 24.5 5.41667 24.5H20.5833C21.775 24.5 22.75 23.45 22.75 22.1667V8.16667L18.4167 3.5ZM13 22.1667C11.2017 22.1667 9.75 20.6033 9.75 18.6667C9.75 16.73 11.2017 15.1667 13 15.1667C14.7983 15.1667 16.25 16.73 16.25 18.6667C16.25 20.6033 14.7983 22.1667 13 22.1667ZM16.25 10.5H5.41667V5.83333H16.25V10.5Z" fill="black"/>
</g>
<defs>
<clipPath id="clip0_88_1301">
<rect width="26" height="28" fill="white"/>
</clipPath>
</defs>
</svg>
