<svg width="16" height="16" viewBox="0 0 16 16" fill="none" xmlns="http://www.w3.org/2000/svg">
<path d="M11.4196 13.8299C10.9173 13.8299 10.4904 13.6542 10.1389 13.3026C9.78732 12.951 9.61154 12.5241 9.61154 12.0219C9.61154 11.9516 9.61656 11.8787 9.6266 11.8031C9.63665 11.7276 9.65172 11.6599 9.6718 11.6L5.42292 9.12905C5.25216 9.27972 5.06131 9.39784 4.85038 9.48342C4.63944 9.569 4.41846 9.61159 4.18743 9.61119C3.6852 9.61119 3.2583 9.43541 2.90674 9.08384C2.55518 8.73228 2.37939 8.30538 2.37939 7.80315C2.37939 7.30092 2.55518 6.87402 2.90674 6.52246C3.2583 6.1709 3.6852 5.99512 4.18743 5.99512C4.41846 5.99512 4.63944 6.03791 4.85038 6.12349C5.06131 6.20907 5.25216 6.32699 5.42292 6.47726L9.6718 4.00628C9.65172 3.94601 9.63665 3.87831 9.6266 3.80317C9.61656 3.72804 9.61154 3.65512 9.61154 3.5844C9.61154 3.08217 9.78732 2.65527 10.1389 2.30371C10.4904 1.95215 10.9173 1.77637 11.4196 1.77637C11.9218 1.77637 12.3487 1.95215 12.7003 2.30371C13.0518 2.65527 13.2276 3.08217 13.2276 3.5844C13.2276 4.08663 13.0518 4.51353 12.7003 4.86509C12.3487 5.21666 11.9218 5.39244 11.4196 5.39244C11.1885 5.39244 10.9676 5.34985 10.7566 5.26467C10.5457 5.17949 10.3548 5.06137 10.1841 4.9103L5.9352 7.38128C5.95529 7.44155 5.97035 7.50945 5.9804 7.58498C5.99044 7.66052 5.99547 7.73324 5.99547 7.80315C5.99547 7.87306 5.99044 7.94599 5.9804 8.02192C5.97035 8.09786 5.95529 8.16556 5.9352 8.22503L10.1841 10.696C10.3548 10.5453 10.5457 10.4274 10.7566 10.3422C10.9676 10.2571 11.1885 10.2143 11.4196 10.2139C11.9218 10.2139 12.3487 10.3896 12.7003 10.7412C13.0518 11.0928 13.2276 11.5197 13.2276 12.0219C13.2276 12.5241 13.0518 12.951 12.7003 13.3026C12.3487 13.6542 11.9218 13.8299 11.4196 13.8299ZM11.4196 4.18708C11.5903 4.18708 11.7336 4.12943 11.8493 4.01411C11.965 3.8988 12.0227 3.75556 12.0223 3.5844C12.0218 3.41324 11.964 3.27021 11.8487 3.1553C11.7334 3.04039 11.5903 2.98253 11.4196 2.98172C11.2488 2.98092 11.1058 3.03878 10.9905 3.1553C10.8752 3.27181 10.8173 3.41485 10.8169 3.5844C10.8165 3.75396 10.8743 3.89719 10.9905 4.01411C11.1066 4.13103 11.2496 4.18869 11.4196 4.18708ZM4.18743 8.40583C4.35819 8.40583 4.50143 8.34797 4.61714 8.23226C4.73285 8.11655 4.79051 7.97351 4.79011 7.80315C4.78971 7.6328 4.73185 7.48976 4.61654 7.37405C4.50122 7.25833 4.35819 7.20047 4.18743 7.20047C4.01667 7.20047 3.87364 7.25833 3.75832 7.37405C3.64301 7.48976 3.58515 7.6328 3.58475 7.80315C3.58435 7.97351 3.64221 8.11675 3.75832 8.23286C3.87444 8.34898 4.01747 8.40663 4.18743 8.40583ZM11.4196 12.6246C11.5903 12.6246 11.7336 12.5667 11.8493 12.451C11.965 12.3353 12.0227 12.1923 12.0223 12.0219C12.0218 11.8515 11.964 11.7085 11.8487 11.5928C11.7334 11.4771 11.5903 11.4192 11.4196 11.4192C11.2488 11.4192 11.1058 11.4771 10.9905 11.5928C10.8752 11.7085 10.8173 11.8515 10.8169 12.0219C10.8165 12.1923 10.8743 12.3355 10.9905 12.4516C11.1066 12.5677 11.2496 12.6254 11.4196 12.6246Z" fill="#5A5A5A"/>
</svg>
