<svg width="390" height="24" viewBox="0 0 390 24" fill="none" xmlns="http://www.w3.org/2000/svg">
<path d="M145.853 8.45312C145.787 7.83286 145.508 7.34991 145.015 7.00426C144.527 6.65862 143.893 6.4858 143.112 6.4858C142.562 6.4858 142.091 6.56866 141.698 6.73438C141.305 6.90009 141.005 7.125 140.796 7.40909C140.588 7.69318 140.481 8.01752 140.477 8.3821C140.477 8.68513 140.545 8.94792 140.683 9.17045C140.825 9.39299 141.017 9.58239 141.258 9.73864C141.499 9.89015 141.767 10.018 142.061 10.1222C142.354 10.2263 142.65 10.3139 142.948 10.3849L144.312 10.7259C144.861 10.8537 145.389 11.0265 145.896 11.2443C146.407 11.4621 146.864 11.7367 147.267 12.0682C147.674 12.3996 147.996 12.7997 148.232 13.2685C148.469 13.7372 148.588 14.2865 148.588 14.9162C148.588 15.7685 148.37 16.5189 147.934 17.1676C147.499 17.8116 146.869 18.3158 146.045 18.6804C145.226 19.0402 144.234 19.2202 143.069 19.2202C141.937 19.2202 140.955 19.045 140.122 18.6946C139.293 18.3442 138.644 17.8329 138.176 17.1605C137.712 16.4882 137.461 15.669 137.423 14.7031H140.015C140.053 15.2098 140.209 15.6312 140.484 15.9673C140.758 16.3035 141.116 16.5545 141.556 16.7202C142.001 16.8859 142.499 16.9688 143.048 16.9688C143.621 16.9688 144.123 16.8835 144.553 16.7131C144.989 16.5379 145.33 16.2964 145.576 15.9886C145.822 15.6761 145.948 15.3116 145.953 14.8949C145.948 14.5161 145.837 14.2036 145.619 13.9574C145.401 13.7064 145.096 13.4981 144.703 13.3324C144.314 13.1619 143.86 13.0104 143.339 12.8778L141.684 12.4517C140.486 12.1439 139.539 11.6776 138.843 11.0526C138.152 10.4228 137.806 9.58712 137.806 8.54545C137.806 7.68845 138.038 6.93797 138.502 6.29403C138.971 5.65009 139.608 5.15057 140.413 4.79545C141.218 4.43561 142.129 4.25568 143.147 4.25568C144.179 4.25568 145.084 4.43561 145.86 4.79545C146.642 5.15057 147.255 5.64536 147.7 6.27983C148.145 6.90956 148.374 7.634 148.389 8.45312H145.853ZM155.581 19.2131C154.516 19.2131 153.593 18.9787 152.812 18.5099C152.03 18.0412 151.424 17.3854 150.993 16.5426C150.567 15.6998 150.354 14.715 150.354 13.5881C150.354 12.4612 150.567 11.474 150.993 10.6264C151.424 9.77888 152.03 9.12074 152.812 8.65199C153.593 8.18324 154.516 7.94886 155.581 7.94886C156.647 7.94886 157.57 8.18324 158.351 8.65199C159.133 9.12074 159.736 9.77888 160.162 10.6264C160.593 11.474 160.809 12.4612 160.809 13.5881C160.809 14.715 160.593 15.6998 160.162 16.5426C159.736 17.3854 159.133 18.0412 158.351 18.5099C157.57 18.9787 156.647 19.2131 155.581 19.2131ZM155.596 17.1534C156.173 17.1534 156.656 16.9948 157.045 16.6776C157.433 16.3556 157.722 15.9247 157.911 15.3849C158.105 14.8452 158.202 14.2438 158.202 13.581C158.202 12.9134 158.105 12.3097 157.911 11.7699C157.722 11.2254 157.433 10.7921 157.045 10.4702C156.656 10.1482 156.173 9.98722 155.596 9.98722C155.004 9.98722 154.511 10.1482 154.118 10.4702C153.73 10.7921 153.439 11.2254 153.245 11.7699C153.055 12.3097 152.961 12.9134 152.961 13.581C152.961 14.2438 153.055 14.8452 153.245 15.3849C153.439 15.9247 153.73 16.3556 154.118 16.6776C154.511 16.9948 155.004 17.1534 155.596 17.1534ZM167.749 19.2131C166.66 19.2131 165.725 18.974 164.944 18.4957C164.168 18.0175 163.569 17.357 163.147 16.5142C162.731 15.6667 162.522 14.6913 162.522 13.5881C162.522 12.4801 162.735 11.5024 163.161 10.6548C163.588 9.80256 164.189 9.13968 164.965 8.66619C165.747 8.18797 166.67 7.94886 167.735 7.94886C168.621 7.94886 169.404 8.11222 170.086 8.43892C170.773 8.76089 171.32 9.2178 171.727 9.80966C172.134 10.3968 172.366 11.0833 172.423 11.8693H169.965C169.866 11.3437 169.629 10.9058 169.255 10.5554C168.886 10.2003 168.391 10.0227 167.771 10.0227C167.245 10.0227 166.784 10.1648 166.386 10.4489C165.988 10.7282 165.678 11.1307 165.455 11.6562C165.238 12.1818 165.129 12.8116 165.129 13.5455C165.129 14.2888 165.238 14.928 165.455 15.4631C165.673 15.9934 165.979 16.4029 166.372 16.6918C166.769 16.9759 167.236 17.1179 167.771 17.1179C168.15 17.1179 168.488 17.0469 168.786 16.9048C169.089 16.758 169.343 16.5473 169.546 16.2727C169.75 15.9981 169.89 15.6643 169.965 15.2713H172.423C172.361 16.0431 172.134 16.7273 171.741 17.3239C171.348 17.9157 170.813 18.3797 170.136 18.7159C169.459 19.0473 168.663 19.2131 167.749 19.2131ZM174.534 19V8.09091H177.105V19H174.534ZM175.827 6.54261C175.419 6.54261 175.069 6.40767 174.775 6.13778C174.482 5.86316 174.335 5.53409 174.335 5.15057C174.335 4.76231 174.482 4.43324 174.775 4.16335C175.069 3.88873 175.419 3.75142 175.827 3.75142C176.238 3.75142 176.589 3.88873 176.878 4.16335C177.171 4.43324 177.318 4.76231 177.318 5.15057C177.318 5.53409 177.171 5.86316 176.878 6.13778C176.589 6.40767 176.238 6.54261 175.827 6.54261ZM182.888 19.2202C182.197 19.2202 181.574 19.0971 181.02 18.8509C180.471 18.5999 180.035 18.2306 179.713 17.7429C179.396 17.2552 179.237 16.6539 179.237 15.9389C179.237 15.3234 179.351 14.8144 179.578 14.4119C179.806 14.0095 180.116 13.6875 180.509 13.446C180.902 13.2045 181.344 13.0223 181.837 12.8991C182.334 12.7713 182.848 12.679 183.378 12.6222C184.017 12.5559 184.536 12.4967 184.933 12.4446C185.331 12.3878 185.62 12.3026 185.8 12.1889C185.985 12.0705 186.077 11.8883 186.077 11.642V11.5994C186.077 11.0644 185.918 10.6501 185.601 10.3565C185.284 10.063 184.827 9.91619 184.23 9.91619C183.601 9.91619 183.101 10.0535 182.732 10.3281C182.367 10.6027 182.121 10.9271 181.993 11.3011L179.593 10.9602C179.782 10.2973 180.094 9.74337 180.53 9.2983C180.966 8.84848 181.498 8.51231 182.128 8.28977C182.758 8.0625 183.454 7.94886 184.216 7.94886C184.742 7.94886 185.265 8.01042 185.786 8.13352C186.307 8.25663 186.782 8.46023 187.213 8.74432C187.644 9.02367 187.99 9.40483 188.25 9.88778C188.515 10.3707 188.648 10.9744 188.648 11.6989V19H186.176V17.5014H186.091C185.935 17.8045 185.715 18.0885 185.431 18.3537C185.151 18.6141 184.798 18.8248 184.372 18.9858C183.951 19.142 183.456 19.2202 182.888 19.2202ZM183.556 17.331C184.072 17.331 184.519 17.2292 184.898 17.0256C185.277 16.8172 185.568 16.5426 185.771 16.2017C185.98 15.8608 186.084 15.4891 186.084 15.0866V13.8011C186.003 13.8674 185.866 13.929 185.672 13.9858C185.483 14.0426 185.27 14.0923 185.033 14.1349C184.796 14.1776 184.562 14.2154 184.33 14.2486C184.098 14.2817 183.896 14.3101 183.726 14.3338C183.343 14.3859 182.999 14.4711 182.696 14.5895C182.393 14.7079 182.154 14.8736 181.979 15.0866C181.804 15.295 181.716 15.5649 181.716 15.8963C181.716 16.3698 181.889 16.7273 182.235 16.9688C182.58 17.2102 183.021 17.331 183.556 17.331ZM193.804 4.45455V19H191.233V4.45455H193.804ZM201.523 19V4.45455H204.157V16.7912H210.564V19H201.523ZM217.496 19.2131C216.43 19.2131 215.507 18.9787 214.726 18.5099C213.944 18.0412 213.338 17.3854 212.907 16.5426C212.481 15.6998 212.268 14.715 212.268 13.5881C212.268 12.4612 212.481 11.474 212.907 10.6264C213.338 9.77888 213.944 9.12074 214.726 8.65199C215.507 8.18324 216.43 7.94886 217.496 7.94886C218.561 7.94886 219.484 8.18324 220.265 8.65199C221.047 9.12074 221.65 9.77888 222.077 10.6264C222.507 11.474 222.723 12.4612 222.723 13.5881C222.723 14.715 222.507 15.6998 222.077 16.5426C221.65 17.3854 221.047 18.0412 220.265 18.5099C219.484 18.9787 218.561 19.2131 217.496 19.2131ZM217.51 17.1534C218.087 17.1534 218.57 16.9948 218.959 16.6776C219.347 16.3556 219.636 15.9247 219.825 15.3849C220.019 14.8452 220.116 14.2438 220.116 13.581C220.116 12.9134 220.019 12.3097 219.825 11.7699C219.636 11.2254 219.347 10.7921 218.959 10.4702C218.57 10.1482 218.087 9.98722 217.51 9.98722C216.918 9.98722 216.425 10.1482 216.032 10.4702C215.644 10.7921 215.353 11.2254 215.159 11.7699C214.97 12.3097 214.875 12.9134 214.875 13.581C214.875 14.2438 214.97 14.8452 215.159 15.3849C215.353 15.9247 215.644 16.3556 216.032 16.6776C216.425 16.9948 216.918 17.1534 217.51 17.1534ZM229.649 23.3182C228.726 23.3182 227.933 23.1927 227.27 22.9418C226.607 22.6955 226.075 22.3641 225.672 21.9474C225.27 21.5308 224.99 21.0691 224.834 20.5625L227.149 20.0014C227.253 20.2145 227.405 20.4252 227.604 20.6335C227.803 20.8466 228.07 21.0218 228.406 21.1591C228.747 21.3011 229.176 21.3722 229.692 21.3722C230.421 21.3722 231.025 21.1946 231.503 20.8395C231.981 20.4891 232.22 19.9115 232.22 19.1065V17.0398H232.093C231.96 17.3049 231.766 17.5772 231.51 17.8565C231.259 18.1359 230.925 18.3703 230.509 18.5597C230.097 18.7491 229.578 18.8438 228.953 18.8438C228.115 18.8438 227.355 18.6473 226.673 18.2543C225.996 17.8565 225.457 17.2647 225.054 16.4787C224.656 15.688 224.458 14.6984 224.458 13.5099C224.458 12.312 224.656 11.3011 225.054 10.4773C225.457 9.64867 225.999 9.02131 226.681 8.59517C227.362 8.1643 228.122 7.94886 228.96 7.94886C229.6 7.94886 230.125 8.05777 230.537 8.27557C230.954 8.48864 231.285 8.74669 231.531 9.04972C231.778 9.34801 231.965 9.62973 232.093 9.89489H232.235V8.09091H234.77V19.1776C234.77 20.1103 234.548 20.8821 234.102 21.4929C233.657 22.1037 233.049 22.5606 232.277 22.8636C231.505 23.1667 230.629 23.3182 229.649 23.3182ZM229.671 16.8267C230.215 16.8267 230.679 16.6941 231.063 16.429C231.446 16.1638 231.737 15.7827 231.936 15.2855C232.135 14.7884 232.235 14.1918 232.235 13.4957C232.235 12.8092 232.135 12.2079 231.936 11.6918C231.742 11.1757 231.453 10.7756 231.07 10.4915C230.691 10.2027 230.225 10.0582 229.671 10.0582C229.098 10.0582 228.619 10.2074 228.236 10.5057C227.852 10.804 227.564 11.2135 227.369 11.7344C227.175 12.2505 227.078 12.8376 227.078 13.4957C227.078 14.1634 227.175 14.7481 227.369 15.25C227.568 15.7472 227.86 16.1354 228.243 16.4148C228.631 16.6894 229.107 16.8267 229.671 16.8267ZM237.405 19V8.09091H239.976V19H237.405ZM238.698 6.54261C238.29 6.54261 237.94 6.40767 237.646 6.13778C237.353 5.86316 237.206 5.53409 237.206 5.15057C237.206 4.76231 237.353 4.43324 237.646 4.16335C237.94 3.88873 238.29 3.75142 238.698 3.75142C239.11 3.75142 239.46 3.88873 239.749 4.16335C240.042 4.43324 240.189 4.76231 240.189 5.15057C240.189 5.53409 240.042 5.86316 239.749 6.13778C239.46 6.40767 239.11 6.54261 238.698 6.54261ZM245.191 12.608V19H242.62V8.09091H245.077V9.9446H245.205C245.456 9.33381 245.856 8.84848 246.405 8.48864C246.959 8.12879 247.644 7.94886 248.458 7.94886C249.211 7.94886 249.867 8.10985 250.425 8.43182C250.989 8.75379 251.424 9.22017 251.732 9.83097C252.045 10.4418 252.198 11.1828 252.194 12.054V19H249.623V12.4517C249.623 11.7225 249.433 11.152 249.055 10.7401C248.68 10.3281 248.162 10.1222 247.499 10.1222C247.049 10.1222 246.649 10.2216 246.299 10.4205C245.953 10.6146 245.681 10.8963 245.482 11.2656C245.288 11.6349 245.191 12.0824 245.191 12.608Z" fill="#5A5A5A"/>
<line x1="2.18557e-08" y1="11.75" x2="120" y2="11.75" stroke="#5A5A5A" stroke-width="0.5"/>
<line x1="270" y1="11.75" x2="390" y2="11.75" stroke="#5A5A5A" stroke-width="0.5"/>
</svg>
