<svg width="24" height="24" viewBox="0 0 24 24" fill="none" xmlns="http://www.w3.org/2000/svg">
<path d="M6 22C5.45 22 4.97933 21.8043 4.588 21.413C4.19667 21.0217 4.00067 20.5507 4 20V4C4 3.45 4.196 2.97933 4.588 2.588C4.98 2.19667 5.45067 2.00067 6 2H13.175C13.4417 2 13.696 2.05 13.938 2.15C14.18 2.25 14.3923 2.39167 14.575 2.575L19.425 7.425C19.6083 7.60833 19.75 7.821 19.85 8.063C19.95 8.305 20 8.559 20 8.825V20C20 20.55 19.8043 21.021 19.413 21.413C19.0217 21.805 18.5507 22.0007 18 22H6ZM13 8C13 8.28333 13.096 8.521 13.288 8.713C13.48 8.905 13.7173 9.00067 14 9H18L13 4V8ZM10.925 15.125L9.525 13.725C9.425 13.625 9.31667 13.55 9.2 13.5C9.08333 13.45 8.96267 13.425 8.838 13.425C8.71333 13.425 8.58833 13.45 8.463 13.5C8.33767 13.55 8.225 13.625 8.125 13.725C7.925 13.925 7.825 14.1627 7.825 14.438C7.825 14.7133 7.925 14.9507 8.125 15.15L10.25 17.3C10.35 17.4 10.4583 17.471 10.575 17.513C10.6917 17.555 10.8167 17.5757 10.95 17.575C11.0833 17.5743 11.2083 17.5537 11.325 17.513C11.4417 17.4723 11.55 17.4013 11.65 17.3L15.875 13.075C16.075 12.875 16.175 12.6333 16.175 12.35C16.175 12.0667 16.075 11.825 15.875 11.625C15.675 11.425 15.4333 11.325 15.15 11.325C14.8667 11.325 14.625 11.425 14.425 11.625L10.925 15.125Z" fill="black"/>
</svg>
