<svg width="15" height="15" viewBox="0 0 15 15" fill="none" xmlns="http://www.w3.org/2000/svg">
<path d="M12.2042 2.71219H10.1702V2.03418C10.1702 1.6146 10.0035 1.2122 9.70683 0.915515C9.41015 0.618826 9.00775 0.452148 8.58817 0.452148H5.87612C5.45654 0.452148 5.05414 0.618826 4.75745 0.915515C4.46076 1.2122 4.29408 1.6146 4.29408 2.03418V2.71219H2.26004C2.08022 2.71219 1.90777 2.78363 1.78062 2.91078C1.65346 3.03793 1.58203 3.21039 1.58203 3.39021C1.58203 3.57003 1.65346 3.74248 1.78062 3.86963C1.90777 3.99679 2.08022 4.06822 2.26004 4.06822H2.48605V11.7524C2.48605 12.0521 2.6051 12.3395 2.81702 12.5514C3.02895 12.7633 3.31637 12.8824 3.61607 12.8824H10.8482C11.1479 12.8824 11.4353 12.7633 11.6473 12.5514C11.8592 12.3395 11.9782 12.0521 11.9782 11.7524V4.06822H12.2042C12.3841 4.06822 12.5565 3.99679 12.6837 3.86963C12.8108 3.74248 12.8823 3.57003 12.8823 3.39021C12.8823 3.21039 12.8108 3.03793 12.6837 2.91078C12.5565 2.78363 12.3841 2.71219 12.2042 2.71219ZM5.65011 2.03418C5.65011 1.97424 5.67392 1.91675 5.71631 1.87437C5.75869 1.83199 5.81618 1.80818 5.87612 1.80818H8.58817C8.64811 1.80818 8.7056 1.83199 8.74798 1.87437C8.79036 1.91675 8.81417 1.97424 8.81417 2.03418V2.71219H5.65011V2.03418ZM10.6222 11.5264H3.84208V4.06822H10.6222V11.5264ZM6.55413 5.87626V9.49233C6.55413 9.67215 6.4827 9.8446 6.35554 9.97176C6.22839 10.0989 6.05594 10.1703 5.87612 10.1703C5.6963 10.1703 5.52384 10.0989 5.39669 9.97176C5.26954 9.8446 5.1981 9.67215 5.1981 9.49233V5.87626C5.1981 5.69644 5.26954 5.52398 5.39669 5.39683C5.52384 5.26968 5.6963 5.19824 5.87612 5.19824C6.05594 5.19824 6.22839 5.26968 6.35554 5.39683C6.4827 5.52398 6.55413 5.69644 6.55413 5.87626ZM9.26618 5.87626V9.49233C9.26618 9.67215 9.19475 9.8446 9.0676 9.97176C8.94044 10.0989 8.76799 10.1703 8.58817 10.1703C8.40835 10.1703 8.23589 10.0989 8.10874 9.97176C7.98159 9.8446 7.91016 9.67215 7.91016 9.49233V5.87626C7.91016 5.69644 7.98159 5.52398 8.10874 5.39683C8.23589 5.26968 8.40835 5.19824 8.58817 5.19824C8.76799 5.19824 8.94044 5.26968 9.0676 5.39683C9.19475 5.52398 9.26618 5.69644 9.26618 5.87626Z" fill="#5A5A5A"/>
</svg>
