<svg width="1vw" height="1vw" viewBox="0 0 9 10" fill="none" xmlns="http://www.w3.org/2000/svg">
<path id="Vector" d="M4.0936 9.09345C3.39893 9.09345 2.76008 8.93528 2.17705 8.61896C1.59402 8.30264 1.11644 7.88087 0.744291 7.35367V7.97701C0.744291 8.08245 0.708627 8.17084 0.637299 8.24216C0.565971 8.31349 0.477586 8.34916 0.372145 8.34916C0.266704 8.34916 0.17832 8.31349 0.106992 8.24216C0.0356639 8.17084 0 8.08245 0 7.97701V6.48843C0 6.38299 0.0356639 6.2946 0.106992 6.22328C0.17832 6.15195 0.266704 6.11628 0.372145 6.11628H1.86073C1.96617 6.11628 2.05455 6.15195 2.12588 6.22328C2.19721 6.2946 2.23287 6.38299 2.23287 6.48843C2.23287 6.59387 2.19721 6.68225 2.12588 6.75358C2.05455 6.82491 1.96617 6.86057 1.86073 6.86057H1.31181C1.60953 7.30715 2.00183 7.66689 2.48872 7.9398C2.97561 8.2127 3.51057 8.34916 4.0936 8.34916C4.96814 8.34916 5.72018 8.05764 6.34973 7.47461C6.97927 6.89159 7.33746 6.17521 7.4243 5.32548C7.4367 5.22624 7.48012 5.14716 7.55455 5.08823C7.62898 5.02931 7.71581 4.99985 7.81505 4.99985C7.92049 4.99985 8.01043 5.03241 8.08486 5.09754C8.15928 5.16266 8.1903 5.24174 8.17789 5.33478C8.13448 5.86198 7.99802 6.35353 7.76853 6.8094C7.53904 7.26528 7.24133 7.66224 6.87538 8.00027C6.50944 8.3383 6.08923 8.60501 5.61474 8.80038C5.14026 8.99576 4.63321 9.09345 4.0936 9.09345ZM4.0936 1.65054C3.21906 1.65054 2.46701 1.94205 1.83747 2.52508C1.20792 3.10811 0.849732 3.82449 0.762898 4.67422C0.750493 4.77346 0.707076 4.85254 0.632647 4.91146C0.558218 4.97039 0.471384 4.99985 0.372145 4.99985C0.266704 4.99985 0.176769 4.96729 0.10234 4.90216C0.0279109 4.83703 -0.00310121 4.75795 0.00930363 4.66492C0.0527206 4.13771 0.189174 3.64617 0.418663 3.19029C0.648153 2.73441 0.945869 2.33746 1.31181 1.99943C1.67775 1.66139 2.09797 1.39469 2.57245 1.19931C3.04694 1.00394 3.55399 0.90625 4.0936 0.90625C4.78827 0.90625 5.42712 1.06441 6.01015 1.38074C6.59317 1.69706 7.07076 2.11882 7.44291 2.64603V2.02269C7.44291 1.91724 7.47857 1.82886 7.5499 1.75753C7.62122 1.6862 7.70961 1.65054 7.81505 1.65054C7.92049 1.65054 8.00888 1.6862 8.0802 1.75753C8.15153 1.82886 8.1872 1.91724 8.1872 2.02269V3.51127C8.1872 3.61671 8.15153 3.70509 8.0802 3.77642C8.00888 3.84775 7.92049 3.88341 7.81505 3.88341H6.32647C6.22103 3.88341 6.13264 3.84775 6.06132 3.77642C5.98999 3.70509 5.95432 3.61671 5.95432 3.51127C5.95432 3.40583 5.98999 3.31744 6.06132 3.24611C6.13264 3.17479 6.22103 3.13912 6.32647 3.13912H6.87538C6.57767 2.69255 6.18536 2.33281 5.69847 2.0599C5.21158 1.78699 4.67663 1.65054 4.0936 1.65054ZM4.0936 7.23272C4.22385 7.23272 4.33394 7.18775 4.42388 7.09782C4.51381 7.00788 4.55878 6.89779 4.55878 6.76754C4.55878 6.63729 4.51381 6.52564 4.42388 6.43261C4.33394 6.33957 4.22385 6.29305 4.0936 6.29305C3.96335 6.29305 3.85325 6.33802 3.76332 6.42796C3.67338 6.51789 3.62842 6.62798 3.62842 6.75823C3.62842 6.88848 3.67338 7.00013 3.76332 7.09316C3.85325 7.1862 3.96335 7.23272 4.0936 7.23272ZM4.83789 4.90681C5.05497 4.68973 5.19918 4.51451 5.27051 4.38116C5.34184 4.2478 5.3775 4.08809 5.3775 3.90202C5.3775 3.55468 5.25345 3.27868 5.00535 3.074C4.75726 2.86932 4.45334 2.76698 4.0936 2.76698C3.8455 2.76698 3.62532 2.81815 3.43304 2.92049C3.24077 3.02283 3.0826 3.17323 2.95855 3.37171C2.90894 3.45234 2.90118 3.53918 2.9353 3.63221C2.96941 3.72525 3.02988 3.79038 3.11672 3.82759C3.20355 3.8648 3.28728 3.8617 3.36791 3.81829C3.44855 3.77487 3.51987 3.71595 3.5819 3.64152C3.64392 3.56709 3.71835 3.50817 3.80519 3.46475C3.89202 3.42133 3.98816 3.39962 4.0936 3.39962C4.26106 3.39962 4.40217 3.44769 4.51691 3.54383C4.63166 3.63997 4.68903 3.76867 4.68903 3.92993C4.68903 4.03537 4.66422 4.14081 4.6146 4.24625C4.56498 4.3517 4.45954 4.47574 4.29828 4.6184C4.14322 4.75485 4.02692 4.8882 3.94939 5.01846C3.87186 5.14871 3.81759 5.29756 3.78658 5.46503C3.77417 5.55807 3.79898 5.64025 3.86101 5.71158C3.92303 5.7829 4.00366 5.81857 4.1029 5.81857C4.19594 5.81857 4.27347 5.7829 4.33549 5.71158C4.39752 5.64025 4.44093 5.55807 4.46574 5.46503C4.49055 5.35959 4.53242 5.26655 4.59134 5.18592C4.65027 5.10529 4.73245 5.01225 4.83789 4.90681Z" fill="#5A5A5A"/>
</svg>
