<svg width="15" height="15" viewBox="0 0 15 15" fill="none" xmlns="http://www.w3.org/2000/svg">
<g id="ant-design:block-outlined">
<path id="Vector" d="M12.5391 5.50781H9.49219V2.46094C9.49219 2.33203 9.38672 2.22656 9.25781 2.22656H2.46094C2.33203 2.22656 2.22656 2.33203 2.22656 2.46094V9.25781C2.22656 9.38672 2.33203 9.49219 2.46094 9.49219H5.50781V12.5391C5.50781 12.668 5.61328 12.7734 5.74219 12.7734H12.5391C12.668 12.7734 12.7734 12.668 12.7734 12.5391V5.74219C12.7734 5.61328 12.668 5.50781 12.5391 5.50781ZM5.50781 5.74219V8.49609H3.22266V3.22266H8.49609V5.50781H5.74219C5.61328 5.50781 5.50781 5.61328 5.50781 5.74219ZM8.49609 6.50391V8.49609H6.50391V6.50391H8.49609ZM11.7773 11.7773H6.50391V9.49219H9.25781C9.38672 9.49219 9.49219 9.38672 9.49219 9.25781V6.50391H11.7773V11.7773Z" fill="#5A5A5A"/>
</g>
</svg>
