<svg width="213" height="228" viewBox="0 0 213 228" fill="none" xmlns="http://www.w3.org/2000/svg">
<g clip-path="url(#clip0_2435_6915)">
<path d="M106.92 167.3V115.3L156.92 89.8001V140.3L106.92 167.3Z" fill="#543FD6"/>
<path d="M59.92 86.8001L106.92 60.8001L155.42 86.8001L106.92 113.8L59.92 86.8001Z" fill="#E1E2FF" stroke="black"/>
<path d="M106.92 114.858V167.519C106.232 167.516 105.557 167.34 104.955 167.007L59.9237 142.363C59.2807 142.011 58.7439 141.493 58.3695 140.863C57.995 140.233 57.7966 139.514 57.795 138.781V89.8399C57.7951 89.2632 57.9172 88.6929 58.1532 88.1666L106.92 114.858Z" fill="#8D87EC"/>
<path d="M155.881 82.6503L110.85 58.011C109.647 57.3462 108.295 56.9975 106.92 56.9975C105.545 56.9975 104.193 57.3462 102.99 58.011L57.9587 82.6605C56.6727 83.3642 55.5992 84.4002 54.8503 85.6603C54.1014 86.9205 53.7045 88.3587 53.7012 89.8246V138.765C53.7045 140.231 54.1014 141.669 54.8503 142.93C55.5992 144.19 56.6727 145.226 57.9587 145.929L102.99 170.579C104.193 171.244 105.545 171.592 106.92 171.592C108.295 171.592 109.647 171.244 110.85 170.579L155.881 145.929C157.167 145.226 158.241 144.19 158.99 142.93C159.739 141.669 160.135 140.231 160.139 138.765V89.8297C160.138 88.3612 159.743 86.9198 158.994 85.6567C158.244 84.3936 157.169 83.3552 155.881 82.6503ZM106.92 65.1751L148.031 87.6907L106.92 110.206L65.8085 87.6907L106.92 65.1751ZM61.8887 94.8548L102.826 117.258V161.158L61.8887 138.77V94.8548ZM111.014 161.158V117.278L151.951 94.8548V138.75L111.014 161.158Z" fill="#543FD6"/>
<path d="M53.42 194.3V142.3L103.42 116.8V167.3L53.42 194.3Z" fill="#543FD6"/>
<path d="M6.41995 113.8L53.42 87.8001L101.92 113.8L53.42 140.8L6.41995 113.8Z" fill="#E1E2FF" stroke="black"/>
<path d="M53.42 141.858V194.519C52.7324 194.516 52.0566 194.34 51.455 194.007L6.4237 169.363C5.7807 169.011 5.24394 168.493 4.86949 167.863C4.49504 167.233 4.29662 166.514 4.29495 165.781V116.84C4.29514 116.263 4.41721 115.693 4.65316 115.167L53.42 141.858Z" fill="#8D87EC"/>
<path d="M102.381 109.65L57.3499 85.011C56.1468 84.3462 54.7946 83.9975 53.42 83.9975C52.0453 83.9975 50.6931 84.3462 49.49 85.011L4.4587 109.661C3.17269 110.364 2.09918 111.4 1.35028 112.66C0.601367 113.921 0.20453 115.359 0.201202 116.825V165.765C0.20453 167.231 0.601367 168.669 1.35028 169.93C2.09918 171.19 3.17269 172.226 4.4587 172.929L49.49 197.579C50.6931 198.244 52.0453 198.592 53.42 198.592C54.7946 198.592 56.1468 198.244 57.3499 197.579L102.381 172.929C103.667 172.226 104.741 171.19 105.49 169.93C106.239 168.669 106.635 167.231 106.639 165.765V116.83C106.638 115.361 106.243 113.92 105.494 112.657C104.744 111.394 103.669 110.355 102.381 109.65ZM53.42 92.1751L94.5314 114.691L53.42 137.206L12.3085 114.691L53.42 92.1751ZM8.3887 121.855L49.3262 144.258V188.158L8.3887 165.77V121.855ZM57.5137 188.158V144.278L98.4512 121.855V165.75L57.5137 188.158Z" fill="#543FD6"/>
<path d="M159.42 194.3V142.3L209.42 116.8V167.3L159.42 194.3Z" fill="#543FD6"/>
<path d="M112.42 113.8L159.42 87.8001L207.92 113.8L159.42 140.8L112.42 113.8Z" fill="#E1E2FF" stroke="black"/>
<path d="M159.42 141.858V194.519C158.732 194.516 158.057 194.34 157.455 194.007L112.424 169.363C111.781 169.011 111.244 168.493 110.869 167.863C110.495 167.233 110.297 166.514 110.295 165.781V116.84C110.295 116.263 110.417 115.693 110.653 115.167L159.42 141.858Z" fill="#8D87EC"/>
<path d="M208.381 109.65L163.35 85.011C162.147 84.3462 160.795 83.9975 159.42 83.9975C158.045 83.9975 156.693 84.3462 155.49 85.011L110.459 109.661C109.173 110.364 108.099 111.4 107.35 112.66C106.601 113.921 106.204 115.359 106.201 116.825V165.765C106.204 167.231 106.601 168.669 107.35 169.93C108.099 171.19 109.173 172.226 110.459 172.929L155.49 197.579C156.693 198.244 158.045 198.592 159.42 198.592C160.795 198.592 162.147 198.244 163.35 197.579L208.381 172.929C209.667 172.226 210.741 171.19 211.49 169.93C212.239 168.669 212.635 167.231 212.639 165.765V116.83C212.638 115.361 212.243 113.92 211.494 112.657C210.744 111.394 209.669 110.355 208.381 109.65ZM159.42 92.1751L200.531 114.691L159.42 137.206L118.308 114.691L159.42 92.1751ZM114.389 121.855L155.326 144.258V188.158L114.389 165.77V121.855ZM163.514 188.158V144.278L204.451 121.855V165.75L163.514 188.158Z" fill="#543FD6"/>
<path d="M106.42 110.3V58.3001L156.42 32.8001V83.3001L106.42 110.3Z" fill="#543FD6"/>
<path d="M59.42 29.8001L106.42 3.80011L154.92 29.8001L106.42 56.8001L59.42 29.8001Z" fill="#E1E2FF" stroke="black"/>
<path d="M106.42 57.8579V110.519C105.732 110.516 105.057 110.34 104.455 110.007L59.4237 85.3628C58.7807 85.0109 58.2439 84.4929 57.8695 83.8628C57.495 83.2328 57.2966 82.5137 57.295 81.7807V32.8399C57.2951 32.2632 57.4172 31.6929 57.6532 31.1666L106.42 57.8579Z" fill="#8D87EC"/>
<path d="M155.381 25.6503L110.35 1.01103C109.147 0.346219 107.795 -0.00250244 106.42 -0.00250244C105.045 -0.00250244 103.693 0.346219 102.49 1.01103L57.4587 25.6605C56.1727 26.3642 55.0992 27.4002 54.3503 28.6603C53.6014 29.9205 53.2045 31.3587 53.2012 32.8246V81.7654C53.2045 83.2313 53.6014 84.6694 54.3503 85.9296C55.0992 87.1898 56.1727 88.2258 57.4587 88.9294L102.49 113.579C103.693 114.244 105.045 114.592 106.42 114.592C107.795 114.592 109.147 114.244 110.35 113.579L155.381 88.9294C156.667 88.2258 157.741 87.1898 158.49 85.9296C159.239 84.6694 159.635 83.2313 159.639 81.7654V32.8297C159.638 31.3612 159.243 29.9198 158.494 28.6567C157.744 27.3936 156.669 26.3552 155.381 25.6503ZM106.42 8.17509L147.531 30.6907L106.42 53.2063L65.3085 30.6907L106.42 8.17509ZM61.3887 37.8548L102.326 60.2578V104.158L61.3887 81.7705V37.8548ZM110.514 104.158V60.2783L151.451 37.8548V81.75L110.514 104.158Z" fill="#543FD6"/>
<path d="M159.42 139.3V87.3001L209.42 61.8001V112.3L159.42 139.3Z" fill="#543FD6"/>
<path d="M112.42 58.8001L159.42 32.8001L207.92 58.8001L159.42 85.8001L112.42 58.8001Z" fill="#E1E2FF" stroke="black"/>
<path d="M159.42 86.8579V139.519C158.732 139.516 158.057 139.34 157.455 139.007L112.424 114.363C111.781 114.011 111.244 113.493 110.869 112.863C110.495 112.233 110.297 111.514 110.295 110.781V61.8399C110.295 61.2632 110.417 60.6929 110.653 60.1666L159.42 86.8579Z" fill="#8D87EC"/>
<path d="M208.381 54.6503L163.35 30.011C162.147 29.3462 160.795 28.9975 159.42 28.9975C158.045 28.9975 156.693 29.3462 155.49 30.011L110.459 54.6605C109.173 55.3642 108.099 56.4002 107.35 57.6603C106.601 58.9205 106.204 60.3587 106.201 61.8246V110.765C106.204 112.231 106.601 113.669 107.35 114.93C108.099 116.19 109.173 117.226 110.459 117.929L155.49 142.579C156.693 143.244 158.045 143.592 159.42 143.592C160.795 143.592 162.147 143.244 163.35 142.579L208.381 117.929C209.667 117.226 210.741 116.19 211.49 114.93C212.239 113.669 212.635 112.231 212.639 110.765V61.8297C212.638 60.3612 212.243 58.9198 211.494 57.6567C210.744 56.3936 209.669 55.3552 208.381 54.6503ZM159.42 37.1751L200.531 59.6907L159.42 82.2063L118.308 59.6907L159.42 37.1751ZM114.389 66.8548L155.326 89.2578V133.158L114.389 110.77V66.8548ZM163.514 133.158V89.2783L204.451 66.8548V110.75L163.514 133.158Z" fill="#543FD6"/>
<path d="M106.42 223.3V171.3L156.42 145.8V196.3L106.42 223.3Z" fill="#543FD6"/>
<path d="M59.42 142.8L106.42 116.8L154.92 142.8L106.42 169.8L59.42 142.8Z" fill="#E1E2FF" stroke="black"/>
<path d="M106.42 170.858V223.519C105.732 223.516 105.057 223.34 104.455 223.007L59.4237 198.363C58.7807 198.011 58.2439 197.493 57.8695 196.863C57.495 196.233 57.2966 195.514 57.295 194.781V145.84C57.2951 145.263 57.4172 144.693 57.6532 144.167L106.42 170.858Z" fill="#8D87EC"/>
<path d="M155.381 138.65L110.35 114.011C109.147 113.346 107.795 112.997 106.42 112.997C105.045 112.997 103.693 113.346 102.49 114.011L57.4587 138.661C56.1727 139.364 55.0992 140.4 54.3503 141.66C53.6014 142.921 53.2045 144.359 53.2012 145.825V194.765C53.2045 196.231 53.6014 197.669 54.3503 198.93C55.0992 200.19 56.1727 201.226 57.4587 201.929L102.49 226.579C103.693 227.244 105.045 227.592 106.42 227.592C107.795 227.592 109.147 227.244 110.35 226.579L155.381 201.929C156.667 201.226 157.741 200.19 158.49 198.93C159.239 197.669 159.635 196.231 159.639 194.765V145.83C159.638 144.361 159.243 142.92 158.494 141.657C157.744 140.394 156.669 139.355 155.381 138.65ZM106.42 121.175L147.531 143.691L106.42 166.206L65.3085 143.691L106.42 121.175ZM61.3887 150.855L102.326 173.258V217.158L61.3887 194.77V150.855ZM110.514 217.158V173.278L151.451 150.855V194.75L110.514 217.158Z" fill="#543FD6"/>
</g>
<defs>
<clipPath id="clip0_2435_6915">
<rect width="212.44" height="227.59" fill="white" transform="translate(0.199951)"/>
</clipPath>
</defs>
</svg>
