<svg width="213" height="228" viewBox="0 0 213 228" fill="none" xmlns="http://www.w3.org/2000/svg">
<g clip-path="url(#clip0_2435_6976)">
<path d="M106.8 166.981V114.981L156.8 89.4809V139.981L106.8 166.981Z" fill="#543FD6"/>
<path d="M59.7998 86.4809L106.8 60.4809L155.3 86.4809L106.8 113.481L59.7998 86.4809Z" fill="#E1E2FF" stroke="black"/>
<path d="M106.8 114.539V167.2C106.112 167.197 105.436 167.021 104.835 166.688L59.8036 142.044C59.1606 141.692 58.6238 141.174 58.2493 140.544C57.8749 139.914 57.6765 139.194 57.6748 138.462V89.5207C57.675 88.944 57.7971 88.3737 58.033 87.8474L106.8 114.539Z" fill="#8D87EC"/>
<path d="M155.761 82.3311L110.73 57.6918C109.527 57.027 108.174 56.6783 106.8 56.6783C105.425 56.6783 104.073 57.027 102.87 57.6918L57.8386 82.3413C56.5525 83.0449 55.479 84.081 54.7301 85.3411C53.9812 86.6013 53.5844 88.0395 53.5811 89.5054V138.446C53.5844 139.912 53.9812 141.35 54.7301 142.61C55.479 143.871 56.5525 144.907 57.8386 145.61L102.87 170.26C104.073 170.925 105.425 171.273 106.8 171.273C108.174 171.273 109.527 170.925 110.73 170.26L155.761 145.61C157.047 144.907 158.121 143.871 158.869 142.61C159.618 141.35 160.015 139.912 160.019 138.446V89.5105C160.018 88.042 159.622 86.6006 158.873 85.3375C158.124 84.0744 157.049 83.036 155.761 82.3311ZM106.8 64.8559L147.911 87.3715L106.8 109.887L65.6883 87.3715L106.8 64.8559ZM61.7686 94.5356L102.706 116.939V160.839L61.7686 138.451V94.5356ZM110.894 160.839V116.959L151.831 94.5356V138.431L110.894 160.839Z" fill="#543FD6"/>
<path d="M53.2998 194.3V142.3L103.3 116.8V167.3L53.2998 194.3Z" fill="#543FD6"/>
<path d="M6.2998 113.8L53.2998 87.8001L101.8 113.8L53.2998 140.8L6.2998 113.8Z" fill="#E1E2FF" stroke="black"/>
<path d="M53.2998 141.858V194.519C52.6122 194.516 51.9364 194.34 51.3348 194.007L6.30355 169.363C5.66055 169.011 5.1238 168.493 4.74934 167.863C4.37489 167.233 4.17647 166.514 4.1748 165.781V116.84C4.17499 116.263 4.29706 115.693 4.53301 115.167L53.2998 141.858Z" fill="#8D87EC"/>
<path d="M102.261 109.65L57.2298 85.011C56.0266 84.3462 54.6744 83.9975 53.2998 83.9975C51.9252 83.9975 50.573 84.3462 49.3698 85.011L4.33855 109.661C3.05255 110.364 1.97904 111.4 1.23013 112.66C0.48122 113.921 0.0843822 115.359 0.0810547 116.825V165.765C0.0843822 167.231 0.48122 168.669 1.23013 169.93C1.97904 171.19 3.05255 172.226 4.33855 172.929L49.3698 197.579C50.573 198.244 51.9252 198.592 53.2998 198.592C54.6744 198.592 56.0266 198.244 57.2298 197.579L102.261 172.929C103.547 172.226 104.621 171.19 105.369 169.93C106.118 168.669 106.515 167.231 106.519 165.765V116.83C106.518 115.361 106.122 113.92 105.373 112.657C104.624 111.394 103.549 110.355 102.261 109.65ZM53.2998 92.1751L94.4113 114.691L53.2998 137.206L12.1883 114.691L53.2998 92.1751ZM8.26855 121.855L49.2061 144.258V188.158L8.26855 165.77V121.855ZM57.3936 188.158V144.278L98.3311 121.855V165.75L57.3936 188.158Z" fill="#543FD6"/>
<path d="M159.3 194.3V142.3L209.3 116.8V167.3L159.3 194.3Z" fill="#543FD6"/>
<path d="M112.3 113.8L159.3 87.8001L207.8 113.8L159.3 140.8L112.3 113.8Z" fill="#E1E2FF" stroke="black"/>
<path d="M159.3 141.858V194.519C158.612 194.516 157.936 194.34 157.335 194.007L112.304 169.363C111.661 169.011 111.124 168.493 110.749 167.863C110.375 167.233 110.176 166.514 110.175 165.781V116.84C110.175 116.263 110.297 115.693 110.533 115.167L159.3 141.858Z" fill="#8D87EC"/>
<path d="M208.261 109.65L163.23 85.011C162.027 84.3462 160.674 83.9975 159.3 83.9975C157.925 83.9975 156.573 84.3462 155.37 85.011L110.339 109.661C109.053 110.364 107.979 111.4 107.23 112.66C106.481 113.921 106.084 115.359 106.081 116.825V165.765C106.084 167.231 106.481 168.669 107.23 169.93C107.979 171.19 109.053 172.226 110.339 172.929L155.37 197.579C156.573 198.244 157.925 198.592 159.3 198.592C160.674 198.592 162.027 198.244 163.23 197.579L208.261 172.929C209.547 172.226 210.621 171.19 211.369 169.93C212.118 168.669 212.515 167.231 212.519 165.765V116.83C212.518 115.361 212.122 113.92 211.373 112.657C210.624 111.394 209.549 110.355 208.261 109.65ZM159.3 92.1751L200.411 114.691L159.3 137.206L118.188 114.691L159.3 92.1751ZM114.269 121.855L155.206 144.258V188.158L114.269 165.77V121.855ZM163.394 188.158V144.278L204.331 121.855V165.75L163.394 188.158Z" fill="#543FD6"/>
<path d="M106.3 110.3V58.3001L156.3 32.8001V83.3001L106.3 110.3Z" fill="#543FD6"/>
<path d="M59.2998 29.8001L106.3 3.80011L154.8 29.8001L106.3 56.8001L59.2998 29.8001Z" fill="#E1E2FF" stroke="black"/>
<path d="M106.3 57.8579V110.519C105.612 110.516 104.936 110.34 104.335 110.007L59.3036 85.3628C58.6606 85.0109 58.1238 84.4929 57.7493 83.8628C57.3749 83.2328 57.1765 82.5137 57.1748 81.7807V32.8399C57.175 32.2632 57.2971 31.6929 57.533 31.1666L106.3 57.8579Z" fill="#8D87EC"/>
<path d="M155.261 25.6503L110.23 1.01103C109.027 0.346219 107.674 -0.00250244 106.3 -0.00250244C104.925 -0.00250244 103.573 0.346219 102.37 1.01103L57.3386 25.6605C56.0525 26.3642 54.979 27.4002 54.2301 28.6603C53.4812 29.9205 53.0844 31.3587 53.0811 32.8246V81.7654C53.0844 83.2313 53.4812 84.6694 54.2301 85.9296C54.979 87.1898 56.0525 88.2258 57.3386 88.9294L102.37 113.579C103.573 114.244 104.925 114.592 106.3 114.592C107.674 114.592 109.027 114.244 110.23 113.579L155.261 88.9294C156.547 88.2258 157.621 87.1898 158.369 85.9296C159.118 84.6694 159.515 83.2313 159.519 81.7654V32.8297C159.518 31.3612 159.122 29.9198 158.373 28.6567C157.624 27.3936 156.549 26.3552 155.261 25.6503ZM106.3 8.17509L147.411 30.6907L106.3 53.2063L65.1883 30.6907L106.3 8.17509ZM61.2686 37.8548L102.206 60.2578V104.158L61.2686 81.7705V37.8548ZM110.394 104.158V60.2783L151.331 37.8548V81.75L110.394 104.158Z" fill="#543FD6"/>
<path d="M159.3 139.3V87.3001L209.3 61.8001V112.3L159.3 139.3Z" fill="#543FD6"/>
<path d="M112.3 58.8001L159.3 32.8001L207.8 58.8001L159.3 85.8001L112.3 58.8001Z" fill="#E1E2FF" stroke="black"/>
<path d="M159.3 86.8579V139.519C158.612 139.516 157.936 139.34 157.335 139.007L112.304 114.363C111.661 114.011 111.124 113.493 110.749 112.863C110.375 112.233 110.176 111.514 110.175 110.781V61.8399C110.175 61.2632 110.297 60.6929 110.533 60.1666L159.3 86.8579Z" fill="#8D87EC"/>
<path d="M208.261 54.6503L163.23 30.011C162.027 29.3462 160.674 28.9975 159.3 28.9975C157.925 28.9975 156.573 29.3462 155.37 30.011L110.339 54.6605C109.053 55.3642 107.979 56.4002 107.23 57.6603C106.481 58.9205 106.084 60.3587 106.081 61.8246V110.765C106.084 112.231 106.481 113.669 107.23 114.93C107.979 116.19 109.053 117.226 110.339 117.929L155.37 142.579C156.573 143.244 157.925 143.592 159.3 143.592C160.674 143.592 162.027 143.244 163.23 142.579L208.261 117.929C209.547 117.226 210.621 116.19 211.369 114.93C212.118 113.669 212.515 112.231 212.519 110.765V61.8297C212.518 60.3612 212.122 58.9198 211.373 57.6567C210.624 56.3936 209.549 55.3552 208.261 54.6503ZM159.3 37.1751L200.411 59.6907L159.3 82.2063L118.188 59.6907L159.3 37.1751ZM114.269 66.8548L155.206 89.2578V133.158L114.269 110.77V66.8548ZM163.394 133.158V89.2783L204.331 66.8548V110.75L163.394 133.158Z" fill="#543FD6"/>
<path d="M106.3 223.3V171.3L156.3 145.8V196.3L106.3 223.3Z" fill="#543FD6"/>
<path d="M59.2998 142.8L106.3 116.8L154.8 142.8L106.3 169.8L59.2998 142.8Z" fill="#E1E2FF" stroke="black"/>
<path d="M106.3 170.858V223.519C105.612 223.516 104.936 223.34 104.335 223.007L59.3036 198.363C58.6606 198.011 58.1238 197.493 57.7493 196.863C57.3749 196.233 57.1765 195.514 57.1748 194.781V145.84C57.175 145.263 57.2971 144.693 57.533 144.167L106.3 170.858Z" fill="#8D87EC"/>
<path d="M155.261 138.65L110.23 114.011C109.027 113.346 107.674 112.997 106.3 112.997C104.925 112.997 103.573 113.346 102.37 114.011L57.3386 138.661C56.0525 139.364 54.979 140.4 54.2301 141.66C53.4812 142.921 53.0844 144.359 53.0811 145.825V194.765C53.0844 196.231 53.4812 197.669 54.2301 198.93C54.979 200.19 56.0525 201.226 57.3386 201.929L102.37 226.579C103.573 227.244 104.925 227.592 106.3 227.592C107.674 227.592 109.027 227.244 110.23 226.579L155.261 201.929C156.547 201.226 157.621 200.19 158.369 198.93C159.118 197.669 159.515 196.231 159.519 194.765V145.83C159.518 144.361 159.122 142.92 158.373 141.657C157.624 140.394 156.549 139.355 155.261 138.65ZM106.3 121.175L147.411 143.691L106.3 166.206L65.1883 143.691L106.3 121.175ZM61.2686 150.855L102.206 173.258V217.158L61.2686 194.77V150.855ZM110.394 217.158V173.278L151.331 150.855V194.75L110.394 217.158Z" fill="#543FD6"/>
<path d="M53.2998 139.3V87.3001L103.3 61.8001V112.3L53.2998 139.3Z" fill="#543FD6"/>
<path d="M6.2998 58.8001L53.2998 32.8001L101.8 58.8001L53.2998 85.8001L6.2998 58.8001Z" fill="#E1E2FF" stroke="black"/>
<path d="M53.2998 86.8579V139.519C52.6122 139.516 51.9364 139.34 51.3348 139.007L6.30355 114.363C5.66055 114.011 5.1238 113.493 4.74934 112.863C4.37489 112.233 4.17647 111.514 4.1748 110.781V61.8399C4.17499 61.2632 4.29706 60.6929 4.53301 60.1666L53.2998 86.8579Z" fill="#8D87EC"/>
<path d="M102.261 54.6503L57.2298 30.011C56.0266 29.3462 54.6744 28.9975 53.2998 28.9975C51.9252 28.9975 50.573 29.3462 49.3698 30.011L4.33855 54.6605C3.05255 55.3642 1.97904 56.4002 1.23013 57.6603C0.48122 58.9205 0.0843822 60.3587 0.0810547 61.8246V110.765C0.0843822 112.231 0.48122 113.669 1.23013 114.93C1.97904 116.19 3.05255 117.226 4.33855 117.929L49.3698 142.579C50.573 143.244 51.9252 143.592 53.2998 143.592C54.6744 143.592 56.0266 143.244 57.2298 142.579L102.261 117.929C103.547 117.226 104.621 116.19 105.369 114.93C106.118 113.669 106.515 112.231 106.519 110.765V61.8297C106.518 60.3612 106.122 58.9198 105.373 57.6567C104.624 56.3936 103.549 55.3552 102.261 54.6503ZM53.2998 37.1751L94.4113 59.6907L53.2998 82.2063L12.1883 59.6907L53.2998 37.1751ZM8.26855 66.8548L49.2061 89.2578V133.158L8.26855 110.77V66.8548ZM57.3936 133.158V89.2783L98.3311 66.8548V110.75L57.3936 133.158Z" fill="#543FD6"/>
<path d="M106.3 168.3V116.3L156.3 90.8001V141.3L106.3 168.3Z" fill="#543FD6"/>
<path d="M59.2998 87.8001L106.3 61.8001L154.8 87.8001L106.3 114.8L59.2998 87.8001Z" fill="#E1E2FF" stroke="black"/>
<path d="M106.3 115.858V168.519C105.612 168.516 104.936 168.34 104.335 168.007L59.3036 143.363C58.6606 143.011 58.1238 142.493 57.7493 141.863C57.3749 141.233 57.1765 140.514 57.1748 139.781V90.8399C57.175 90.2632 57.2971 89.6929 57.533 89.1666L106.3 115.858Z" fill="#8D87EC"/>
<path d="M155.261 83.6503L110.23 59.011C109.027 58.3462 107.674 57.9975 106.3 57.9975C104.925 57.9975 103.573 58.3462 102.37 59.011L57.3386 83.6605C56.0525 84.3642 54.979 85.4002 54.2301 86.6603C53.4812 87.9205 53.0844 89.3587 53.0811 90.8246V139.765C53.0844 141.231 53.4812 142.669 54.2301 143.93C54.979 145.19 56.0525 146.226 57.3386 146.929L102.37 171.579C103.573 172.244 104.925 172.592 106.3 172.592C107.674 172.592 109.027 172.244 110.23 171.579L155.261 146.929C156.547 146.226 157.621 145.19 158.369 143.93C159.118 142.669 159.515 141.231 159.519 139.765V90.8297C159.518 89.3612 159.122 87.9198 158.373 86.6567C157.624 85.3936 156.549 84.3552 155.261 83.6503ZM106.3 66.1751L147.411 88.6907L106.3 111.206L65.1883 88.6907L106.3 66.1751ZM61.2686 95.8548L102.206 118.258V162.158L61.2686 139.77V95.8548ZM110.394 162.158V118.278L151.331 95.8548V139.75L110.394 162.158Z" fill="#543FD6"/>
</g>
<defs>
<clipPath id="clip0_2435_6976">
<rect width="212.44" height="227.59" fill="white" transform="translate(0.079834)"/>
</clipPath>
</defs>
</svg>
