<svg width="213" height="228" viewBox="0 0 213 228" fill="none" xmlns="http://www.w3.org/2000/svg">
<g clip-path="url(#clip0_2435_6874)">
<path d="M106.54 182.077V130.077L156.54 104.577V155.077L106.54 182.077Z" fill="#543FD6"/>
<path d="M59.5401 101.577L106.54 75.577L155.04 101.577L106.54 128.577L59.5401 101.577Z" fill="#E1E2FF" stroke="black"/>
<path d="M106.54 129.635V182.296C105.852 182.293 105.177 182.117 104.575 181.784L59.5438 157.14C58.9008 156.788 58.3641 156.27 57.9896 155.64C57.6152 155.01 57.4167 154.291 57.4151 153.558V104.617C57.4153 104.04 57.5373 103.47 57.7733 102.944L106.54 129.635Z" fill="#8D87EC"/>
<path d="M155.501 97.4272L110.47 72.7879C109.267 72.1231 107.915 71.7744 106.54 71.7744C105.165 71.7744 103.813 72.1231 102.61 72.7879L57.5788 97.4374C56.2928 98.1411 55.2193 99.1771 54.4704 100.437C53.7215 101.697 53.3246 103.136 53.3213 104.602V153.542C53.3246 155.008 53.7215 156.446 54.4704 157.707C55.2193 158.967 56.2928 160.003 57.5788 160.706L102.61 185.356C103.813 186.021 105.165 186.369 106.54 186.369C107.915 186.369 109.267 186.021 110.47 185.356L155.501 160.706C156.787 160.003 157.861 158.967 158.61 157.707C159.359 156.446 159.755 155.008 159.759 153.542V104.607C159.758 103.138 159.363 101.697 158.614 100.434C157.865 99.1705 156.79 98.1321 155.501 97.4272ZM106.54 79.952L147.652 102.468L106.54 124.983L65.4286 102.468L106.54 79.952ZM61.5088 109.632L102.446 132.035V175.935L61.5088 153.547V109.632ZM110.634 175.935V132.055L151.571 109.632V153.527L110.634 175.935Z" fill="#543FD6"/>
<path d="M53.5401 208.982V156.982L103.54 131.482V181.982L53.5401 208.982Z" fill="#543FD6"/>
<path d="M6.54007 128.482L53.5401 102.482L102.04 128.482L53.5401 155.482L6.54007 128.482Z" fill="#E1E2FF" stroke="black"/>
<path d="M53.5401 156.539V209.2C52.8525 209.198 52.1767 209.022 51.5751 208.689L6.54382 184.044C5.90082 183.693 5.36406 183.175 4.98961 182.544C4.61515 181.914 4.41673 181.195 4.41507 180.462V131.522C4.41526 130.945 4.53733 130.375 4.77327 129.848L53.5401 156.539Z" fill="#8D87EC"/>
<path d="M102.501 124.332L57.4701 99.6926C56.2669 99.0278 54.9147 98.6791 53.5401 98.6791C52.1654 98.6791 50.8133 99.0278 49.6101 99.6926L4.57882 124.342C3.29281 125.046 2.2193 126.082 1.47039 127.342C0.721485 128.602 0.324647 130.04 0.32132 131.506V180.447C0.324647 181.913 0.721485 183.351 1.47039 184.611C2.2193 185.871 3.29281 186.907 4.57882 187.611L49.6101 212.261C50.8133 212.925 52.1654 213.274 53.5401 213.274C54.9147 213.274 56.2669 212.925 57.4701 212.261L102.501 187.611C103.787 186.907 104.861 185.871 105.61 184.611C106.359 183.351 106.755 181.913 106.759 180.447V131.511C106.758 130.043 106.363 128.601 105.614 127.338C104.865 126.075 103.79 125.037 102.501 124.332ZM53.5401 106.857L94.6516 129.372L53.5401 151.888L12.4286 129.372L53.5401 106.857ZM8.50882 136.536L49.4463 158.939V202.84L8.50882 180.452V136.536ZM57.6338 202.84V158.96L98.5713 136.536V180.432L57.6338 202.84Z" fill="#543FD6"/>
<path d="M159.54 208.982V156.982L209.54 131.482V181.982L159.54 208.982Z" fill="#543FD6"/>
<path d="M112.54 128.482L159.54 102.482L208.04 128.482L159.54 155.482L112.54 128.482Z" fill="#E1E2FF" stroke="black"/>
<path d="M159.54 156.539V209.2C158.852 209.198 158.177 209.022 157.575 208.689L112.544 184.044C111.901 183.693 111.364 183.175 110.99 182.544C110.615 181.914 110.417 181.195 110.415 180.462V131.522C110.415 130.945 110.537 130.375 110.773 129.848L159.54 156.539Z" fill="#8D87EC"/>
<path d="M208.501 124.332L163.47 99.6926C162.267 99.0278 160.915 98.6791 159.54 98.6791C158.165 98.6791 156.813 99.0278 155.61 99.6926L110.579 124.342C109.293 125.046 108.219 126.082 107.47 127.342C106.721 128.602 106.325 130.04 106.321 131.506V180.447C106.325 181.913 106.721 183.351 107.47 184.611C108.219 185.871 109.293 186.907 110.579 187.611L155.61 212.261C156.813 212.925 158.165 213.274 159.54 213.274C160.915 213.274 162.267 212.925 163.47 212.261L208.501 187.611C209.787 186.907 210.861 185.871 211.61 184.611C212.359 183.351 212.755 181.913 212.759 180.447V131.511C212.758 130.043 212.363 128.601 211.614 127.338C210.865 126.075 209.79 125.037 208.501 124.332ZM159.54 106.857L200.652 129.372L159.54 151.888L118.429 129.372L159.54 106.857ZM114.509 136.536L155.446 158.939V202.84L114.509 180.452V136.536ZM163.634 202.84V158.96L204.571 136.536V180.432L163.634 202.84Z" fill="#543FD6"/>
<path d="M107.103 124.619V72.6185L157.103 47.1185V97.6185L107.103 124.619Z" fill="#543FD6"/>
<path d="M60.1026 44.1185L107.103 18.1185L155.603 44.1185L107.103 71.1185L60.1026 44.1185Z" fill="#E1E2FF" stroke="black"/>
<path d="M107.103 72.1763V124.837C106.415 124.834 105.739 124.658 105.138 124.326L60.1063 99.6812C59.4633 99.3294 58.9266 98.8114 58.5521 98.1813C58.1777 97.5512 57.9792 96.8321 57.9776 96.0991V47.1584C57.9778 46.5816 58.0998 46.0114 58.3358 45.485L107.103 72.1763Z" fill="#8D87EC"/>
<path d="M156.064 39.9687L111.033 15.3295C109.829 14.6646 108.477 14.3159 107.103 14.3159C105.728 14.3159 104.376 14.6646 103.173 15.3295L58.1413 39.9789C56.8553 40.6826 55.7818 41.7186 55.0329 42.9788C54.284 44.239 53.8871 45.6771 53.8838 47.143V96.0838C53.8871 97.5497 54.284 98.9878 55.0329 100.248C55.7818 101.508 56.8553 102.544 58.1413 103.248L103.173 127.897C104.376 128.562 105.728 128.911 107.103 128.911C108.477 128.911 109.829 128.562 111.033 127.897L156.064 103.248C157.35 102.544 158.423 101.508 159.172 100.248C159.921 98.9878 160.318 97.5497 160.321 96.0838V47.1481C160.321 45.6796 159.925 44.2383 159.176 42.9751C158.427 41.712 157.352 40.6736 156.064 39.9687ZM107.103 22.4935L148.214 45.0091L107.103 67.5248L65.9911 45.0091L107.103 22.4935ZM62.0713 52.1732L103.009 74.5763V118.477L62.0713 96.0889V52.1732ZM111.196 118.477V74.5967L152.134 52.1732V96.0684L111.196 118.477Z" fill="#543FD6"/>
</g>
<defs>
<clipPath id="clip0_2435_6874">
<rect width="212.44" height="227.59" fill="white" transform="translate(0.320068)"/>
</clipPath>
</defs>
</svg>
