<svg width="214" height="228" viewBox="0 0 214 228" fill="none" xmlns="http://www.w3.org/2000/svg">
<g clip-path="url(#clip0_2435_6892)">
<path d="M107.48 182.226V130.226L157.48 104.726V155.226L107.48 182.226Z" fill="#543FD6"/>
<path d="M60.48 101.726L107.48 75.7258L155.98 101.726L107.48 128.726L60.48 101.726Z" fill="#E1E2FF" stroke="black"/>
<path d="M107.48 129.784V182.445C106.792 182.442 106.117 182.266 105.515 181.933L60.4838 157.288C59.8408 156.937 59.304 156.419 58.9295 155.789C58.5551 155.158 58.3567 154.439 58.355 153.706V104.766C58.3552 104.189 58.4773 103.619 58.7132 103.092L107.48 129.784Z" fill="#8D87EC"/>
<path d="M156.441 97.576L111.41 72.9367C110.207 72.2719 108.855 71.9232 107.48 71.9232C106.105 71.9232 104.753 72.2719 103.55 72.9367L58.5188 97.5862C57.2328 98.2898 56.1592 99.3258 55.4103 100.586C54.6614 101.846 54.2646 103.284 54.2613 104.75V153.691C54.2646 155.157 54.6614 156.595 55.4103 157.855C56.1592 159.115 57.2328 160.151 58.5188 160.855L103.55 185.505C104.753 186.169 106.105 186.518 107.48 186.518C108.855 186.518 110.207 186.169 111.41 185.505L156.441 160.855C157.727 160.151 158.801 159.115 159.55 157.855C160.299 156.595 160.695 155.157 160.699 153.691V104.755C160.698 103.287 160.303 101.846 159.554 100.582C158.805 99.3193 157.73 98.2808 156.441 97.576ZM107.48 80.1008L148.591 102.616L107.48 125.132L66.3685 102.616L107.48 80.1008ZM62.4488 109.78L103.386 132.183V176.084L62.4488 153.696V109.78ZM111.574 176.084V132.204L152.511 109.78V153.676L111.574 176.084Z" fill="#543FD6"/>
<path d="M53.98 208.8V156.8L103.98 131.3V181.8L53.98 208.8Z" fill="#543FD6"/>
<path d="M6.98001 128.3L53.98 102.3L102.48 128.3L53.98 155.3L6.98001 128.3Z" fill="#E1E2FF" stroke="black"/>
<path d="M53.98 156.358V209.019C53.2924 209.016 52.6166 208.84 52.015 208.507L6.98376 183.863C6.34076 183.511 5.804 182.993 5.42955 182.363C5.05509 181.733 4.85667 181.014 4.85501 180.281V131.34C4.8552 130.763 4.97727 130.193 5.21321 129.667L53.98 156.358Z" fill="#8D87EC"/>
<path d="M102.941 124.15L57.91 99.511C56.7068 98.8462 55.3547 98.4975 53.98 98.4975C52.6054 98.4975 51.2532 98.8462 50.05 99.511L5.01876 124.161C3.73275 124.864 2.65924 125.9 1.91033 127.16C1.16143 128.421 0.764588 129.859 0.761261 131.325V180.265C0.764588 181.731 1.16143 183.169 1.91033 184.43C2.65924 185.69 3.73275 186.726 5.01876 187.429L50.05 212.079C51.2532 212.744 52.6054 213.092 53.98 213.092C55.3547 213.092 56.7068 212.744 57.91 212.079L102.941 187.429C104.227 186.726 105.301 185.69 106.05 184.43C106.799 183.169 107.195 181.731 107.199 180.265V131.33C107.198 129.861 106.803 128.42 106.054 127.157C105.305 125.894 104.23 124.855 102.941 124.15ZM53.98 106.675L95.0915 129.191L53.98 151.706L12.8685 129.191L53.98 106.675ZM8.94876 136.355L49.8863 158.758V202.658L8.94876 180.27V136.355ZM58.0738 202.658V158.778L99.0113 136.355V180.25L58.0738 202.658Z" fill="#543FD6"/>
<path d="M159.98 208.8V156.8L209.98 131.3V181.8L159.98 208.8Z" fill="#543FD6"/>
<path d="M112.98 128.3L159.98 102.3L208.48 128.3L159.98 155.3L112.98 128.3Z" fill="#E1E2FF" stroke="black"/>
<path d="M159.98 156.358V209.019C159.292 209.016 158.617 208.84 158.015 208.507L112.984 183.863C112.341 183.511 111.804 182.993 111.43 182.363C111.055 181.733 110.857 181.014 110.855 180.281V131.34C110.855 130.763 110.977 130.193 111.213 129.667L159.98 156.358Z" fill="#8D87EC"/>
<path d="M208.941 124.15L163.91 99.511C162.707 98.8462 161.355 98.4975 159.98 98.4975C158.605 98.4975 157.253 98.8462 156.05 99.511L111.019 124.161C109.733 124.864 108.659 125.9 107.91 127.16C107.161 128.421 106.765 129.859 106.761 131.325V180.265C106.765 181.731 107.161 183.169 107.91 184.43C108.659 185.69 109.733 186.726 111.019 187.429L156.05 212.079C157.253 212.744 158.605 213.092 159.98 213.092C161.355 213.092 162.707 212.744 163.91 212.079L208.941 187.429C210.227 186.726 211.301 185.69 212.05 184.43C212.799 183.169 213.195 181.731 213.199 180.265V131.33C213.198 129.861 212.803 128.42 212.054 127.157C211.305 125.894 210.23 124.855 208.941 124.15ZM159.98 106.675L201.091 129.191L159.98 151.706L118.869 129.191L159.98 106.675ZM114.949 136.355L155.886 158.758V202.658L114.949 180.27V136.355ZM164.074 202.658V158.778L205.011 136.355V180.25L164.074 202.658Z" fill="#543FD6"/>
<path d="M106.98 124.8V72.8001L156.98 47.3001V97.8001L106.98 124.8Z" fill="#543FD6"/>
<path d="M59.98 44.3001L106.98 18.3001L155.48 44.3001L106.98 71.3001L59.98 44.3001Z" fill="#E1E2FF" stroke="black"/>
<path d="M106.98 72.3579V125.019C106.292 125.016 105.617 124.84 105.015 124.507L59.9838 99.8628C59.3408 99.5109 58.804 98.9929 58.4295 98.3628C58.0551 97.7328 57.8567 97.0137 57.855 96.2807V47.3399C57.8552 46.7632 57.9773 46.1929 58.2132 45.6666L106.98 72.3579Z" fill="#8D87EC"/>
<path d="M155.941 40.1503L110.91 15.511C109.707 14.8462 108.355 14.4975 106.98 14.4975C105.605 14.4975 104.253 14.8462 103.05 15.511L58.0188 40.1605C56.7328 40.8642 55.6592 41.9002 54.9103 43.1603C54.1614 44.4205 53.7646 45.8587 53.7613 47.3246V96.2654C53.7646 97.7313 54.1614 99.1694 54.9103 100.43C55.6592 101.69 56.7328 102.726 58.0188 103.429L103.05 128.079C104.253 128.744 105.605 129.092 106.98 129.092C108.355 129.092 109.707 128.744 110.91 128.079L155.941 103.429C157.227 102.726 158.301 101.69 159.05 100.43C159.799 99.1694 160.195 97.7313 160.199 96.2654V47.3297C160.198 45.8612 159.803 44.4198 159.054 43.1567C158.305 41.8936 157.23 40.8552 155.941 40.1503ZM106.98 22.6751L148.091 45.1907L106.98 67.7063L65.8685 45.1907L106.98 22.6751ZM61.9488 52.3548L102.886 74.7578V118.658L61.9488 96.2705V52.3548ZM111.074 118.658V74.7783L152.011 52.3548V96.25L111.074 118.658Z" fill="#543FD6"/>
<path d="M159.98 153.8V101.8L209.98 76.3001V126.8L159.98 153.8Z" fill="#543FD6"/>
<path d="M112.98 73.3001L159.98 47.3001L208.48 73.3001L159.98 100.3L112.98 73.3001Z" fill="#E1E2FF" stroke="black"/>
<path d="M159.98 101.358V154.019C159.292 154.016 158.617 153.84 158.015 153.507L112.984 128.863C112.341 128.511 111.804 127.993 111.43 127.363C111.055 126.733 110.857 126.014 110.855 125.281V76.3399C110.855 75.7632 110.977 75.1929 111.213 74.6666L159.98 101.358Z" fill="#8D87EC"/>
<path d="M208.941 69.1503L163.91 44.511C162.707 43.8462 161.355 43.4975 159.98 43.4975C158.605 43.4975 157.253 43.8462 156.05 44.511L111.019 69.1605C109.733 69.8642 108.659 70.9002 107.91 72.1603C107.161 73.4205 106.765 74.8587 106.761 76.3246V125.265C106.765 126.731 107.161 128.169 107.91 129.43C108.659 130.69 109.733 131.726 111.019 132.429L156.05 157.079C157.253 157.744 158.605 158.092 159.98 158.092C161.355 158.092 162.707 157.744 163.91 157.079L208.941 132.429C210.227 131.726 211.301 130.69 212.05 129.43C212.799 128.169 213.195 126.731 213.199 125.265V76.3297C213.198 74.8612 212.803 73.4198 212.054 72.1567C211.305 70.8936 210.23 69.8552 208.941 69.1503ZM159.98 51.6751L201.091 74.1907L159.98 96.7063L118.869 74.1907L159.98 51.6751ZM114.949 81.3548L155.886 103.758V147.658L114.949 125.27V81.3548ZM164.074 147.658V103.778L205.011 81.3548V125.25L164.074 147.658Z" fill="#543FD6"/>
</g>
<defs>
<clipPath id="clip0_2435_6892">
<rect width="212.44" height="227.59" fill="white" transform="translate(0.76001)"/>
</clipPath>
</defs>
</svg>
