<svg width="213" height="228" viewBox="0 0 213 228" fill="none" xmlns="http://www.w3.org/2000/svg">
<path d="M106.22 166.8V114.8L156.22 89.3001V139.8L106.22 166.8Z" fill="#543FD6"/>
<path d="M59.22 86.3001L106.22 60.3001L154.72 86.3001L106.22 113.3L59.22 86.3001Z" fill="#E1E2FF" stroke="black"/>
<path d="M106.22 114.358V167.019C105.532 167.016 104.857 166.84 104.255 166.507L59.2237 141.863C58.5807 141.511 58.044 140.993 57.6695 140.363C57.2951 139.733 57.0966 139.014 57.095 138.281V89.3399C57.0952 88.7632 57.2172 88.1929 57.4532 87.6666L106.22 114.358Z" fill="#8D87EC"/>
<path d="M155.181 82.1503L110.15 57.511C108.947 56.8462 107.595 56.4975 106.22 56.4975C104.845 56.4975 103.493 56.8462 102.29 57.511L57.2587 82.1605C55.9727 82.8642 54.8992 83.9002 54.1503 85.1603C53.4014 86.4205 53.0045 87.8587 53.0012 89.3246V138.265C53.0045 139.731 53.4014 141.169 54.1503 142.43C54.8992 143.69 55.9727 144.726 57.2587 145.429L102.29 170.079C103.493 170.744 104.845 171.092 106.22 171.092C107.595 171.092 108.947 170.744 110.15 170.079L155.181 145.429C156.467 144.726 157.541 143.69 158.29 142.43C159.039 141.169 159.435 139.731 159.439 138.265V89.3297C159.438 87.8612 159.043 86.4198 158.294 85.1567C157.545 83.8936 156.47 82.8552 155.181 82.1503ZM106.22 64.6751L147.331 87.1907L106.22 109.706L65.1085 87.1907L106.22 64.6751ZM61.1887 94.3548L102.126 116.758V160.658L61.1887 138.27V94.3548ZM110.314 160.658V116.778L151.251 94.3548V138.25L110.314 160.658Z" fill="#543FD6"/>
</svg>
