<svg width="213" height="228" viewBox="0 0 213 228" fill="none" xmlns="http://www.w3.org/2000/svg">
<path d="M133.504 151.564V99.5636L183.504 74.0636V124.564L133.504 151.564Z" fill="#543FD6"/>
<path d="M86.5038 71.0636L133.504 45.0636L182.004 71.0636L133.504 98.0636L86.5038 71.0636Z" fill="#E1E2FF" stroke="black"/>
<path d="M133.504 99.1214V151.782C132.816 151.78 132.14 151.604 131.539 151.271L86.5075 126.626C85.8645 126.274 85.3278 125.756 84.9533 125.126C84.5789 124.496 84.3804 123.777 84.3788 123.044V74.1034C84.379 73.5267 84.501 72.9564 84.737 72.4301L133.504 99.1214Z" fill="#8D87EC"/>
<path d="M182.465 66.9138L137.434 42.2745C136.231 41.6097 134.878 41.261 133.504 41.261C132.129 41.261 130.777 41.6097 129.574 42.2745L84.5425 66.924C83.2565 67.6277 82.183 68.6637 81.4341 69.9238C80.6852 71.184 80.2884 72.6222 80.285 74.0881V123.029C80.2884 124.495 80.6852 125.933 81.4341 127.193C82.183 128.453 83.2565 129.489 84.5425 130.193L129.574 154.842C130.777 155.507 132.129 155.856 133.504 155.856C134.878 155.856 136.231 155.507 137.434 154.842L182.465 130.193C183.751 129.489 184.825 128.453 185.573 127.193C186.322 125.933 186.719 124.495 186.723 123.029V74.0932C186.722 72.6247 186.326 71.1833 185.577 69.9202C184.828 68.6571 183.753 67.6187 182.465 66.9138ZM133.504 49.4386L174.615 71.9542L133.504 94.4698L92.3923 71.9542L133.504 49.4386ZM88.4725 79.1183L129.41 101.521V145.422L88.4725 123.034V79.1183ZM137.598 145.422V101.542L178.535 79.1183V123.014L137.598 145.422Z" fill="#543FD6"/>
<path d="M79.8163 182.037V130.037L129.816 104.537V155.037L79.8163 182.037Z" fill="#543FD6"/>
<path d="M32.8163 101.537L79.8163 75.5367L128.316 101.537L79.8163 128.537L32.8163 101.537Z" fill="#E1E2FF" stroke="black"/>
<path d="M79.8163 129.595V182.255C79.1287 182.253 78.4529 182.077 77.8513 181.744L32.82 157.099C32.177 156.748 31.6403 156.23 31.2658 155.599C30.8914 154.969 30.6929 154.25 30.6913 153.517V104.577C30.6915 104 30.8135 103.43 31.0495 102.903L79.8163 129.595Z" fill="#8D87EC"/>
<path d="M128.778 97.3869L83.7463 72.7477C82.5431 72.0829 81.1909 71.7341 79.8163 71.7341C78.4416 71.7341 77.0895 72.0829 75.8863 72.7477L30.855 97.3972C29.569 98.1008 28.4955 99.1368 27.7466 100.397C26.9977 101.657 26.6009 103.095 26.5975 104.561V153.502C26.6009 154.968 26.9977 156.406 27.7466 157.666C28.4955 158.926 29.569 159.962 30.855 160.666L75.8863 185.316C77.0895 185.98 78.4416 186.329 79.8163 186.329C81.1909 186.329 82.5431 185.98 83.7463 185.316L128.778 160.666C130.064 159.962 131.137 158.926 131.886 157.666C132.635 156.406 133.032 154.968 133.035 153.502V104.566C133.034 103.098 132.639 101.656 131.89 100.393C131.141 99.1302 130.066 98.0918 128.778 97.3869ZM79.8163 79.9117L120.928 102.427L79.8163 124.943L38.7048 102.427L79.8163 79.9117ZM34.785 109.591L75.7225 131.994V175.895L34.785 153.507V109.591ZM83.91 175.895V132.015L124.848 109.591V153.487L83.91 175.895Z" fill="#543FD6"/>
</svg>
