<svg width="214" height="228" viewBox="0 0 214 228" fill="none" xmlns="http://www.w3.org/2000/svg">
<g clip-path="url(#clip0_2435_6943)">
<path d="M107.36 167.087V115.087L157.36 89.5873V140.087L107.36 167.087Z" fill="#543FD6"/>
<path d="M60.3599 86.5873L107.36 60.5873L155.86 86.5873L107.36 113.587L60.3599 86.5873Z" fill="#E1E2FF" stroke="black"/>
<path d="M107.36 114.645V167.306C106.672 167.303 105.996 167.127 105.395 166.794L60.3636 142.15C59.7206 141.798 59.1839 141.28 58.8094 140.65C58.4349 140.02 58.2365 139.301 58.2349 138.568V89.6271C58.2351 89.0503 58.3571 88.4801 58.5931 87.9538L107.36 114.645Z" fill="#8D87EC"/>
<path d="M156.321 82.4375L111.29 57.7982C110.087 57.1334 108.735 56.7847 107.36 56.7847C105.985 56.7847 104.633 57.1334 103.43 57.7982L58.3986 82.4477C57.1126 83.1513 56.0391 84.1873 55.2902 85.4475C54.5413 86.7077 54.1444 88.1458 54.1411 89.6118V138.553C54.1444 140.018 54.5413 141.457 55.2902 142.717C56.0391 143.977 57.1126 145.013 58.3986 145.717L103.43 170.366C104.633 171.031 105.985 171.38 107.36 171.38C108.735 171.38 110.087 171.031 111.29 170.366L156.321 145.717C157.607 145.013 158.681 143.977 159.43 142.717C160.178 141.457 160.575 140.018 160.579 138.553V89.6169C160.578 88.1483 160.182 86.707 159.433 85.4439C158.684 84.1808 157.609 83.1424 156.321 82.4375ZM107.36 64.9623L148.471 87.4779L107.36 109.994L66.2484 87.4779L107.36 64.9623ZM62.3286 94.642L103.266 117.045V160.945L62.3286 138.558V94.642ZM111.454 160.945V117.065L152.391 94.642V138.537L111.454 160.945Z" fill="#543FD6"/>
<path d="M53.8599 194.3V142.3L103.86 116.8V167.3L53.8599 194.3Z" fill="#543FD6"/>
<path d="M6.85986 113.8L53.8599 87.8001L102.36 113.8L53.8599 140.8L6.85986 113.8Z" fill="#E1E2FF" stroke="black"/>
<path d="M53.8599 141.858V194.519C53.1723 194.516 52.4965 194.34 51.8949 194.007L6.86361 169.363C6.22061 169.011 5.68386 168.493 5.3094 167.863C4.93495 167.233 4.73653 166.514 4.73486 165.781V116.84C4.73505 116.263 4.85712 115.693 5.09307 115.167L53.8599 141.858Z" fill="#8D87EC"/>
<path d="M102.821 109.65L57.7899 85.011C56.5867 84.3462 55.2345 83.9975 53.8599 83.9975C52.4852 83.9975 51.133 84.3462 49.9299 85.011L4.89861 109.661C3.6126 110.364 2.5391 111.4 1.79019 112.66C1.04128 113.921 0.644441 115.359 0.641113 116.825V165.765C0.644441 167.231 1.04128 168.669 1.79019 169.93C2.5391 171.19 3.6126 172.226 4.89861 172.929L49.9299 197.579C51.133 198.244 52.4852 198.592 53.8599 198.592C55.2345 198.592 56.5867 198.244 57.7899 197.579L102.821 172.929C104.107 172.226 105.181 171.19 105.93 169.93C106.678 168.669 107.075 167.231 107.079 165.765V116.83C107.078 115.361 106.682 113.92 105.933 112.657C105.184 111.394 104.109 110.355 102.821 109.65ZM53.8599 92.1751L94.9713 114.691L53.8599 137.206L12.7484 114.691L53.8599 92.1751ZM8.82861 121.855L49.7661 144.258V188.158L8.82861 165.77V121.855ZM57.9536 188.158V144.278L98.8911 121.855V165.75L57.9536 188.158Z" fill="#543FD6"/>
<path d="M159.86 194.3V142.3L209.86 116.8V167.3L159.86 194.3Z" fill="#543FD6"/>
<path d="M112.86 113.8L159.86 87.8001L208.36 113.8L159.86 140.8L112.86 113.8Z" fill="#E1E2FF" stroke="black"/>
<path d="M159.86 141.858V194.519C159.172 194.516 158.496 194.34 157.895 194.007L112.864 169.363C112.221 169.011 111.684 168.493 111.309 167.863C110.935 167.233 110.737 166.514 110.735 165.781V116.84C110.735 116.263 110.857 115.693 111.093 115.167L159.86 141.858Z" fill="#8D87EC"/>
<path d="M208.821 109.65L163.79 85.011C162.587 84.3462 161.235 83.9975 159.86 83.9975C158.485 83.9975 157.133 84.3462 155.93 85.011L110.899 109.661C109.613 110.364 108.539 111.4 107.79 112.66C107.041 113.921 106.644 115.359 106.641 116.825V165.765C106.644 167.231 107.041 168.669 107.79 169.93C108.539 171.19 109.613 172.226 110.899 172.929L155.93 197.579C157.133 198.244 158.485 198.592 159.86 198.592C161.235 198.592 162.587 198.244 163.79 197.579L208.821 172.929C210.107 172.226 211.181 171.19 211.93 169.93C212.678 168.669 213.075 167.231 213.079 165.765V116.83C213.078 115.361 212.682 113.92 211.933 112.657C211.184 111.394 210.109 110.355 208.821 109.65ZM159.86 92.1751L200.971 114.691L159.86 137.206L118.748 114.691L159.86 92.1751ZM114.829 121.855L155.766 144.258V188.158L114.829 165.77V121.855ZM163.954 188.158V144.278L204.891 121.855V165.75L163.954 188.158Z" fill="#543FD6"/>
<path d="M106.86 110.3V58.3001L156.86 32.8001V83.3001L106.86 110.3Z" fill="#543FD6"/>
<path d="M59.8599 29.8001L106.86 3.80011L155.36 29.8001L106.86 56.8001L59.8599 29.8001Z" fill="#E1E2FF" stroke="black"/>
<path d="M106.86 57.8579V110.519C106.172 110.516 105.496 110.34 104.895 110.007L59.8636 85.3628C59.2206 85.0109 58.6839 84.4929 58.3094 83.8628C57.9349 83.2328 57.7365 82.5137 57.7349 81.7807V32.8399C57.7351 32.2632 57.8571 31.6929 58.0931 31.1666L106.86 57.8579Z" fill="#8D87EC"/>
<path d="M155.821 25.6503L110.79 1.01103C109.587 0.346219 108.235 -0.00250244 106.86 -0.00250244C105.485 -0.00250244 104.133 0.346219 102.93 1.01103L57.8986 25.6605C56.6126 26.3642 55.5391 27.4002 54.7902 28.6603C54.0413 29.9205 53.6444 31.3587 53.6411 32.8246V81.7654C53.6444 83.2313 54.0413 84.6694 54.7902 85.9296C55.5391 87.1898 56.6126 88.2258 57.8986 88.9294L102.93 113.579C104.133 114.244 105.485 114.592 106.86 114.592C108.235 114.592 109.587 114.244 110.79 113.579L155.821 88.9294C157.107 88.2258 158.181 87.1898 158.93 85.9296C159.678 84.6694 160.075 83.2313 160.079 81.7654V32.8297C160.078 31.3612 159.682 29.9198 158.933 28.6567C158.184 27.3936 157.109 26.3552 155.821 25.6503ZM106.86 8.17509L147.971 30.6907L106.86 53.2063L65.7484 30.6907L106.86 8.17509ZM61.8286 37.8548L102.766 60.2578V104.158L61.8286 81.7705V37.8548ZM110.954 104.158V60.2783L151.891 37.8548V81.75L110.954 104.158Z" fill="#543FD6"/>
<path d="M159.86 139.3V87.3001L209.86 61.8001V112.3L159.86 139.3Z" fill="#543FD6"/>
<path d="M112.86 58.8001L159.86 32.8001L208.36 58.8001L159.86 85.8001L112.86 58.8001Z" fill="#E1E2FF" stroke="black"/>
<path d="M159.86 86.8579V139.519C159.172 139.516 158.496 139.34 157.895 139.007L112.864 114.363C112.221 114.011 111.684 113.493 111.309 112.863C110.935 112.233 110.737 111.514 110.735 110.781V61.8399C110.735 61.2632 110.857 60.6929 111.093 60.1666L159.86 86.8579Z" fill="#8D87EC"/>
<path d="M208.821 54.6503L163.79 30.011C162.587 29.3462 161.235 28.9975 159.86 28.9975C158.485 28.9975 157.133 29.3462 155.93 30.011L110.899 54.6605C109.613 55.3642 108.539 56.4002 107.79 57.6603C107.041 58.9205 106.644 60.3587 106.641 61.8246V110.765C106.644 112.231 107.041 113.669 107.79 114.93C108.539 116.19 109.613 117.226 110.899 117.929L155.93 142.579C157.133 143.244 158.485 143.592 159.86 143.592C161.235 143.592 162.587 143.244 163.79 142.579L208.821 117.929C210.107 117.226 211.181 116.19 211.93 114.93C212.678 113.669 213.075 112.231 213.079 110.765V61.8297C213.078 60.3612 212.682 58.9198 211.933 57.6567C211.184 56.3936 210.109 55.3552 208.821 54.6503ZM159.86 37.1751L200.971 59.6907L159.86 82.2063L118.748 59.6907L159.86 37.1751ZM114.829 66.8548L155.766 89.2578V133.158L114.829 110.77V66.8548ZM163.954 133.158V89.2783L204.891 66.8548V110.75L163.954 133.158Z" fill="#543FD6"/>
<path d="M106.86 223.3V171.3L156.86 145.8V196.3L106.86 223.3Z" fill="#543FD6"/>
<path d="M59.8599 142.8L106.86 116.8L155.36 142.8L106.86 169.8L59.8599 142.8Z" fill="#E1E2FF" stroke="black"/>
<path d="M106.86 170.858V223.519C106.172 223.516 105.496 223.34 104.895 223.007L59.8636 198.363C59.2206 198.011 58.6839 197.493 58.3094 196.863C57.9349 196.233 57.7365 195.514 57.7349 194.781V145.84C57.7351 145.263 57.8571 144.693 58.0931 144.167L106.86 170.858Z" fill="#8D87EC"/>
<path d="M155.821 138.65L110.79 114.011C109.587 113.346 108.235 112.997 106.86 112.997C105.485 112.997 104.133 113.346 102.93 114.011L57.8986 138.661C56.6126 139.364 55.5391 140.4 54.7902 141.66C54.0413 142.921 53.6444 144.359 53.6411 145.825V194.765C53.6444 196.231 54.0413 197.669 54.7902 198.93C55.5391 200.19 56.6126 201.226 57.8986 201.929L102.93 226.579C104.133 227.244 105.485 227.592 106.86 227.592C108.235 227.592 109.587 227.244 110.79 226.579L155.821 201.929C157.107 201.226 158.181 200.19 158.93 198.93C159.678 197.669 160.075 196.231 160.079 194.765V145.83C160.078 144.361 159.682 142.92 158.933 141.657C158.184 140.394 157.109 139.355 155.821 138.65ZM106.86 121.175L147.971 143.691L106.86 166.206L65.7484 143.691L106.86 121.175ZM61.8286 150.855L102.766 173.258V217.158L61.8286 194.77V150.855ZM110.954 217.158V173.278L151.891 150.855V194.75L110.954 217.158Z" fill="#543FD6"/>
<path d="M53.8599 139.3V87.3001L103.86 61.8001V112.3L53.8599 139.3Z" fill="#543FD6"/>
<path d="M6.85986 58.8001L53.8599 32.8001L102.36 58.8001L53.8599 85.8001L6.85986 58.8001Z" fill="#E1E2FF" stroke="black"/>
<path d="M53.8599 86.8579V139.519C53.1723 139.516 52.4965 139.34 51.8949 139.007L6.86361 114.363C6.22061 114.011 5.68386 113.493 5.3094 112.863C4.93495 112.233 4.73653 111.514 4.73486 110.781V61.8399C4.73505 61.2632 4.85712 60.6929 5.09307 60.1666L53.8599 86.8579Z" fill="#8D87EC"/>
<path d="M102.821 54.6503L57.7899 30.011C56.5867 29.3462 55.2345 28.9975 53.8599 28.9975C52.4852 28.9975 51.133 29.3462 49.9299 30.011L4.89861 54.6605C3.6126 55.3642 2.5391 56.4002 1.79019 57.6603C1.04128 58.9205 0.644441 60.3587 0.641113 61.8246V110.765C0.644441 112.231 1.04128 113.669 1.79019 114.93C2.5391 116.19 3.6126 117.226 4.89861 117.929L49.9299 142.579C51.133 143.244 52.4852 143.592 53.8599 143.592C55.2345 143.592 56.5867 143.244 57.7899 142.579L102.821 117.929C104.107 117.226 105.181 116.19 105.93 114.93C106.678 113.669 107.075 112.231 107.079 110.765V61.8297C107.078 60.3612 106.682 58.9198 105.933 57.6567C105.184 56.3936 104.109 55.3552 102.821 54.6503ZM53.8599 37.1751L94.9713 59.6907L53.8599 82.2063L12.7484 59.6907L53.8599 37.1751ZM8.82861 66.8548L49.7661 89.2578V133.158L8.82861 110.77V66.8548ZM57.9536 133.158V89.2783L98.8911 66.8548V110.75L57.9536 133.158Z" fill="#543FD6"/>
</g>
<defs>
<clipPath id="clip0_2435_6943">
<rect width="212.44" height="227.59" fill="white" transform="translate(0.639893)"/>
</clipPath>
</defs>
</svg>
