<svg width="214" height="228" viewBox="0 0 214 228" fill="none" xmlns="http://www.w3.org/2000/svg">
<g clip-path="url(#clip0_2435_6861)">
<path d="M107.1 152.3V100.3L157.1 74.8001V125.3L107.1 152.3Z" fill="#543FD6"/>
<path d="M60.1 71.8001L107.1 45.8001L155.6 71.8001L107.1 98.8001L60.1 71.8001Z" fill="#E1E2FF" stroke="black"/>
<path d="M107.1 99.8579V152.519C106.412 152.516 105.737 152.34 105.135 152.007L60.1038 127.363C59.4608 127.011 58.924 126.493 58.5495 125.863C58.1751 125.233 57.9767 124.514 57.975 123.781V74.8399C57.9752 74.2632 58.0973 73.6929 58.3332 73.1666L107.1 99.8579Z" fill="#8D87EC"/>
<path d="M156.061 67.6503L111.03 43.011C109.827 42.3462 108.475 41.9975 107.1 41.9975C105.725 41.9975 104.373 42.3462 103.17 43.011L58.1388 67.6605C56.8527 68.3642 55.7792 69.4002 55.0303 70.6603C54.2814 71.9205 53.8846 73.3587 53.8813 74.8246V123.765C53.8846 125.231 54.2814 126.669 55.0303 127.93C55.7792 129.19 56.8527 130.226 58.1388 130.929L103.17 155.579C104.373 156.244 105.725 156.592 107.1 156.592C108.475 156.592 109.827 156.244 111.03 155.579L156.061 130.929C157.347 130.226 158.421 129.19 159.17 127.93C159.919 126.669 160.315 125.231 160.319 123.765V74.8297C160.318 73.3612 159.923 71.9198 159.174 70.6567C158.425 69.3936 157.35 68.3552 156.061 67.6503ZM107.1 50.1751L148.211 72.6907L107.1 95.2063L65.9885 72.6907L107.1 50.1751ZM62.0688 79.8548L103.006 102.258V146.158L62.0688 123.77V79.8548ZM111.194 146.158V102.278L152.131 79.8548V123.75L111.194 146.158Z" fill="#543FD6"/>
<path d="M54.1 181.3V129.3L104.1 103.8V154.3L54.1 181.3Z" fill="#543FD6"/>
<path d="M7.10001 100.8L54.1 74.8001L102.6 100.8L54.1 127.8L7.10001 100.8Z" fill="#E1E2FF" stroke="black"/>
<path d="M54.1 128.858V181.519C53.4124 181.516 52.7366 181.34 52.135 181.007L7.10376 156.363C6.46075 156.011 5.924 155.493 5.54954 154.863C5.17509 154.233 4.97667 153.514 4.97501 152.781V103.84C4.97519 103.263 5.09726 102.693 5.33321 102.167L54.1 128.858Z" fill="#8D87EC"/>
<path d="M103.061 96.6503L58.03 72.011C56.8268 71.3462 55.4746 70.9975 54.1 70.9975C52.7254 70.9975 51.3732 71.3462 50.17 72.011L5.13876 96.6605C3.85275 97.3642 2.77924 98.4002 2.03033 99.6603C1.28142 100.921 0.884584 102.359 0.881256 103.825V152.765C0.884584 154.231 1.28142 155.669 2.03033 156.93C2.77924 158.19 3.85275 159.226 5.13876 159.929L50.17 184.579C51.3732 185.244 52.7254 185.592 54.1 185.592C55.4746 185.592 56.8268 185.244 58.03 184.579L103.061 159.929C104.347 159.226 105.421 158.19 106.17 156.93C106.919 155.669 107.315 154.231 107.319 152.765V103.83C107.318 102.361 106.923 100.92 106.174 99.6567C105.425 98.3936 104.35 97.3552 103.061 96.6503ZM54.1 79.1751L95.2115 101.691L54.1 124.206L12.9885 101.691L54.1 79.1751ZM9.06876 108.855L50.0063 131.258V175.158L9.06876 152.77V108.855ZM58.1938 175.158V131.278L99.1313 108.855V152.75L58.1938 175.158Z" fill="#543FD6"/>
<path d="M160.1 181.3V129.3L210.1 103.8V154.3L160.1 181.3Z" fill="#543FD6"/>
<path d="M113.1 100.8L160.1 74.8001L208.6 100.8L160.1 127.8L113.1 100.8Z" fill="#E1E2FF" stroke="black"/>
<path d="M160.1 128.858V181.519C159.412 181.516 158.737 181.34 158.135 181.007L113.104 156.363C112.461 156.011 111.924 155.493 111.55 154.863C111.175 154.233 110.977 153.514 110.975 152.781V103.84C110.975 103.263 111.097 102.693 111.333 102.167L160.1 128.858Z" fill="#8D87EC"/>
<path d="M209.061 96.6503L164.03 72.011C162.827 71.3462 161.475 70.9975 160.1 70.9975C158.725 70.9975 157.373 71.3462 156.17 72.011L111.139 96.6605C109.853 97.3642 108.779 98.4002 108.03 99.6603C107.281 100.921 106.885 102.359 106.881 103.825V152.765C106.885 154.231 107.281 155.669 108.03 156.93C108.779 158.19 109.853 159.226 111.139 159.929L156.17 184.579C157.373 185.244 158.725 185.592 160.1 185.592C161.475 185.592 162.827 185.244 164.03 184.579L209.061 159.929C210.347 159.226 211.421 158.19 212.17 156.93C212.919 155.669 213.315 154.231 213.319 152.765V103.83C213.318 102.361 212.923 100.92 212.174 99.6567C211.425 98.3936 210.35 97.3552 209.061 96.6503ZM160.1 79.1751L201.211 101.691L160.1 124.206L118.989 101.691L160.1 79.1751ZM115.069 108.855L156.006 131.258V175.158L115.069 152.77V108.855ZM164.194 175.158V131.278L205.131 108.855V152.75L164.194 175.158Z" fill="#543FD6"/>
</g>
<defs>
<clipPath id="clip0_2435_6861">
<rect width="212.44" height="227.59" fill="white" transform="translate(0.880005)"/>
</clipPath>
</defs>
</svg>
